<svg width="80" height="81" viewBox="0 0 80 81" fill="none" xmlns="http://www.w3.org/2000/svg">
<rect y="0.470703" width="80" height="80" rx="15" fill="#C78853"/>
<path d="M40 60.1286C39.7276 60.1286 39.4534 60.063 39.2017 59.9337C36.3874 58.4658 33.2603 57.6992 30.0862 57.6992C26.9121 57.6992 23.7849 58.4658 20.9707 59.9337C20.7077 60.07 20.414 60.1364 20.118 60.1265C19.822 60.1166 19.5335 60.0307 19.2802 59.8771C19.0269 59.7236 18.8173 59.5075 18.6716 59.2495C18.526 58.9916 18.449 58.7006 18.4482 58.4044V25.6458C18.4482 25.3677 18.5155 25.0937 18.6443 24.8472C18.7731 24.6007 18.9596 24.3891 19.1879 24.2303C25.7069 19.6941 34.4655 19.6941 40.9862 24.2303C41.4482 24.5527 41.7241 25.082 41.7241 25.6458V58.4044C41.7241 58.8617 41.5425 59.3002 41.2191 59.6236C40.8958 59.9469 40.4572 60.1286 40 60.1286ZM30.0862 54.251C32.862 54.251 35.6396 54.7492 38.2758 55.7458V26.5768C35.8094 25.0715 32.9757 24.2751 30.0862 24.2751C27.1966 24.2751 24.363 25.0715 21.8965 26.5768V55.7458C24.5137 54.7571 27.2884 54.2506 30.0862 54.251Z" fill="#FBFEF9"/>
<path d="M59.8271 60.1286C59.5547 60.1286 59.2806 60.063 59.0288 59.9337C56.2146 58.4658 53.0874 57.6992 49.9133 57.6992C46.7392 57.6992 43.6121 58.4658 40.7978 59.9337C40.5348 60.07 40.2412 60.1364 39.9452 60.1265C39.6491 60.1166 39.3606 60.0307 39.1073 59.8771C38.854 59.7236 38.6445 59.5075 38.4988 59.2495C38.3531 58.9916 38.2762 58.7006 38.2754 58.4044V25.6458C38.2754 25.3677 38.3426 25.0937 38.4714 24.8472C38.6002 24.6007 38.7867 24.3891 39.015 24.2303C45.534 19.6941 54.2926 19.6941 60.8133 24.2303C61.2754 24.5527 61.5513 25.082 61.5513 25.6458V58.4044C61.5513 58.8617 61.3696 59.3002 61.0463 59.6236C60.7229 59.9469 60.2844 60.1286 59.8271 60.1286ZM49.9133 54.251C52.6892 54.251 55.4668 54.7492 58.103 55.7458V26.5768C55.6365 25.0715 52.8029 24.2751 49.9133 24.2751C47.0238 24.2751 44.1901 25.0715 41.7237 26.5768V55.7458C44.3409 54.7571 47.1156 54.2506 49.9133 54.251Z" fill="#FBFEF9"/>
</svg>
