<svg width="80" height="81" viewBox="0 0 80 81" fill="none" xmlns="http://www.w3.org/2000/svg">
<rect y="0.470703" width="80" height="80" rx="15" fill="#C78853"/>
<path d="M55.2344 23.2832V20.9395C55.2332 19.9038 54.8212 18.911 54.0889 18.1787C53.3566 17.4464 52.3638 17.0344 51.3281 17.0332H27.8906C26.855 17.0344 25.8621 17.4464 25.1298 18.1787C24.3975 18.911 23.9856 19.9038 23.9844 20.9395V60.002C23.9856 61.0376 24.3975 62.0304 25.1298 62.7627C25.8621 63.495 26.855 63.907 27.8906 63.9082H51.3281C52.3638 63.907 53.3566 63.495 54.0889 62.7627C54.8212 62.0304 55.2332 61.0376 55.2344 60.002V38.9082C55.337 38.9083 55.4386 38.8881 55.5334 38.8489C55.6282 38.8096 55.7144 38.7521 55.7869 38.6795C55.8595 38.607 55.917 38.5208 55.9563 38.426C55.9955 38.3312 56.0157 38.2296 56.0156 38.127V36.5645C56.0157 36.4618 55.9955 36.3602 55.9563 36.2654C55.917 36.1706 55.8595 36.0845 55.7869 36.0119C55.7144 35.9393 55.6282 35.8818 55.5334 35.8426C55.4386 35.8033 55.337 35.7831 55.2344 35.7832V33.4395C55.337 33.4395 55.4386 33.4193 55.5334 33.3801C55.6282 33.3409 55.7144 33.2833 55.7869 33.2108C55.8595 33.1382 55.917 33.0521 55.9563 32.9572C55.9955 32.8624 56.0157 32.7608 56.0156 32.6582V24.0645C56.0157 23.9618 55.9955 23.8602 55.9563 23.7654C55.917 23.6706 55.8595 23.5845 55.7869 23.5119C55.7144 23.4393 55.6282 23.3818 55.5334 23.3426C55.4386 23.3033 55.337 23.2831 55.2344 23.2832ZM37.2656 19.377H41.9531C42.1584 19.3799 42.3543 19.4634 42.4985 19.6096C42.6426 19.7558 42.7234 19.9529 42.7234 20.1582C42.7234 20.3635 42.6426 20.5606 42.4985 20.7068C42.3543 20.853 42.1584 20.9365 41.9531 20.9395H37.2656C37.0603 20.9365 36.8644 20.853 36.7203 20.7068C36.5762 20.5606 36.4953 20.3635 36.4953 20.1582C36.4953 19.9529 36.5762 19.7558 36.7203 19.6096C36.8644 19.4634 37.0603 19.3799 37.2656 19.377ZM51.3281 58.4395C51.3281 58.8539 51.1635 59.2513 50.8705 59.5443C50.5775 59.8373 50.18 60.002 49.7656 60.002H29.4531C29.0387 60.002 28.6413 59.8373 28.3483 59.5443C28.0552 59.2513 27.8906 58.8539 27.8906 58.4395V24.0645C27.8906 23.6501 28.0552 23.2526 28.3483 22.9596C28.6413 22.6666 29.0387 22.502 29.4531 22.502H49.7656C50.18 22.502 50.5775 22.6666 50.8705 22.9596C51.1635 23.2526 51.3281 23.6501 51.3281 24.0645V58.4395Z" fill="#FBFEF9"/>
<path d="M34.5186 32.2666C32.1455 32.2666 30.2217 36.3593 30.2217 38.5166C30.249 39.382 30.5583 40.2147 31.1027 40.8879C31.647 41.5611 32.3964 42.038 33.2368 42.2459L32.2733 47.5452C32.2135 47.874 32.2267 48.212 32.312 48.5352C32.3972 48.8584 32.5524 49.1589 32.7665 49.4156C32.9807 49.6722 33.2486 49.8786 33.5514 50.0203C33.8541 50.1619 34.1843 50.2353 34.5186 50.2353C34.8528 50.2353 35.183 50.1619 35.4857 50.0203C35.7885 49.8786 36.0564 49.6722 36.2706 49.4156C36.4847 49.1589 36.6399 48.8584 36.7252 48.5352C36.8104 48.212 36.8236 47.874 36.7638 47.5452L35.8003 42.2459C36.6407 42.038 37.3901 41.5611 37.9344 40.8879C38.4788 40.2147 38.7881 39.382 38.8154 38.5166C38.8154 36.3593 36.8916 32.2666 34.5186 32.2666ZM47.8013 32.2666C47.4909 32.2667 47.1933 32.39 46.9738 32.6094C46.7543 32.8289 46.631 33.1266 46.631 33.437C46.6326 33.4521 46.6281 39.2842 46.6326 39.2979H46.2343C46.2427 39.2938 46.2315 33.4452 46.2359 33.437C46.2351 33.1271 46.1114 32.8302 45.892 32.6114C45.6726 32.3926 45.3754 32.2697 45.0655 32.2697C44.7557 32.2697 44.4584 32.3926 44.239 32.6114C44.0196 32.8302 43.896 33.1271 43.8952 33.437C43.8967 33.4522 43.8923 39.2842 43.8967 39.2979H43.4985C43.5069 39.2939 43.4956 33.4453 43.5 33.4371C43.5004 33.2831 43.4705 33.1306 43.4118 32.9882C43.3532 32.8459 43.267 32.7165 43.1583 32.6075C43.0496 32.4985 42.9205 32.4121 42.7783 32.3531C42.6361 32.294 42.4836 32.2637 42.3297 32.2637C42.1757 32.2637 42.0233 32.294 41.8811 32.3531C41.7389 32.4121 41.6098 32.4985 41.5011 32.6075C41.3923 32.7165 41.3062 32.8459 41.2476 32.9882C41.1889 33.1306 41.1589 33.2831 41.1593 33.4371C41.1609 33.4522 41.1564 39.2843 41.1609 39.298C41.1612 40.0349 41.4225 40.7478 41.8986 41.3103C42.3746 41.8727 43.0346 42.2483 43.7613 42.3703L42.8204 47.5452C42.7606 47.8741 42.7738 48.2121 42.859 48.5353C42.9443 48.8585 43.0994 49.159 43.3136 49.4156C43.5278 49.6722 43.7957 49.8787 44.0985 50.0203C44.4012 50.162 44.7314 50.2354 45.0656 50.2354C45.3999 50.2354 45.73 50.162 46.0328 50.0203C46.3355 49.8787 46.6035 49.6722 46.8176 49.4156C47.0318 49.159 47.187 48.8585 47.2722 48.5353C47.3575 48.2121 47.3706 47.8741 47.3109 47.5452L46.37 42.3703C47.0967 42.248 47.7566 41.8724 48.2329 41.3101C48.7091 40.7477 48.9708 40.0348 48.9717 39.2979C48.9754 39.3002 48.9696 33.4407 48.9717 33.437C48.9717 33.1266 48.8484 32.8289 48.6289 32.6095C48.4094 32.39 48.1117 32.2667 47.8013 32.2666Z" fill="#FBFEF9"/>
</svg>
