<svg width="80" height="81" viewBox="0 0 80 81" fill="none" xmlns="http://www.w3.org/2000/svg">
<rect y="0.470703" width="80" height="80" rx="15" fill="#C78853"/>
<path d="M37.7517 25.8165H26.731C26.388 25.8165 26.0591 25.9527 25.8166 26.1952C25.5741 26.4377 25.4379 26.7666 25.4379 27.1096V38.3165C25.4379 38.6594 25.5741 38.9883 25.8166 39.2308C26.0591 39.4733 26.388 39.6096 26.731 39.6096H37.7517C38.0946 39.6096 38.4235 39.4733 38.6661 39.2308C38.9086 38.9883 39.0448 38.6594 39.0448 38.3165V27.1096C39.0448 26.7666 38.9086 26.4377 38.6661 26.1952C38.4235 25.9527 38.0946 25.8165 37.7517 25.8165ZM36.4586 37.0234H28.0241V28.4027H36.4586V37.0234ZM33.9655 30.9889H30.5172V34.4372H33.9655V30.9889ZM20.1724 36.1613C20.6296 36.1613 21.0682 35.9797 21.3915 35.6563C21.7149 35.333 21.8965 34.8944 21.8965 34.4372V24.0923C21.897 23.6352 22.0788 23.1969 22.402 22.8737C22.7253 22.5505 23.1635 22.3687 23.6207 22.3682H33.9655C34.4228 22.3682 34.8613 22.1865 35.1846 21.8632C35.508 21.5399 35.6896 21.1013 35.6896 20.6441C35.6896 20.1868 35.508 19.7482 35.1846 19.4249C34.8613 19.1016 34.4228 18.9199 33.9655 18.9199H23.6207C22.2493 18.9213 20.9344 19.4667 19.9647 20.4364C18.995 21.4061 18.4496 22.7209 18.4482 24.0923V34.4372C18.4482 34.8944 18.6299 35.333 18.9532 35.6563C19.2766 35.9797 19.7151 36.1613 20.1724 36.1613ZM37.7517 41.3337H26.731C26.388 41.3337 26.0591 41.47 25.8166 41.7125C25.5741 41.955 25.4379 42.2839 25.4379 42.6268V53.8337C25.4379 54.1767 25.5741 54.5056 25.8166 54.7481C26.0591 54.9906 26.388 55.1268 26.731 55.1268H37.7517C38.0946 55.1268 38.4235 54.9906 38.6661 54.7481C38.9086 54.5056 39.0448 54.1767 39.0448 53.8337V42.6268C39.0448 42.2839 38.9086 41.955 38.6661 41.7125C38.4235 41.47 38.0946 41.3337 37.7517 41.3337ZM36.4586 52.5406H28.0241V43.9199H36.4586V52.5406ZM33.9655 46.5061H30.5172V49.9544H33.9655V46.5061ZM33.9655 58.5751H23.6207C23.1635 58.5746 22.7253 58.3928 22.402 58.0696C22.0788 57.7464 21.897 57.3081 21.8965 56.851V46.5061C21.8965 46.0489 21.7149 45.6103 21.3915 45.287C21.0682 44.9636 20.6296 44.782 20.1724 44.782C19.7151 44.782 19.2766 44.9636 18.9532 45.287C18.6299 45.6103 18.4482 46.0489 18.4482 46.5061V56.851C18.4496 58.2223 18.995 59.5372 19.9647 60.5069C20.9344 61.4766 22.2493 62.022 23.6207 62.0234H33.9655C34.4228 62.0234 34.8613 61.8417 35.1846 61.5184C35.508 61.195 35.6896 60.7565 35.6896 60.2992C35.6896 59.842 35.508 59.4034 35.1846 59.0801C34.8613 58.7567 34.4228 58.5751 33.9655 58.5751ZM59.8276 44.782C59.3703 44.782 58.9317 44.9636 58.6084 45.287C58.2851 45.6103 58.1034 46.0489 58.1034 46.5061V56.851C58.103 57.3081 57.9212 57.7464 57.5979 58.0696C57.2747 58.3928 56.8364 58.5746 56.3793 58.5751H46.0344C45.5772 58.5751 45.1386 58.7567 44.8153 59.0801C44.492 59.4034 44.3103 59.842 44.3103 60.2992C44.3103 60.7565 44.492 61.195 44.8153 61.5184C45.1386 61.8417 45.5772 62.0234 46.0344 62.0234H56.3793C57.7507 62.022 59.0655 61.4766 60.0352 60.5069C61.0049 59.5372 61.5503 58.2223 61.5517 56.851V46.5061C61.5517 46.0489 61.37 45.6103 61.0467 45.287C60.7234 44.9636 60.2848 44.782 59.8276 44.782ZM45.1724 50.8165H41.7241V54.2647H45.1724V50.8165ZM41.7241 45.6337H45.1724V42.1854H41.7241V45.6337ZM56.3793 18.9199H46.0344C45.5772 18.9199 45.1386 19.1016 44.8153 19.4249C44.492 19.7482 44.3103 20.1868 44.3103 20.6441C44.3103 21.1013 44.492 21.5399 44.8153 21.8632C45.1386 22.1865 45.5772 22.3682 46.0344 22.3682H56.3793C56.8364 22.3687 57.2747 22.5505 57.5979 22.8737C57.9212 23.1969 58.103 23.6352 58.1034 24.0923V34.4372C58.1034 34.8944 58.2851 35.333 58.6084 35.6563C58.9317 35.9797 59.3703 36.1613 59.8276 36.1613C60.2848 36.1613 60.7234 35.9797 61.0467 35.6563C61.37 35.333 61.5517 34.8944 61.5517 34.4372V24.0923C61.5503 22.7209 61.0049 21.4061 60.0352 20.4364C59.0655 19.4667 57.7507 18.9213 56.3793 18.9199ZM46.0344 34.4372H49.4827V30.9889H46.0344V34.4372ZM49.4827 49.9544V46.5061H46.0344V49.9544H49.4827ZM53.2689 39.6096C53.6119 39.6096 53.9408 39.4733 54.1833 39.2308C54.4258 38.9883 54.562 38.6594 54.562 38.3165V27.1096C54.562 26.7666 54.4258 26.4377 54.1833 26.1952C53.9408 25.9527 53.6119 25.8165 53.2689 25.8165H42.2482C41.9053 25.8165 41.5764 25.9527 41.3339 26.1952C41.0914 26.4377 40.9551 26.7666 40.9551 27.1096V38.3165C40.9551 38.6594 41.0914 38.9883 41.3339 39.2308C41.5764 39.4733 41.9053 39.6096 42.2482 39.6096H53.2689ZM43.5413 28.4027H51.9758V37.0234H43.5413V28.4027ZM53.7931 42.1854H50.3448V45.6337H53.7931V42.1854ZM50.3448 54.2647H53.7931V50.8165H50.3448V54.2647Z" fill="#FBFEF9"/>
</svg>
