<svg width="80" height="81" viewBox="0 0 80 81" fill="none" xmlns="http://www.w3.org/2000/svg">
<rect y="0.470703" width="80" height="80" rx="15" fill="#C78853"/>
<mask id="path-2-outside-1_438_1344" maskUnits="userSpaceOnUse" x="22.2598" y="31.2148" width="35" height="34" fill="black">
<rect fill="white" x="22.2598" y="31.2148" width="35" height="34"/>
<path d="M53.6948 43.0048H44.1448V37.2148C44.1448 35.8888 43.618 34.617 42.6803 33.6793C41.7426 32.7416 40.4708 32.2148 39.1448 32.2148C38.8795 32.2148 38.6252 32.3202 38.4377 32.5077C38.2501 32.6953 38.1448 32.9496 38.1448 33.2148V36.4698C38.1459 37.5391 37.9242 38.5969 37.4938 39.5758C37.0633 40.5546 36.4336 41.433 35.6448 42.1548L33.2798 44.3048V43.6048C33.2798 42.7999 32.96 42.0279 32.3908 41.4588C31.8217 40.8896 31.0497 40.5698 30.2448 40.5698H26.2998C25.4944 40.5698 24.7219 40.8894 24.1519 41.4585C23.582 42.0275 23.2611 42.7995 23.2598 43.6048V60.9348C23.2611 61.7402 23.582 62.5122 24.1519 63.0812C24.7219 63.6502 25.4944 63.9698 26.2998 63.9698H30.2398C30.7148 63.9697 31.1832 63.8578 31.607 63.6433C32.0309 63.4287 32.3983 63.1176 32.6798 62.7348H50.9998C51.5713 62.7348 52.1194 62.5078 52.5236 62.1037C52.9277 61.6995 53.1548 61.1514 53.1548 60.5798V58.8248C53.152 58.4446 53.0485 58.072 52.8548 57.7448C53.1392 57.5448 53.3709 57.2788 53.5303 56.9697C53.6896 56.6606 53.7718 56.3176 53.7698 55.9698V54.3798C53.771 54.1397 53.7304 53.9011 53.6498 53.6748C54.1927 53.6345 54.7005 53.3906 55.0713 52.992C55.4421 52.5933 55.6487 52.0693 55.6498 51.5248V49.7698C55.6479 49.3873 55.5425 49.0124 55.3448 48.6848C55.742 48.5072 56.0818 48.222 56.3256 47.8616C56.5694 47.5011 56.7077 47.0797 56.7248 46.6448V45.4298C56.7398 44.0698 55.3998 43.0048 53.6948 43.0048ZM30.2398 62.5048H26.2998C25.8803 62.5048 25.4779 62.3385 25.1808 62.0424C24.8837 61.7462 24.7161 61.3443 24.7148 60.9248V43.6048C24.7161 43.1853 24.8837 42.7835 25.1808 42.4873C25.4779 42.1911 25.8803 42.0248 26.2998 42.0248H30.2398C30.6593 42.0248 31.0617 42.1911 31.3588 42.4873C31.6559 42.7835 31.8234 43.1853 31.8248 43.6048V60.9348C31.8234 61.3543 31.6559 61.7562 31.3588 62.0524C31.0617 62.3485 30.6593 62.5148 30.2398 62.5148V62.5048ZM54.2098 51.5048C54.2098 51.5968 54.1917 51.6878 54.1565 51.7727C54.1213 51.8577 54.0697 51.9348 54.0047 51.9998C53.9397 52.0648 53.8626 52.1164 53.7776 52.1516C53.6927 52.1867 53.6017 52.2048 53.5098 52.2048H48.9998C48.8172 52.22 48.6471 52.3032 48.523 52.438C48.399 52.5727 48.3301 52.7492 48.3301 52.9323C48.3301 53.1155 48.399 53.292 48.523 53.4267C48.6471 53.5615 48.8172 53.6447 48.9998 53.6598H51.6048C51.6967 53.6598 51.7877 53.6779 51.8726 53.7131C51.9576 53.7483 52.0347 53.7999 52.0997 53.8649C52.1647 53.9299 52.2163 54.007 52.2515 54.092C52.2867 54.1769 52.3048 54.2679 52.3048 54.3598V55.9698C52.3054 56.062 52.2878 56.1533 52.2528 56.2385C52.2179 56.3237 52.1664 56.4012 52.1012 56.4663C52.0361 56.5314 51.9587 56.583 51.8734 56.6179C51.7882 56.6529 51.6969 56.6705 51.6048 56.6698C51.5262 56.6723 51.4485 56.6875 51.3748 56.7148C51.2513 56.6888 51.1258 56.6737 50.9998 56.6698H47.3848C47.2022 56.685 47.0321 56.7682 46.908 56.903C46.784 57.0377 46.7151 57.2142 46.7151 57.3973C46.7151 57.5805 46.784 57.757 46.908 57.8917C47.0321 58.0265 47.2022 58.1097 47.3848 58.1248H50.9998C51.1854 58.1248 51.3635 58.1986 51.4947 58.3299C51.626 58.4611 51.6998 58.6392 51.6998 58.8248V60.5798C51.6998 60.7655 51.626 60.9435 51.4947 61.0748C51.3635 61.2061 51.1854 61.2798 50.9998 61.2798H33.2548C33.2622 61.165 33.2622 61.0497 33.2548 60.9348V46.2748L36.5998 43.2348C37.5425 42.3787 38.2962 41.3353 38.8128 40.1713C39.3293 39.0073 39.5974 37.7483 39.5998 36.4748V33.7048C40.45 33.8163 41.2308 34.2325 41.7973 34.8762C42.3638 35.5199 42.6773 36.3474 42.6798 37.2048V43.4698C42.677 43.711 42.7616 43.945 42.9178 44.1288C43.074 44.3126 43.2913 44.4337 43.5298 44.4698C43.578 44.4748 43.6266 44.4748 43.6748 44.4698H53.6748C54.6098 44.4698 55.2648 44.9698 55.2648 45.4398V46.6548C55.2648 47.1148 54.6098 47.6248 53.6748 47.6248H50.4998C50.3172 47.64 50.1471 47.7232 50.023 47.858C49.899 47.9927 49.8301 48.1692 49.8301 48.3523C49.8301 48.5355 49.899 48.712 50.023 48.8467C50.1471 48.9815 50.3172 49.0647 50.4998 49.0798H53.4998C53.6854 49.0798 53.8635 49.1536 53.9947 49.2849C54.126 49.4161 54.1998 49.5942 54.1998 49.7798L54.2098 51.5048Z"/>
</mask>
<path d="M53.6948 43.0048H44.1448V37.2148C44.1448 35.8888 43.618 34.617 42.6803 33.6793C41.7426 32.7416 40.4708 32.2148 39.1448 32.2148C38.8795 32.2148 38.6252 32.3202 38.4377 32.5077C38.2501 32.6953 38.1448 32.9496 38.1448 33.2148V36.4698C38.1459 37.5391 37.9242 38.5969 37.4938 39.5758C37.0633 40.5546 36.4336 41.433 35.6448 42.1548L33.2798 44.3048V43.6048C33.2798 42.7999 32.96 42.0279 32.3908 41.4588C31.8217 40.8896 31.0497 40.5698 30.2448 40.5698H26.2998C25.4944 40.5698 24.7219 40.8894 24.1519 41.4585C23.582 42.0275 23.2611 42.7995 23.2598 43.6048V60.9348C23.2611 61.7402 23.582 62.5122 24.1519 63.0812C24.7219 63.6502 25.4944 63.9698 26.2998 63.9698H30.2398C30.7148 63.9697 31.1832 63.8578 31.607 63.6433C32.0309 63.4287 32.3983 63.1176 32.6798 62.7348H50.9998C51.5713 62.7348 52.1194 62.5078 52.5236 62.1037C52.9277 61.6995 53.1548 61.1514 53.1548 60.5798V58.8248C53.152 58.4446 53.0485 58.072 52.8548 57.7448C53.1392 57.5448 53.3709 57.2788 53.5303 56.9697C53.6896 56.6606 53.7718 56.3176 53.7698 55.9698V54.3798C53.771 54.1397 53.7304 53.9011 53.6498 53.6748C54.1927 53.6345 54.7005 53.3906 55.0713 52.992C55.4421 52.5933 55.6487 52.0693 55.6498 51.5248V49.7698C55.6479 49.3873 55.5425 49.0124 55.3448 48.6848C55.742 48.5072 56.0818 48.222 56.3256 47.8616C56.5694 47.5011 56.7077 47.0797 56.7248 46.6448V45.4298C56.7398 44.0698 55.3998 43.0048 53.6948 43.0048ZM30.2398 62.5048H26.2998C25.8803 62.5048 25.4779 62.3385 25.1808 62.0424C24.8837 61.7462 24.7161 61.3443 24.7148 60.9248V43.6048C24.7161 43.1853 24.8837 42.7835 25.1808 42.4873C25.4779 42.1911 25.8803 42.0248 26.2998 42.0248H30.2398C30.6593 42.0248 31.0617 42.1911 31.3588 42.4873C31.6559 42.7835 31.8234 43.1853 31.8248 43.6048V60.9348C31.8234 61.3543 31.6559 61.7562 31.3588 62.0524C31.0617 62.3485 30.6593 62.5148 30.2398 62.5148V62.5048ZM54.2098 51.5048C54.2098 51.5968 54.1917 51.6878 54.1565 51.7727C54.1213 51.8577 54.0697 51.9348 54.0047 51.9998C53.9397 52.0648 53.8626 52.1164 53.7776 52.1516C53.6927 52.1867 53.6017 52.2048 53.5098 52.2048H48.9998C48.8172 52.22 48.6471 52.3032 48.523 52.438C48.399 52.5727 48.3301 52.7492 48.3301 52.9323C48.3301 53.1155 48.399 53.292 48.523 53.4267C48.6471 53.5615 48.8172 53.6447 48.9998 53.6598H51.6048C51.6967 53.6598 51.7877 53.6779 51.8726 53.7131C51.9576 53.7483 52.0347 53.7999 52.0997 53.8649C52.1647 53.9299 52.2163 54.007 52.2515 54.092C52.2867 54.1769 52.3048 54.2679 52.3048 54.3598V55.9698C52.3054 56.062 52.2878 56.1533 52.2528 56.2385C52.2179 56.3237 52.1664 56.4012 52.1012 56.4663C52.0361 56.5314 51.9587 56.583 51.8734 56.6179C51.7882 56.6529 51.6969 56.6705 51.6048 56.6698C51.5262 56.6723 51.4485 56.6875 51.3748 56.7148C51.2513 56.6888 51.1258 56.6737 50.9998 56.6698H47.3848C47.2022 56.685 47.0321 56.7682 46.908 56.903C46.784 57.0377 46.7151 57.2142 46.7151 57.3973C46.7151 57.5805 46.784 57.757 46.908 57.8917C47.0321 58.0265 47.2022 58.1097 47.3848 58.1248H50.9998C51.1854 58.1248 51.3635 58.1986 51.4947 58.3299C51.626 58.4611 51.6998 58.6392 51.6998 58.8248V60.5798C51.6998 60.7655 51.626 60.9435 51.4947 61.0748C51.3635 61.2061 51.1854 61.2798 50.9998 61.2798H33.2548C33.2622 61.165 33.2622 61.0497 33.2548 60.9348V46.2748L36.5998 43.2348C37.5425 42.3787 38.2962 41.3353 38.8128 40.1713C39.3293 39.0073 39.5974 37.7483 39.5998 36.4748V33.7048C40.45 33.8163 41.2308 34.2325 41.7973 34.8762C42.3638 35.5199 42.6773 36.3474 42.6798 37.2048V43.4698C42.677 43.711 42.7616 43.945 42.9178 44.1288C43.074 44.3126 43.2913 44.4337 43.5298 44.4698C43.578 44.4748 43.6266 44.4748 43.6748 44.4698H53.6748C54.6098 44.4698 55.2648 44.9698 55.2648 45.4398V46.6548C55.2648 47.1148 54.6098 47.6248 53.6748 47.6248H50.4998C50.3172 47.64 50.1471 47.7232 50.023 47.858C49.899 47.9927 49.8301 48.1692 49.8301 48.3523C49.8301 48.5355 49.899 48.712 50.023 48.8467C50.1471 48.9815 50.3172 49.0647 50.4998 49.0798H53.4998C53.6854 49.0798 53.8635 49.1536 53.9947 49.2849C54.126 49.4161 54.1998 49.5942 54.1998 49.7798L54.2098 51.5048Z" fill="#FBFEF9"/>
<path d="M53.6948 43.0048H44.1448V37.2148C44.1448 35.8888 43.618 34.617 42.6803 33.6793C41.7426 32.7416 40.4708 32.2148 39.1448 32.2148C38.8795 32.2148 38.6252 32.3202 38.4377 32.5077C38.2501 32.6953 38.1448 32.9496 38.1448 33.2148V36.4698C38.1459 37.5391 37.9242 38.5969 37.4938 39.5758C37.0633 40.5546 36.4336 41.433 35.6448 42.1548L33.2798 44.3048V43.6048C33.2798 42.7999 32.96 42.0279 32.3908 41.4588C31.8217 40.8896 31.0497 40.5698 30.2448 40.5698H26.2998C25.4944 40.5698 24.7219 40.8894 24.1519 41.4585C23.582 42.0275 23.2611 42.7995 23.2598 43.6048V60.9348C23.2611 61.7402 23.582 62.5122 24.1519 63.0812C24.7219 63.6502 25.4944 63.9698 26.2998 63.9698H30.2398C30.7148 63.9697 31.1832 63.8578 31.607 63.6433C32.0309 63.4287 32.3983 63.1176 32.6798 62.7348H50.9998C51.5713 62.7348 52.1194 62.5078 52.5236 62.1037C52.9277 61.6995 53.1548 61.1514 53.1548 60.5798V58.8248C53.152 58.4446 53.0485 58.072 52.8548 57.7448C53.1392 57.5448 53.3709 57.2788 53.5303 56.9697C53.6896 56.6606 53.7718 56.3176 53.7698 55.9698V54.3798C53.771 54.1397 53.7304 53.9011 53.6498 53.6748C54.1927 53.6345 54.7005 53.3906 55.0713 52.992C55.4421 52.5933 55.6487 52.0693 55.6498 51.5248V49.7698C55.6479 49.3873 55.5425 49.0124 55.3448 48.6848C55.742 48.5072 56.0818 48.222 56.3256 47.8616C56.5694 47.5011 56.7077 47.0797 56.7248 46.6448V45.4298C56.7398 44.0698 55.3998 43.0048 53.6948 43.0048ZM30.2398 62.5048H26.2998C25.8803 62.5048 25.4779 62.3385 25.1808 62.0424C24.8837 61.7462 24.7161 61.3443 24.7148 60.9248V43.6048C24.7161 43.1853 24.8837 42.7835 25.1808 42.4873C25.4779 42.1911 25.8803 42.0248 26.2998 42.0248H30.2398C30.6593 42.0248 31.0617 42.1911 31.3588 42.4873C31.6559 42.7835 31.8234 43.1853 31.8248 43.6048V60.9348C31.8234 61.3543 31.6559 61.7562 31.3588 62.0524C31.0617 62.3485 30.6593 62.5148 30.2398 62.5148V62.5048ZM54.2098 51.5048C54.2098 51.5968 54.1917 51.6878 54.1565 51.7727C54.1213 51.8577 54.0697 51.9348 54.0047 51.9998C53.9397 52.0648 53.8626 52.1164 53.7776 52.1516C53.6927 52.1867 53.6017 52.2048 53.5098 52.2048H48.9998C48.8172 52.22 48.6471 52.3032 48.523 52.438C48.399 52.5727 48.3301 52.7492 48.3301 52.9323C48.3301 53.1155 48.399 53.292 48.523 53.4267C48.6471 53.5615 48.8172 53.6447 48.9998 53.6598H51.6048C51.6967 53.6598 51.7877 53.6779 51.8726 53.7131C51.9576 53.7483 52.0347 53.7999 52.0997 53.8649C52.1647 53.9299 52.2163 54.007 52.2515 54.092C52.2867 54.1769 52.3048 54.2679 52.3048 54.3598V55.9698C52.3054 56.062 52.2878 56.1533 52.2528 56.2385C52.2179 56.3237 52.1664 56.4012 52.1012 56.4663C52.0361 56.5314 51.9587 56.583 51.8734 56.6179C51.7882 56.6529 51.6969 56.6705 51.6048 56.6698C51.5262 56.6723 51.4485 56.6875 51.3748 56.7148C51.2513 56.6888 51.1258 56.6737 50.9998 56.6698H47.3848C47.2022 56.685 47.0321 56.7682 46.908 56.903C46.784 57.0377 46.7151 57.2142 46.7151 57.3973C46.7151 57.5805 46.784 57.757 46.908 57.8917C47.0321 58.0265 47.2022 58.1097 47.3848 58.1248H50.9998C51.1854 58.1248 51.3635 58.1986 51.4947 58.3299C51.626 58.4611 51.6998 58.6392 51.6998 58.8248V60.5798C51.6998 60.7655 51.626 60.9435 51.4947 61.0748C51.3635 61.2061 51.1854 61.2798 50.9998 61.2798H33.2548C33.2622 61.165 33.2622 61.0497 33.2548 60.9348V46.2748L36.5998 43.2348C37.5425 42.3787 38.2962 41.3353 38.8128 40.1713C39.3293 39.0073 39.5974 37.7483 39.5998 36.4748V33.7048C40.45 33.8163 41.2308 34.2325 41.7973 34.8762C42.3638 35.5199 42.6773 36.3474 42.6798 37.2048V43.4698C42.677 43.711 42.7616 43.945 42.9178 44.1288C43.074 44.3126 43.2913 44.4337 43.5298 44.4698C43.578 44.4748 43.6266 44.4748 43.6748 44.4698H53.6748C54.6098 44.4698 55.2648 44.9698 55.2648 45.4398V46.6548C55.2648 47.1148 54.6098 47.6248 53.6748 47.6248H50.4998C50.3172 47.64 50.1471 47.7232 50.023 47.858C49.899 47.9927 49.8301 48.1692 49.8301 48.3523C49.8301 48.5355 49.899 48.712 50.023 48.8467C50.1471 48.9815 50.3172 49.0647 50.4998 49.0798H53.4998C53.6854 49.0798 53.8635 49.1536 53.9947 49.2849C54.126 49.4161 54.1998 49.5942 54.1998 49.7798L54.2098 51.5048Z" stroke="#FBFEF9" mask="url(#path-2-outside-1_438_1344)"/>
<mask id="path-3-outside-2_438_1344" maskUnits="userSpaceOnUse" x="16.543" y="15.9707" width="47" height="25" fill="black">
<rect fill="white" x="16.543" y="15.9707" width="47" height="25"/>
<path d="M28.3396 39.6558C28.4601 39.7192 28.5961 39.7473 28.7319 39.737C28.8677 39.7266 28.9979 39.6783 29.1075 39.5974C29.2171 39.5165 29.3016 39.4064 29.3515 39.2796C29.4014 39.1529 29.4146 39.0147 29.3896 38.8808L28.6746 34.8808L31.5896 31.9708C31.6857 31.8752 31.7533 31.7546 31.7848 31.6227C31.8163 31.4909 31.8104 31.3528 31.7679 31.2241C31.7253 31.0953 31.6477 30.981 31.5438 30.8938C31.4399 30.8067 31.3138 30.7503 31.1796 30.7308L27.1296 30.1658L25.2996 26.5208C25.2387 26.4006 25.1457 26.2997 25.031 26.2291C24.9163 26.1585 24.7843 26.121 24.6496 26.1208C24.5137 26.1213 24.3807 26.1601 24.2658 26.2326C24.1508 26.3051 24.0586 26.4084 23.9996 26.5308L22.2096 30.2058L18.1596 30.8158C18.0256 30.8369 17.9001 30.8948 17.7973 30.9832C17.6944 31.0716 17.6182 31.1869 17.5771 31.3162C17.5361 31.4454 17.5319 31.5836 17.565 31.7151C17.5982 31.8466 17.6672 31.9663 17.7646 32.0608L20.7096 34.9008L20.0396 38.9358C20.0176 39.0691 20.0336 39.206 20.0858 39.3307C20.138 39.4553 20.2242 39.5628 20.3346 39.6408C20.4582 39.7305 20.6068 39.7794 20.7596 39.7808C20.8781 39.7799 20.9946 39.7507 21.0996 39.6958L24.7096 37.7708L28.3396 39.6558ZM24.3646 36.3058L21.7146 37.7208L22.2146 34.7608C22.2329 34.6439 22.2229 34.5244 22.1855 34.4121C22.1481 34.2999 22.0844 34.1983 21.9996 34.1158L19.8346 32.0358L22.7996 31.5858C22.9159 31.568 23.0263 31.5223 23.1212 31.4527C23.2161 31.383 23.2927 31.2915 23.3446 31.1858L24.6596 28.4708L25.9996 31.1708C26.0522 31.2764 26.1298 31.3676 26.2256 31.4364C26.3215 31.5053 26.4327 31.5497 26.5496 31.5658L29.4996 31.9708L27.3646 34.0758C27.2802 34.1583 27.2173 34.2602 27.1816 34.3727C27.1458 34.4852 27.1383 34.6047 27.1596 34.7208L27.6846 37.6758L25.0196 36.2958C24.9172 36.2463 24.8046 36.2215 24.6909 36.2232C24.5772 36.2249 24.4654 36.2532 24.3646 36.3058ZM62.4196 31.2358C62.3774 31.1058 62.2999 30.9902 62.1956 30.9019C62.0914 30.8136 61.9647 30.7561 61.8296 30.7358L57.7796 30.1708L55.9496 26.5208C55.8887 26.4006 55.7957 26.2997 55.681 26.2291C55.5663 26.1585 55.4343 26.121 55.2996 26.1208C55.1637 26.1213 55.0307 26.1601 54.9158 26.2326C54.8008 26.3051 54.7086 26.4084 54.6496 26.5308L52.8596 30.2058L48.8146 30.8158C48.6806 30.8369 48.5551 30.8948 48.4523 30.9832C48.3494 31.0716 48.2732 31.1869 48.2321 31.3162C48.1911 31.4454 48.1869 31.5836 48.22 31.7151C48.2532 31.8466 48.3222 31.9663 48.4196 32.0608L51.3646 34.9008L50.6946 38.9358C50.6737 39.0701 50.6912 39.2076 50.7452 39.3324C50.7992 39.4571 50.8874 39.564 50.9996 39.6408C51.1232 39.7305 51.2718 39.7794 51.4246 39.7808C51.543 39.7799 51.6596 39.7507 51.7646 39.6958L55.3746 37.7708L58.9996 39.6558C59.1201 39.7192 59.2561 39.7473 59.3919 39.737C59.5277 39.7266 59.6579 39.6783 59.7675 39.5974C59.8771 39.5165 59.9616 39.4064 60.0115 39.2796C60.0614 39.1529 60.0746 39.0147 60.0496 38.8808L59.3346 34.8808L62.2396 31.9708C62.3329 31.8758 62.3989 31.7574 62.4306 31.628C62.4623 31.4987 62.4585 31.3632 62.4196 31.2358ZM58.0346 34.0858C57.9502 34.1683 57.8873 34.2702 57.8516 34.3827C57.8158 34.4952 57.8083 34.6147 57.8296 34.7308L58.3296 37.6858L55.6696 36.3058C55.5654 36.2515 55.4496 36.2231 55.3321 36.2231C55.2146 36.2231 55.0988 36.2515 54.9946 36.3058L52.3446 37.7208L52.8446 34.7608C52.8635 34.6443 52.8544 34.525 52.8178 34.4128C52.7813 34.3006 52.7185 34.1988 52.6346 34.1158L50.4996 32.0358L53.4646 31.5858C53.5809 31.568 53.6913 31.5223 53.7862 31.4527C53.8811 31.383 53.9577 31.2915 54.0096 31.1858L55.3096 28.4708L56.6496 31.1708C56.7022 31.2764 56.7798 31.3676 56.8756 31.4364C56.9715 31.5053 57.0827 31.5497 57.1996 31.5658L60.1696 31.9808L58.0346 34.0858ZM36.0346 25.7508L35.3646 29.7858C35.3465 29.916 35.3645 30.0487 35.4165 30.1695C35.4685 30.2902 35.5525 30.3944 35.6596 30.4708C35.7821 30.5627 35.9314 30.6119 36.0846 30.6108C36.2031 30.6099 36.3196 30.5807 36.4246 30.5258L40.0346 28.6008L43.6646 30.4858C43.781 30.5543 43.9141 30.5892 44.0492 30.5865C44.1843 30.5839 44.3159 30.5438 44.4296 30.4708C44.5399 30.3908 44.6252 30.2811 44.6756 30.1546C44.7261 30.028 44.7396 29.8897 44.7146 29.7558L43.9996 25.7558L46.9146 22.8858C47.0268 22.7927 47.1085 22.6681 47.1493 22.5282C47.1901 22.3882 47.188 22.2392 47.1434 22.1004C47.0987 21.9616 47.0135 21.8394 46.8988 21.7495C46.784 21.6595 46.645 21.606 46.4996 21.5958L42.4496 21.0308L40.6246 17.3758C40.5654 17.2528 40.4723 17.1493 40.3563 17.0776C40.2402 17.0058 40.106 16.9687 39.9696 16.9708C39.8339 16.9725 39.7014 17.0117 39.5867 17.0841C39.472 17.1564 39.3795 17.2591 39.3196 17.3808L37.5296 21.0608L33.4996 21.6708C33.3656 21.6908 33.2398 21.748 33.1367 21.8358C33.0335 21.9237 32.957 22.0387 32.9159 22.1678C32.8748 22.2969 32.8707 22.4349 32.904 22.5663C32.9373 22.6976 33.0068 22.8169 33.1046 22.9108L36.0346 25.7508ZM38.1246 22.4408C38.241 22.4213 38.3511 22.3744 38.4459 22.304C38.5406 22.2336 38.6173 22.1416 38.6696 22.0358L39.9996 19.3408L41.3396 22.0258C41.3935 22.13 41.4715 22.2197 41.5672 22.2876C41.6629 22.3554 41.7734 22.3994 41.8896 22.4158L44.8596 22.8308L42.7246 24.9358C42.6366 25.0163 42.57 25.1173 42.5307 25.2299C42.4914 25.3425 42.4807 25.463 42.4996 25.5808L43.0246 28.5358L40.3596 27.1558C40.2558 27.1002 40.1398 27.0711 40.0221 27.0711C39.9043 27.0711 39.7884 27.1002 39.6846 27.1558L37.0346 28.5658L37.5346 25.6058C37.5512 25.4905 37.5405 25.3729 37.5031 25.2625C37.4657 25.1522 37.4029 25.0522 37.3196 24.9708L35.1596 22.8908L38.1246 22.4408Z"/>
</mask>
<path d="M28.3396 39.6558C28.4601 39.7192 28.5961 39.7473 28.7319 39.737C28.8677 39.7266 28.9979 39.6783 29.1075 39.5974C29.2171 39.5165 29.3016 39.4064 29.3515 39.2796C29.4014 39.1529 29.4146 39.0147 29.3896 38.8808L28.6746 34.8808L31.5896 31.9708C31.6857 31.8752 31.7533 31.7546 31.7848 31.6227C31.8163 31.4909 31.8104 31.3528 31.7679 31.2241C31.7253 31.0953 31.6477 30.981 31.5438 30.8938C31.4399 30.8067 31.3138 30.7503 31.1796 30.7308L27.1296 30.1658L25.2996 26.5208C25.2387 26.4006 25.1457 26.2997 25.031 26.2291C24.9163 26.1585 24.7843 26.121 24.6496 26.1208C24.5137 26.1213 24.3807 26.1601 24.2658 26.2326C24.1508 26.3051 24.0586 26.4084 23.9996 26.5308L22.2096 30.2058L18.1596 30.8158C18.0256 30.8369 17.9001 30.8948 17.7973 30.9832C17.6944 31.0716 17.6182 31.1869 17.5771 31.3162C17.5361 31.4454 17.5319 31.5836 17.565 31.7151C17.5982 31.8466 17.6672 31.9663 17.7646 32.0608L20.7096 34.9008L20.0396 38.9358C20.0176 39.0691 20.0336 39.206 20.0858 39.3307C20.138 39.4553 20.2242 39.5628 20.3346 39.6408C20.4582 39.7305 20.6068 39.7794 20.7596 39.7808C20.8781 39.7799 20.9946 39.7507 21.0996 39.6958L24.7096 37.7708L28.3396 39.6558ZM24.3646 36.3058L21.7146 37.7208L22.2146 34.7608C22.2329 34.6439 22.2229 34.5244 22.1855 34.4121C22.1481 34.2999 22.0844 34.1983 21.9996 34.1158L19.8346 32.0358L22.7996 31.5858C22.9159 31.568 23.0263 31.5223 23.1212 31.4527C23.2161 31.383 23.2927 31.2915 23.3446 31.1858L24.6596 28.4708L25.9996 31.1708C26.0522 31.2764 26.1298 31.3676 26.2256 31.4364C26.3215 31.5053 26.4327 31.5497 26.5496 31.5658L29.4996 31.9708L27.3646 34.0758C27.2802 34.1583 27.2173 34.2602 27.1816 34.3727C27.1458 34.4852 27.1383 34.6047 27.1596 34.7208L27.6846 37.6758L25.0196 36.2958C24.9172 36.2463 24.8046 36.2215 24.6909 36.2232C24.5772 36.2249 24.4654 36.2532 24.3646 36.3058ZM62.4196 31.2358C62.3774 31.1058 62.2999 30.9902 62.1956 30.9019C62.0914 30.8136 61.9647 30.7561 61.8296 30.7358L57.7796 30.1708L55.9496 26.5208C55.8887 26.4006 55.7957 26.2997 55.681 26.2291C55.5663 26.1585 55.4343 26.121 55.2996 26.1208C55.1637 26.1213 55.0307 26.1601 54.9158 26.2326C54.8008 26.3051 54.7086 26.4084 54.6496 26.5308L52.8596 30.2058L48.8146 30.8158C48.6806 30.8369 48.5551 30.8948 48.4523 30.9832C48.3494 31.0716 48.2732 31.1869 48.2321 31.3162C48.1911 31.4454 48.1869 31.5836 48.22 31.7151C48.2532 31.8466 48.3222 31.9663 48.4196 32.0608L51.3646 34.9008L50.6946 38.9358C50.6737 39.0701 50.6912 39.2076 50.7452 39.3324C50.7992 39.4571 50.8874 39.564 50.9996 39.6408C51.1232 39.7305 51.2718 39.7794 51.4246 39.7808C51.543 39.7799 51.6596 39.7507 51.7646 39.6958L55.3746 37.7708L58.9996 39.6558C59.1201 39.7192 59.2561 39.7473 59.3919 39.737C59.5277 39.7266 59.6579 39.6783 59.7675 39.5974C59.8771 39.5165 59.9616 39.4064 60.0115 39.2796C60.0614 39.1529 60.0746 39.0147 60.0496 38.8808L59.3346 34.8808L62.2396 31.9708C62.3329 31.8758 62.3989 31.7574 62.4306 31.628C62.4623 31.4987 62.4585 31.3632 62.4196 31.2358ZM58.0346 34.0858C57.9502 34.1683 57.8873 34.2702 57.8516 34.3827C57.8158 34.4952 57.8083 34.6147 57.8296 34.7308L58.3296 37.6858L55.6696 36.3058C55.5654 36.2515 55.4496 36.2231 55.3321 36.2231C55.2146 36.2231 55.0988 36.2515 54.9946 36.3058L52.3446 37.7208L52.8446 34.7608C52.8635 34.6443 52.8544 34.525 52.8178 34.4128C52.7813 34.3006 52.7185 34.1988 52.6346 34.1158L50.4996 32.0358L53.4646 31.5858C53.5809 31.568 53.6913 31.5223 53.7862 31.4527C53.8811 31.383 53.9577 31.2915 54.0096 31.1858L55.3096 28.4708L56.6496 31.1708C56.7022 31.2764 56.7798 31.3676 56.8756 31.4364C56.9715 31.5053 57.0827 31.5497 57.1996 31.5658L60.1696 31.9808L58.0346 34.0858ZM36.0346 25.7508L35.3646 29.7858C35.3465 29.916 35.3645 30.0487 35.4165 30.1695C35.4685 30.2902 35.5525 30.3944 35.6596 30.4708C35.7821 30.5627 35.9314 30.6119 36.0846 30.6108C36.2031 30.6099 36.3196 30.5807 36.4246 30.5258L40.0346 28.6008L43.6646 30.4858C43.781 30.5543 43.9141 30.5892 44.0492 30.5865C44.1843 30.5839 44.3159 30.5438 44.4296 30.4708C44.5399 30.3908 44.6252 30.2811 44.6756 30.1546C44.7261 30.028 44.7396 29.8897 44.7146 29.7558L43.9996 25.7558L46.9146 22.8858C47.0268 22.7927 47.1085 22.6681 47.1493 22.5282C47.1901 22.3882 47.188 22.2392 47.1434 22.1004C47.0987 21.9616 47.0135 21.8394 46.8988 21.7495C46.784 21.6595 46.645 21.606 46.4996 21.5958L42.4496 21.0308L40.6246 17.3758C40.5654 17.2528 40.4723 17.1493 40.3563 17.0776C40.2402 17.0058 40.106 16.9687 39.9696 16.9708C39.8339 16.9725 39.7014 17.0117 39.5867 17.0841C39.472 17.1564 39.3795 17.2591 39.3196 17.3808L37.5296 21.0608L33.4996 21.6708C33.3656 21.6908 33.2398 21.748 33.1367 21.8358C33.0335 21.9237 32.957 22.0387 32.9159 22.1678C32.8748 22.2969 32.8707 22.4349 32.904 22.5663C32.9373 22.6976 33.0068 22.8169 33.1046 22.9108L36.0346 25.7508ZM38.1246 22.4408C38.241 22.4213 38.3511 22.3744 38.4459 22.304C38.5406 22.2336 38.6173 22.1416 38.6696 22.0358L39.9996 19.3408L41.3396 22.0258C41.3935 22.13 41.4715 22.2197 41.5672 22.2876C41.6629 22.3554 41.7734 22.3994 41.8896 22.4158L44.8596 22.8308L42.7246 24.9358C42.6366 25.0163 42.57 25.1173 42.5307 25.2299C42.4914 25.3425 42.4807 25.463 42.4996 25.5808L43.0246 28.5358L40.3596 27.1558C40.2558 27.1002 40.1398 27.0711 40.0221 27.0711C39.9043 27.0711 39.7884 27.1002 39.6846 27.1558L37.0346 28.5658L37.5346 25.6058C37.5512 25.4905 37.5405 25.3729 37.5031 25.2625C37.4657 25.1522 37.4029 25.0522 37.3196 24.9708L35.1596 22.8908L38.1246 22.4408Z" fill="#FBFEF9"/>
<path d="M28.3396 39.6558C28.4601 39.7192 28.5961 39.7473 28.7319 39.737C28.8677 39.7266 28.9979 39.6783 29.1075 39.5974C29.2171 39.5165 29.3016 39.4064 29.3515 39.2796C29.4014 39.1529 29.4146 39.0147 29.3896 38.8808L28.6746 34.8808L31.5896 31.9708C31.6857 31.8752 31.7533 31.7546 31.7848 31.6227C31.8163 31.4909 31.8104 31.3528 31.7679 31.2241C31.7253 31.0953 31.6477 30.981 31.5438 30.8938C31.4399 30.8067 31.3138 30.7503 31.1796 30.7308L27.1296 30.1658L25.2996 26.5208C25.2387 26.4006 25.1457 26.2997 25.031 26.2291C24.9163 26.1585 24.7843 26.121 24.6496 26.1208C24.5137 26.1213 24.3807 26.1601 24.2658 26.2326C24.1508 26.3051 24.0586 26.4084 23.9996 26.5308L22.2096 30.2058L18.1596 30.8158C18.0256 30.8369 17.9001 30.8948 17.7973 30.9832C17.6944 31.0716 17.6182 31.1869 17.5771 31.3162C17.5361 31.4454 17.5319 31.5836 17.565 31.7151C17.5982 31.8466 17.6672 31.9663 17.7646 32.0608L20.7096 34.9008L20.0396 38.9358C20.0176 39.0691 20.0336 39.206 20.0858 39.3307C20.138 39.4553 20.2242 39.5628 20.3346 39.6408C20.4582 39.7305 20.6068 39.7794 20.7596 39.7808C20.8781 39.7799 20.9946 39.7507 21.0996 39.6958L24.7096 37.7708L28.3396 39.6558ZM24.3646 36.3058L21.7146 37.7208L22.2146 34.7608C22.2329 34.6439 22.2229 34.5244 22.1855 34.4121C22.1481 34.2999 22.0844 34.1983 21.9996 34.1158L19.8346 32.0358L22.7996 31.5858C22.9159 31.568 23.0263 31.5223 23.1212 31.4527C23.2161 31.383 23.2927 31.2915 23.3446 31.1858L24.6596 28.4708L25.9996 31.1708C26.0522 31.2764 26.1298 31.3676 26.2256 31.4364C26.3215 31.5053 26.4327 31.5497 26.5496 31.5658L29.4996 31.9708L27.3646 34.0758C27.2802 34.1583 27.2173 34.2602 27.1816 34.3727C27.1458 34.4852 27.1383 34.6047 27.1596 34.7208L27.6846 37.6758L25.0196 36.2958C24.9172 36.2463 24.8046 36.2215 24.6909 36.2232C24.5772 36.2249 24.4654 36.2532 24.3646 36.3058ZM62.4196 31.2358C62.3774 31.1058 62.2999 30.9902 62.1956 30.9019C62.0914 30.8136 61.9647 30.7561 61.8296 30.7358L57.7796 30.1708L55.9496 26.5208C55.8887 26.4006 55.7957 26.2997 55.681 26.2291C55.5663 26.1585 55.4343 26.121 55.2996 26.1208C55.1637 26.1213 55.0307 26.1601 54.9158 26.2326C54.8008 26.3051 54.7086 26.4084 54.6496 26.5308L52.8596 30.2058L48.8146 30.8158C48.6806 30.8369 48.5551 30.8948 48.4523 30.9832C48.3494 31.0716 48.2732 31.1869 48.2321 31.3162C48.1911 31.4454 48.1869 31.5836 48.22 31.7151C48.2532 31.8466 48.3222 31.9663 48.4196 32.0608L51.3646 34.9008L50.6946 38.9358C50.6737 39.0701 50.6912 39.2076 50.7452 39.3324C50.7992 39.4571 50.8874 39.564 50.9996 39.6408C51.1232 39.7305 51.2718 39.7794 51.4246 39.7808C51.543 39.7799 51.6596 39.7507 51.7646 39.6958L55.3746 37.7708L58.9996 39.6558C59.1201 39.7192 59.2561 39.7473 59.3919 39.737C59.5277 39.7266 59.6579 39.6783 59.7675 39.5974C59.8771 39.5165 59.9616 39.4064 60.0115 39.2796C60.0614 39.1529 60.0746 39.0147 60.0496 38.8808L59.3346 34.8808L62.2396 31.9708C62.3329 31.8758 62.3989 31.7574 62.4306 31.628C62.4623 31.4987 62.4585 31.3632 62.4196 31.2358ZM58.0346 34.0858C57.9502 34.1683 57.8873 34.2702 57.8516 34.3827C57.8158 34.4952 57.8083 34.6147 57.8296 34.7308L58.3296 37.6858L55.6696 36.3058C55.5654 36.2515 55.4496 36.2231 55.3321 36.2231C55.2146 36.2231 55.0988 36.2515 54.9946 36.3058L52.3446 37.7208L52.8446 34.7608C52.8635 34.6443 52.8544 34.525 52.8178 34.4128C52.7813 34.3006 52.7185 34.1988 52.6346 34.1158L50.4996 32.0358L53.4646 31.5858C53.5809 31.568 53.6913 31.5223 53.7862 31.4527C53.8811 31.383 53.9577 31.2915 54.0096 31.1858L55.3096 28.4708L56.6496 31.1708C56.7022 31.2764 56.7798 31.3676 56.8756 31.4364C56.9715 31.5053 57.0827 31.5497 57.1996 31.5658L60.1696 31.9808L58.0346 34.0858ZM36.0346 25.7508L35.3646 29.7858C35.3465 29.916 35.3645 30.0487 35.4165 30.1695C35.4685 30.2902 35.5525 30.3944 35.6596 30.4708C35.7821 30.5627 35.9314 30.6119 36.0846 30.6108C36.2031 30.6099 36.3196 30.5807 36.4246 30.5258L40.0346 28.6008L43.6646 30.4858C43.781 30.5543 43.9141 30.5892 44.0492 30.5865C44.1843 30.5839 44.3159 30.5438 44.4296 30.4708C44.5399 30.3908 44.6252 30.2811 44.6756 30.1546C44.7261 30.028 44.7396 29.8897 44.7146 29.7558L43.9996 25.7558L46.9146 22.8858C47.0268 22.7927 47.1085 22.6681 47.1493 22.5282C47.1901 22.3882 47.188 22.2392 47.1434 22.1004C47.0987 21.9616 47.0135 21.8394 46.8988 21.7495C46.784 21.6595 46.645 21.606 46.4996 21.5958L42.4496 21.0308L40.6246 17.3758C40.5654 17.2528 40.4723 17.1493 40.3563 17.0776C40.2402 17.0058 40.106 16.9687 39.9696 16.9708C39.8339 16.9725 39.7014 17.0117 39.5867 17.0841C39.472 17.1564 39.3795 17.2591 39.3196 17.3808L37.5296 21.0608L33.4996 21.6708C33.3656 21.6908 33.2398 21.748 33.1367 21.8358C33.0335 21.9237 32.957 22.0387 32.9159 22.1678C32.8748 22.2969 32.8707 22.4349 32.904 22.5663C32.9373 22.6976 33.0068 22.8169 33.1046 22.9108L36.0346 25.7508ZM38.1246 22.4408C38.241 22.4213 38.3511 22.3744 38.4459 22.304C38.5406 22.2336 38.6173 22.1416 38.6696 22.0358L39.9996 19.3408L41.3396 22.0258C41.3935 22.13 41.4715 22.2197 41.5672 22.2876C41.6629 22.3554 41.7734 22.3994 41.8896 22.4158L44.8596 22.8308L42.7246 24.9358C42.6366 25.0163 42.57 25.1173 42.5307 25.2299C42.4914 25.3425 42.4807 25.463 42.4996 25.5808L43.0246 28.5358L40.3596 27.1558C40.2558 27.1002 40.1398 27.0711 40.0221 27.0711C39.9043 27.0711 39.7884 27.1002 39.6846 27.1558L37.0346 28.5658L37.5346 25.6058C37.5512 25.4905 37.5405 25.3729 37.5031 25.2625C37.4657 25.1522 37.4029 25.0522 37.3196 24.9708L35.1596 22.8908L38.1246 22.4408Z" stroke="#FBFEF9" mask="url(#path-3-outside-2_438_1344)"/>
</svg>
