<svg width="285" height="285" viewBox="0 0 285 285" fill="none" xmlns="http://www.w3.org/2000/svg">
<g clip-path="url(#clip0_98_765)">
<path d="M268.642 261.855H22.2588C18.8092 261.855 16.0122 259.058 16.0122 255.608C16.0122 252.158 18.8086 249.361 22.2588 249.361H268.642C272.092 249.361 274.889 252.158 274.889 255.608C274.889 259.058 272.092 261.855 268.642 261.855Z" fill="#E1E8EF"/>
<path d="M219.692 207.692C262.161 165.223 262.161 96.3668 219.692 53.8976C177.223 11.4284 108.367 11.4284 65.8973 53.8976C23.4281 96.3668 23.4281 165.223 65.8973 207.692C108.367 250.161 177.223 250.161 219.692 207.692Z" fill="#F2F5F9"/>
<path d="M147.147 236.018C160.47 230.5 166.797 215.225 161.278 201.902C155.759 188.579 140.485 182.252 127.162 187.771C113.839 193.29 107.512 208.564 113.031 221.887C118.55 235.21 133.824 241.537 147.147 236.018Z" fill="#B0C9E2"/>
<path d="M137.148 238.004C145.183 238.004 151.697 226.314 151.697 211.894C151.697 197.473 145.183 185.783 137.148 185.783C129.113 185.783 122.6 197.473 122.6 211.894C122.6 226.314 129.113 238.004 137.148 238.004Z" stroke="white" stroke-miterlimit="10"/>
<path d="M137.148 226.441C151.569 226.441 163.259 219.927 163.259 211.892C163.259 203.857 151.569 197.344 137.148 197.344C122.728 197.344 111.038 203.857 111.038 211.892C111.038 219.927 122.728 226.441 137.148 226.441Z" stroke="white" stroke-miterlimit="10"/>
<path d="M137.148 185.783V238.004" stroke="white" stroke-miterlimit="10"/>
<path d="M163.253 212.466L111.044 211.318" stroke="white" stroke-miterlimit="10"/>
<path d="M201.267 27.0039H149.835C142.219 27.0039 135.146 32.8889 133.479 40.0919L104.91 163.488C103.243 170.691 112.325 176.978 119.941 176.978H171.373C178.989 176.978 186.284 171.141 187.729 163.89L212.405 40.0919C213.851 32.8411 208.883 27.0039 201.267 27.0039Z" fill="#6C8BB7"/>
<path d="M200.039 27.0039H142.549C136.68 27.0039 130.994 31.6691 129.847 37.4235L105.19 161.122C104.044 166.877 107.871 171.542 113.739 171.542H171.23C177.098 171.542 182.785 166.877 183.931 161.122L208.588 37.4235C209.735 31.6691 205.908 27.0039 200.039 27.0039Z" fill="#87A1CF"/>
<path d="M199.571 31C202.907 31 205.058 33.6861 204.393 37.0225L182.052 149.107C181.387 152.443 178.165 155.129 174.828 155.129H115.829C112.492 155.129 110.342 152.443 111.007 149.107L133.348 37.0225C134.013 33.6861 137.235 31 140.571 31H156.175L157.527 34.3461H181.282L183.968 31H199.571Z" fill="#D2DFEE"/>
<path d="M120.97 171.543H155.578" stroke="#87A1CF" stroke-width="0.712042" stroke-miterlimit="10" stroke-linecap="round"/>
<path d="M123.343 154.951H157.951" stroke="#87A1CF" stroke-width="0.712042" stroke-miterlimit="10" stroke-linecap="round"/>
<path d="M146.753 32.6426L146.281 35.0087H141.195L141.666 32.6426H146.753ZM146.256 33.057H141.998L141.692 34.5943H145.949L146.256 33.057ZM141.335 33.1156L141.052 34.5352H140.402L140.685 33.1156H141.335ZM145.956 33.3009L145.747 34.3504H145.229L145.439 33.3009H145.956ZM145.202 33.3009L144.993 34.3504H144.475L144.684 33.3009H145.202ZM144.448 33.3009L144.239 34.3504H143.721L143.931 33.3009H144.448ZM143.694 33.3009L143.485 34.3504H142.967L143.176 33.3009H143.694Z" fill="white"/>
<path d="M197.678 33.3499C197.732 33.4174 197.71 33.5272 197.629 33.5947L197.629 33.5951C197.548 33.6626 197.438 33.6626 197.384 33.5951C196.626 32.6485 195.097 32.6481 193.961 33.5947C193.88 33.6622 193.771 33.6622 193.717 33.5947C193.663 33.5272 193.685 33.4178 193.766 33.3503C195.06 32.2715 196.815 32.2711 197.678 33.3499ZM197.075 33.8531C197.129 33.9206 197.108 34.0304 197.026 34.0979C196.945 34.1654 196.836 34.1654 196.782 34.0979C196.246 33.4291 195.166 33.4291 194.364 34.0979C194.283 34.1654 194.174 34.1654 194.12 34.0979C194.066 34.0304 194.087 33.9206 194.168 33.8531C195.129 33.0517 196.434 33.0517 197.075 33.8531ZM196.472 34.3559C196.526 34.4234 196.504 34.5332 196.423 34.6007C196.342 34.6682 196.232 34.6682 196.178 34.6007C195.865 34.2096 195.236 34.2096 194.767 34.6007C194.686 34.6682 194.576 34.6682 194.522 34.6007L194.522 34.6003C194.468 34.5328 194.49 34.4234 194.571 34.3559C195.199 33.8322 196.053 33.8322 196.472 34.3559ZM195.922 34.8141C195.976 34.8816 195.954 34.9906 195.874 35.0585C195.793 35.1264 195.683 35.1268 195.629 35.0597L195.628 35.0593C195.518 34.9214 195.299 34.921 195.133 35.0589C195.052 35.1264 194.943 35.1264 194.889 35.0593C194.835 34.9918 194.857 34.882 194.938 34.8145C195.262 34.544 195.706 34.544 195.922 34.8141Z" fill="white"/>
<path d="M149.836 32.7695L149.386 35.0284H148.795L149.246 32.7695H149.836ZM150.72 33.2711L150.369 35.0284H149.779L150.13 33.2711H150.72ZM151.595 33.8153L151.353 35.0284H150.763L151.005 33.8153H151.595ZM152.451 34.3169L152.309 35.0284H151.719L151.86 34.3169H152.451Z" fill="white"/>
<path d="M187.682 32.6172L188.731 32.8792L188.587 33.2072L187.539 32.9452L187.682 32.6172ZM189.124 32.6349L189.761 33.0685L189.766 33.0444H190.584L190.272 34.6099H189.454L189.459 34.5866L188.649 35.0195L189.124 32.6349ZM188.549 33.671L188.482 34.0078H187.35L187.417 33.671H188.549ZM188.336 34.4713L188.348 34.7992L187.195 35.0613L187.182 34.7333L188.336 34.4713Z" fill="white"/>
<path d="M179.66 42.8853L177.628 40.8535L106.747 129.319L108.779 131.35H162.027L179.66 42.8853Z" fill="#87A1CF"/>
<path d="M177.629 40.8535H124.38L106.747 129.319H159.995L177.629 40.8535Z" fill="#EEF3FB"/>
<path d="M231.143 92.5312H177.895L171.734 122.092H224.982L231.143 92.5312Z" fill="#CADAF1"/>
<path d="M233.869 76.2188H180.621L179.086 86.6291H232.334L233.869 76.2188Z" fill="#CADAF1"/>
<path d="M140.967 48.416H132.437L130.519 58.0402M126.683 77.2889L124.764 86.913H133.294M150.353 86.913H158.883L160.801 77.2889M164.639 58.0402L166.557 48.416H158.027" stroke="#87A1CF" stroke-width="0.712042" stroke-miterlimit="10" stroke-linecap="round"/>
<path d="M158.845 90.8301H123.647L122.448 96.8429H157.647L158.845 90.8301Z" fill="#CADAF1"/>
<path d="M157.366 98.248H122.168L120.97 104.26H156.168L157.366 98.248Z" fill="#CADAF1"/>
<path d="M145.088 110.066H128.095C126.132 110.066 124.443 111.452 124.06 113.376C123.553 115.921 125.499 118.295 128.094 118.295H145.088C147.05 118.295 148.739 116.909 149.123 114.985C149.63 112.44 147.683 110.066 145.088 110.066Z" fill="#C78853"/>
<path d="M139.994 58.428C139.994 58.428 141.848 53.0024 147.028 52.537C152.208 52.0716 155.815 53.3409 156.304 56.3549C156.793 59.369 155.315 63.3878 154.269 65.9791C153.224 68.5703 149.858 70.8122 149.14 72.346C148.422 73.8793 147.578 74.3978 148.543 75.0216C149.508 75.6454 153.667 75.7937 154.097 77.93C154.528 80.0662 154.592 83.3025 154.592 83.3025H130.816C130.816 83.3025 131.792 78.6703 133.462 77.0839C135.132 75.4975 139.352 75.8146 140.295 74.7467C141.238 73.6784 141.654 73.0755 141.179 71.7962C140.705 70.5164 137.441 67.418 139.994 58.428Z" fill="#CADAF1"/>
<path d="M208.791 75.9258H180.621L179.086 86.6275H232.334" stroke="#87A1CF" stroke-miterlimit="10" stroke-linecap="round"/>
<path d="M224.982 122.093H171.734L177.895 92.5312" stroke="#87A1CF" stroke-miterlimit="10" stroke-linecap="round"/>
<path d="M50.3284 74.959C50.3284 74.959 37.5867 97.2056 35.3081 102.657C33.0291 108.108 33.155 107.819 33.0921 109.934C33.0292 112.049 43.8314 141.598 45.078 142.983C46.3247 144.368 48.0244 144.179 48.0244 144.179L49.5227 147.654L57.543 146.332L56.9261 143.487L54.0053 75.9159L50.3284 74.959Z" fill="#C78853"/>
<path d="M111.019 89.4124C111.019 89.4124 110.846 86.034 111.121 84.6583C111.397 83.2826 113.699 78.2486 113.712 77.1848C113.726 76.121 114.99 76.3657 115.226 77.443C115.462 78.5202 114.629 82.4016 114.629 82.4016L111.019 89.4124Z" fill="#FFC5B3"/>
<path d="M37.0577 230.16L34.7051 235.829C35.2682 235.211 50.4236 244.1 45.5786 254.424L16.547 237.662C16.547 237.662 19.0773 232.857 23.2064 230.017C26.4474 223.818 26.7973 222.545 26.7973 222.545L37.0577 230.16Z" fill="#E5B469"/>
<path d="M26.7968 222.543L37.0576 230.159L34.7046 235.827C34.7046 235.827 29.9323 240.598 23.2063 230.016C26.4478 223.816 26.7968 222.543 26.7968 222.543Z" fill="#CADAF1"/>
<path d="M46.1675 251.222L18.2021 235.076" stroke="#D87C48" stroke-width="0.811817" stroke-miterlimit="2.4355" stroke-linecap="round" stroke-linejoin="bevel"/>
<path d="M37.0676 236.461C37.0676 236.461 33.5609 239.223 33.9941 240.487C34.4272 241.751 37.9612 244.387 38.6719 244.006C39.3832 243.624 41.8315 240.378 41.8315 240.378" stroke="#D87C48" stroke-width="0.811817" stroke-miterlimit="2.4355" stroke-linecap="round" stroke-linejoin="round"/>
<path d="M38.5958 237.932C38.5958 237.932 36.0799 239.726 36.1919 240.444C36.3039 241.163 37.092 241.657 37.7194 241.376C38.3469 241.095 40.0234 239.123 40.0234 239.123" stroke="#D87C48" stroke-width="0.811817" stroke-miterlimit="2.4355" stroke-linecap="round" stroke-linejoin="round"/>
<path d="M50.8727 151.067L42.4554 196.91L24.4505 225.257L41.7928 235.725C41.7928 235.725 63.9244 206.707 65.0104 203.681C66.0965 200.654 71.207 181.264 71.207 181.264L60.328 148.877L50.8727 151.067Z" fill="#639FAB"/>
<path d="M50.8727 151.067L42.4554 196.91L24.4505 225.257L41.7928 235.725C41.7928 235.725 63.9244 206.707 65.0104 203.681C66.0965 200.654 71.207 181.264 71.207 181.264L60.328 148.877L50.8727 151.067Z" fill="black" fill-opacity="0.2"/>
<path d="M84.3615 239.882L85.1588 245.969C85.3374 245.152 102.907 245.272 103.873 256.636H70.3501C70.3501 256.636 70.1386 251.209 72.2946 246.685C72.0016 239.696 71.668 238.418 71.668 238.418L84.3615 239.882Z" fill="#E5B469"/>
<path d="M71.6679 238.418L84.3619 239.883L85.1587 245.969C85.1587 245.969 83.4114 252.486 72.2949 246.685C72.002 239.695 71.6679 238.418 71.6679 238.418Z" fill="#CADAF1"/>
<path d="M102.783 253.568H70.4911" stroke="#D87C48" stroke-width="0.811817" stroke-miterlimit="2.4355" stroke-linecap="round" stroke-linejoin="bevel"/>
<path d="M47.8713 129.607C47.8713 129.607 46.8565 144.101 47.5863 147.662C48.3165 151.223 53.7467 157.045 57.3436 159.199C60.9405 161.354 60.6911 161.158 61.7772 165.146C62.8633 169.135 68.2501 203.556 68.2501 203.556C67.648 216.816 68.7225 230.083 69.2829 243.332L88.0143 242.478C88.0143 242.478 90.5783 203.556 90.2044 200.298C89.8306 197.039 85.6108 130.413 85.6108 130.413L47.8713 129.607Z" fill="#639FAB"/>
<path d="M75.3829 46.3462C75.3829 46.3462 76.3713 41.4151 72.9148 38.7562C69.4588 36.0973 58.074 36.8121 53.6645 40.7555C50.5126 41.4252 52.0073 49.911 53.4416 52.9631C54.8759 56.0151 62.6914 60.3085 62.6914 60.3085L75.3829 46.3462Z" fill="#622600"/>
<path d="M74.4362 42.0643C74.4362 42.0643 78.0081 51.5747 77.5642 58.1106C77.3094 61.8631 75.0599 63.7489 72.6892 64.4465C70.5672 65.0709 69.8432 64.4754 70.3139 67.516C70.3691 67.8727 70.8803 70.9652 70.9682 71.4297C66.0609 74.4003 61.8937 73.3213 59.0141 71.8689C59.0141 71.8689 59.2994 64.8288 59.4033 59.2965C56.783 61.0631 54.3165 58.6786 53.5468 54.7624C52.777 50.8462 56.9261 48.8804 58.8426 52.6472C59.6955 54.2203 60.055 55.9871 60.055 55.9871C60.055 55.9871 62.5264 57.4958 62.2702 56.2366C62.0752 55.278 59.1207 51.6164 59.1912 50.9009C59.3004 49.7884 60.1354 50.3768 61.4737 49.972C63.9487 49.2241 62.2055 43.6579 62.2055 43.6579C62.2055 43.6579 69.3954 44.1463 74.4362 42.0643Z" fill="#FFC5B3"/>
<path d="M54.9818 53.345C54.9818 53.345 55.724 52.0822 56.94 52.9602C58.1555 53.8382 58.9614 57.0368 58.0502 57.9977" stroke="#E2866D" stroke-width="0.681455" stroke-miterlimit="2.0444" stroke-linecap="round" stroke-linejoin="round"/>
<path d="M72.4505 49.643C72.4505 49.643 75.3631 53.0731 74.837 54.3799C74.3104 55.6867 72.5788 55.1505 72.5788 55.1505" stroke="#E2866D" stroke-width="0.681455" stroke-miterlimit="2.0444" stroke-linecap="round" stroke-linejoin="round"/>
<path d="M69.0186 45.2309C68.5145 44.843 67.7806 44.6797 66.5815 45.4189C65.3824 46.158 65.252 47.1468 65.9776 47.2466C66.7032 47.3467 69.5668 46.4552 69.0186 45.2309Z" fill="#622600"/>
<path d="M71.9578 44.6201C72.2397 44.1627 72.7366 43.8574 73.7658 44.2642C74.7949 44.671 75.1023 45.5323 74.5977 45.7783C74.0927 46.0243 71.8241 45.8393 71.9578 44.6201Z" fill="#622600"/>
<path d="M68.6635 48.9702C68.2764 49.0207 68.0186 49.4895 68.0874 50.0171C68.1562 50.5448 68.5255 50.9319 68.9126 50.8814C69.2997 50.8309 69.5575 50.3622 69.4887 49.8345C69.4199 49.3064 69.0502 48.9198 68.6635 48.9702Z" fill="#622600"/>
<path d="M74.0615 48.1382C73.6743 48.1886 73.4166 48.6574 73.4854 49.1851C73.5542 49.7128 73.9235 50.0998 74.3106 50.0494C74.6977 49.9989 74.9554 49.5301 74.8866 49.0025C74.8179 48.4748 74.4486 48.0877 74.0615 48.1382Z" fill="#622600"/>
<path d="M57.7408 54.3331C57.7408 54.3331 56.4053 54.278 56.1425 55.778" stroke="#E2866D" stroke-width="0.681455" stroke-miterlimit="2.0444" stroke-linecap="round" stroke-linejoin="round"/>
<path d="M63.525 63.564C63.525 63.564 65.5832 64.9444 68.7108 65.0409C69.4793 65.0645 70.2669 64.9826 71.0189 64.8466C70.3824 65.033 70.1181 65.3432 70.1929 66.4729C69.3348 66.4261 68.3149 66.3405 67.3934 66.1742C65.3287 65.8021 63.525 63.564 63.525 63.564Z" fill="#FFA88D"/>
<path d="M52.1827 49.0312C52.1827 49.0312 62.1361 43.2708 75.2823 42.8862C73.1745 33.651 70.0388 31.5779 67.1038 31.3595C64.1691 31.1411 55.2553 32.9734 52.5615 36.9592C49.8681 40.9448 52.1827 49.0312 52.1827 49.0312Z" fill="#639FAB"/>
<path d="M62.2367 44.5626C62.2367 44.5626 67.3196 38.2623 74.8375 37.418C82.3555 36.5737 82.7633 38.1187 82.0283 39.5028C81.2932 40.887 75.0673 42.6675 75.0673 42.6675C75.0673 42.6675 70.858 42.5897 62.4608 45.0708C62.2367 44.5626 62.2367 44.5626 62.2367 44.5626Z" fill="#18489C"/>
<path d="M62.4608 45.0704C62.4608 45.0704 67.5436 38.7701 75.0616 37.9258C82.5796 37.0815 82.9875 38.6265 82.2524 40.0106C81.5174 41.3948 75.2915 43.1753 75.2915 43.1753C75.2915 43.1753 71.3169 42.3509 62.4608 45.0704Z" fill="#639FAB"/>
<path d="M69.0502 32.25C69.0502 32.25 64.0246 33.1717 62.2501 34.0246C60.4755 34.8776 60.1823 36.0635 60.3376 37.7691C60.4926 39.4748 62.3966 44.971 62.3966 44.971" stroke="#18489C" stroke-width="0.62285" stroke-miterlimit="2.2259" stroke-linecap="round" stroke-linejoin="bevel"/>
<path d="M70.2471 57.9324C70.2471 57.9324 72.3359 58.0051 73.3618 57.6992" stroke="#E2866D" stroke-width="0.732584" stroke-miterlimit="2.4355" stroke-linecap="round" stroke-linejoin="round"/>
<path d="M70.6543 64.8907C70.6543 64.8907 64.2319 66.2025 62.1602 61.5762" stroke="#E2866D" stroke-width="0.811817" stroke-miterlimit="2.4355" stroke-linecap="round" stroke-linejoin="round"/>
<path opacity="0.25" d="M47.8707 129.607C47.8707 129.607 47.5977 133.681 47.4386 138.047C55.8161 138.932 74.8107 140.322 85.9795 136.166C85.923 135.277 85.6111 130.413 85.6111 130.413L47.8707 129.607Z" fill="#103262"/>
<path d="M55.6629 66.8654C55.6629 66.8654 68.8451 68.2754 72.0052 70.4285C75.1653 72.5815 74.1204 73.5005 74.1204 73.5005C74.1204 73.5005 76.3864 75.0238 78.0106 76.4971C79.6349 77.97 88.1452 119.807 88.3845 122.577C88.6237 125.347 86.8986 127.349 86.8986 127.349L87.3141 131.566C87.3141 131.566 55.5232 137.383 46.521 132.221C46.1684 129.275 47.0119 128.57 45.9291 127.538C44.8463 126.505 43.2351 126.09 43.323 125.082C43.4109 124.075 48.7116 77.92 48.7116 77.92C48.7116 77.92 42.9454 83.6991 40.7543 78.6377C38.5636 73.5764 46.1934 70.8445 46.1934 70.8445C46.1934 70.8445 42.6053 71.5367 43.0838 68.8302C43.5632 66.1228 52.7555 66.8021 55.6629 66.8654Z" fill="#C78853"/>
<path d="M106.841 94.2394C106.841 94.2394 109.263 93.269 109.761 92.1118C110.26 90.9545 112.192 84.6068 112.851 83.4851C113.51 82.3635 118.611 76.3364 119.617 75.3661C120.623 74.3957 121.932 74.6984 123.347 75.9357C124.763 77.173 125.368 78.3039 125.252 80.6097C125.137 82.9155 118.914 91.0526 117.996 92.8952C117.079 94.7377 114.346 96.5183 113.073 96.9635C111.8 97.4086 108.907 99.5719 108.907 99.5719L106.841 94.2394Z" fill="#FFC5B3"/>
<path d="M48.0532 128.271C48.0532 128.271 60.1252 131.226 85.0352 127.131" stroke="#964727" stroke-width="0.811817" stroke-miterlimit="2.2259" stroke-linecap="round" stroke-linejoin="bevel"/>
<path d="M49.3618 77.0251C49.3618 77.0251 53.5608 73.2543 57.3062 72.4422C61.0517 71.6302 68.5874 71.8569 73.082 73.2354" stroke="#964727" stroke-width="0.811817" stroke-miterlimit="2.2259" stroke-linecap="round" stroke-linejoin="bevel"/>
<path d="M47.3997 70.5689C47.3997 70.5689 58.9012 68.29 69.4268 71.1353" stroke="#964727" stroke-width="0.811817" stroke-miterlimit="2.2259" stroke-linecap="round" stroke-linejoin="bevel"/>
<path d="M72.8639 76.4228C72.8639 76.4228 66.6821 73.0486 61.7085 78.9784C56.7354 84.9083 69.9301 113.74 75.7972 117.265C81.6643 120.79 108.28 104.65 108.18 103.529C108.079 102.409 108.042 101.817 108.042 101.817L110.875 99.5514L107.714 93.1305L104.781 94.1883L102.351 92.4133C102.351 92.4133 98.02 93.0556 93.6887 94.3901C89.3575 95.7246 84.5731 97.0466 84.5731 97.0466C84.5731 97.0466 80.2164 81.61 72.8639 76.4228Z" fill="#C78853"/>
<path d="M104 95L106.617 100.929" stroke="#964727" stroke-width="0.811817" stroke-miterlimit="2.2259" stroke-linecap="round" stroke-linejoin="bevel"/>
<path d="M83.9746 97.7051C83.9746 97.7051 77.5156 102.477 77.355 107.698" stroke="#964727" stroke-width="0.811817" stroke-miterlimit="2.2259" stroke-linecap="round" stroke-linejoin="bevel"/>
<path d="M87.5214 245.336C87.5214 245.336 85.8657 249.481 86.8731 250.359C87.8805 251.238 92.2585 251.754 92.6837 251.067C93.1085 250.381 93.606 246.346 93.606 246.346" stroke="#D87C48" stroke-width="0.811817" stroke-miterlimit="2.4355" stroke-linecap="round" stroke-linejoin="round"/>
<path d="M89.5796 245.846C89.5796 245.846 88.2978 248.657 88.754 249.224C89.2103 249.79 90.1399 249.824 90.5425 249.267C90.9451 248.71 91.4111 246.163 91.4111 246.163" stroke="#D87C48" stroke-width="0.811817" stroke-miterlimit="2.4355" stroke-linecap="round" stroke-linejoin="round"/>
<path d="M69.2305 239.79L87.873 238.428" stroke="#103262" stroke-width="0.742001" stroke-miterlimit="2.2259" stroke-linecap="round" stroke-linejoin="bevel"/>
<path d="M79.1691 239.036C79.1691 239.036 79.7744 201.592 79.6675 198.654C79.5606 195.716 75.1446 134.502 75.1446 134.502" stroke="#103262" stroke-width="0.742001" stroke-miterlimit="2.2259" stroke-linecap="round" stroke-linejoin="bevel"/>
<path d="M80.7357 133.719C80.7357 133.719 82.6232 144.473 76.3378 146.414" stroke="#103262" stroke-width="0.742001" stroke-miterlimit="2.2259" stroke-linecap="round" stroke-linejoin="bevel"/>
<path d="M52.4752 153.525L60.0068 163.621L67.1646 195.83" stroke="#103262" stroke-width="0.742001" stroke-miterlimit="2.2259" stroke-linecap="round" stroke-linejoin="bevel"/>
<path d="M80.2047 86.0064C78.3037 82.268 75.8271 78.5134 72.8642 76.4228C72.8642 76.4228 66.6824 73.0486 61.7088 78.9784C56.7357 84.9083 69.9304 113.74 75.7975 117.265C77.7484 118.438 81.9946 117.435 86.7891 115.533" stroke="#964727" stroke-width="0.811817" stroke-miterlimit="2.2259" stroke-linecap="round" stroke-linejoin="bevel"/>
<path d="M115.537 82.5263C115.537 82.5263 121.249 75.3998 122.045 75.2305" stroke="#E2866D" stroke-width="0.732584" stroke-miterlimit="2.4355" stroke-linecap="round" stroke-linejoin="round"/>
<path d="M117.554 83.8385C117.554 83.8385 122.793 76.6232 123.425 76.4316" stroke="#E2866D" stroke-width="0.732584" stroke-miterlimit="2.4355" stroke-linecap="round" stroke-linejoin="round"/>
<path d="M124.783 78.2891L119.428 85.7941" stroke="#E2866D" stroke-width="0.732584" stroke-miterlimit="2.4355" stroke-linecap="round" stroke-linejoin="round"/>
<path d="M46.5218 132.221C46.1692 129.275 47.0128 128.57 45.93 127.537C44.8471 126.505 43.2354 126.09 43.3237 125.082C43.4121 124.075 48.7124 77.9199 48.7124 77.9199" stroke="#964727" stroke-width="0.811817" stroke-miterlimit="2.2259" stroke-linecap="round" stroke-linejoin="bevel"/>
<path d="M37.0253 107.667C37.0253 107.667 43.5222 107.277 44.9321 109.191" stroke="#964727" stroke-width="0.811817" stroke-miterlimit="2.2259" stroke-linecap="round" stroke-linejoin="bevel"/>
<path d="M27.2176 223.021C28.7668 223.324 43.1655 232.836 43.1655 232.836" stroke="#103262" stroke-width="0.742001" stroke-miterlimit="2.2259" stroke-linecap="round" stroke-linejoin="bevel"/>
<path d="M36.0236 227.988C36.0236 227.988 55.1525 203.158 55.2413 200.576C55.3306 197.995 61.3311 171.625 61.3311 171.625" stroke="#103262" stroke-width="0.742001" stroke-miterlimit="2.2259" stroke-linecap="round" stroke-linejoin="bevel"/>
<path d="M241.289 47.0372C243.337 46.9648 244.733 48.2148 244.396 49.8347L241.542 63.5489C241.204 65.1728 239.262 66.5454 237.214 66.6178L213.014 67.4762C210.966 67.5486 209.575 66.2946 209.913 64.6707L212.768 50.9565C213.105 49.3365 215.042 47.968 217.089 47.8956L218.709 47.838C219.785 43.3726 225.175 39.6106 230.866 39.4088C236.557 39.2071 240.45 42.6402 239.669 47.0947L241.289 47.0372ZM220.9 47.7605L237.479 47.1722C238.063 43.6616 234.991 40.9786 230.507 41.1377C226.027 41.2967 221.779 44.239 220.9 47.7605ZM229.412 62.0783L228.33 57.8398C229.72 57.3855 230.849 56.3504 231.095 55.1693C231.414 53.6349 230.094 52.4436 228.139 52.5131C226.19 52.5821 224.35 53.8857 224.031 55.4202C223.789 56.5818 224.483 57.5445 225.666 57.915L222.786 62.3132L229.412 62.0783Z" fill="#B0C9E2"/>
<path d="M250.873 110.808C251.132 110.799 251.371 110.828 251.585 110.888C252.321 111.094 252.755 111.672 252.61 112.374L251.063 119.806C250.874 120.711 249.791 121.478 248.645 121.519C247.498 121.559 246.72 120.858 246.908 119.953L248.455 112.521C248.601 111.819 249.284 111.201 250.118 110.939C250.36 110.864 250.615 110.817 250.873 110.808Z" fill="#D2DFEE"/>
<path d="M252.409 106.928L251.585 110.888C251.371 110.828 251.132 110.8 250.873 110.809C250.615 110.818 250.36 110.864 250.118 110.94L250.942 106.98C251.183 106.982 251.426 106.979 251.673 106.97C251.918 106.962 252.164 106.947 252.409 106.928Z" fill="#B0C9E2"/>
<path d="M255.378 89.1604C260.877 88.9655 264.6 92.3234 263.697 96.6633C262.794 101.003 257.607 104.676 252.108 104.871C251.956 104.876 251.853 104.784 251.877 104.667C251.905 104.545 252.047 104.446 252.198 104.44C254.797 104.347 257.318 103.433 259.301 102.029C261.284 100.624 262.724 98.7336 263.15 96.6827C263.577 94.6313 262.909 92.8158 261.486 91.5316C260.063 90.248 257.888 89.4996 255.288 89.5919C255.137 89.597 255.035 89.5064 255.057 89.3913C255.082 89.267 255.225 89.1655 255.378 89.1604Z" fill="#87A1CF"/>
<path d="M255.815 87.0629C262.78 86.8161 267.5 91.0723 266.355 96.5694C265.252 101.872 259.096 106.392 252.409 106.927C252.164 106.946 251.918 106.961 251.672 106.97C251.426 106.978 251.182 106.981 250.942 106.979C244.38 106.914 240.027 102.766 241.131 97.4632C242.275 91.9661 248.849 87.3098 255.815 87.0629ZM252.109 104.871C257.607 104.677 262.794 101.003 263.697 96.6635C264.6 92.324 260.877 88.9662 255.378 89.1606C255.225 89.1657 255.082 89.2677 255.057 89.388C249.814 89.6912 244.923 93.2127 244.06 97.3589C243.197 101.505 246.683 104.734 251.878 104.664C251.853 104.784 251.956 104.877 252.109 104.871Z" fill="#D2DFEE"/>
<path d="M255.056 89.3906C255.035 89.5058 255.137 89.597 255.288 89.5913C257.887 89.4989 260.062 90.2473 261.485 91.531C262.909 92.8146 263.577 94.6306 263.15 96.6821C262.723 98.7335 261.284 100.624 259.301 102.028C257.318 103.433 254.796 104.347 252.197 104.439C252.046 104.444 251.904 104.544 251.877 104.663C246.682 104.733 243.196 101.504 244.059 97.3581C244.923 93.2125 249.814 89.6904 255.056 89.3906Z" fill="#B0C9E2"/>
<path d="M133.454 16.3683C134.227 16.341 134.749 16.8124 134.623 17.4223L134.105 19.9086C134.065 20.1041 133.962 20.2899 133.816 20.4529C133.507 20.7989 133.002 21.0429 132.477 21.0617L129.145 21.1797C128.62 21.1985 128.211 20.987 128.042 20.6581C127.962 20.5031 127.936 20.3218 127.976 20.1258L128.494 17.6394C128.621 17.0295 129.349 16.5137 130.121 16.4863L133.454 16.3683Z" fill="#B0C9E2"/>
<path d="M119.738 20.0089C120.096 19.9964 120.432 20.0916 120.66 20.2973L122.519 21.9783C122.666 22.1111 122.751 22.2735 122.776 22.4479C122.831 22.815 122.625 23.2345 122.194 23.5401L119.455 25.4803C119.137 25.7055 118.756 25.8263 118.398 25.8389C118.271 25.8434 118.147 25.8343 118.03 25.8115C117.816 25.7699 117.623 25.6838 117.476 25.5504L115.612 23.8735C115.155 23.4614 115.301 22.7626 115.937 22.3117L118.682 20.3674C118.999 20.1423 119.38 20.022 119.738 20.0089Z" fill="#B0C9E2"/>
<path d="M114.519 29.6573C114.768 29.6488 114.991 29.6921 115.175 29.7747C115.561 29.9486 115.773 30.298 115.687 30.7112L115.14 33.3412C115.054 33.7539 114.693 34.1233 114.229 34.3279C114.007 34.4254 113.762 34.4858 113.512 34.4943L110.362 34.6061C109.589 34.6334 109.067 34.162 109.193 33.5521L109.74 30.9221C109.868 30.3122 110.595 29.7964 111.368 29.769L114.519 29.6573Z" fill="#B0C9E2"/>
<path d="M128.133 41.9328C128.657 41.914 129.065 42.1266 129.234 42.4555C129.314 42.6117 129.341 42.7941 129.3 42.9907L128.783 45.4771C128.655 46.087 127.928 46.6028 127.155 46.6302L123.822 46.7482C123.049 46.7755 122.526 46.3041 122.653 45.6942L123.171 43.2079C123.212 43.0112 123.316 42.8237 123.463 42.6595C123.773 42.3141 124.276 42.0696 124.799 42.0514L128.133 41.9328Z" fill="#B0C9E2"/>
<path d="M138.88 37.2726C139.009 37.268 139.134 37.2777 139.253 37.3011C139.466 37.3427 139.656 37.4288 139.803 37.561L141.661 39.2419C142.118 39.654 141.973 40.3529 141.336 40.8037L138.597 42.744C138.279 42.9692 137.898 43.09 137.54 43.1025C137.182 43.1151 136.847 43.0199 136.618 42.8141L134.754 41.1372C134.606 41.0049 134.523 40.8425 134.496 40.6686C134.442 40.3016 134.647 39.8815 135.078 39.5754L137.824 37.6311C138.142 37.406 138.522 37.2857 138.88 37.2726Z" fill="#B0C9E2"/>
<path d="M146.915 28.5089C147.688 28.4816 148.211 28.953 148.084 29.5629L147.536 32.1929C147.409 32.8028 146.681 33.3186 145.908 33.346L142.753 33.4577C142.507 33.4662 142.287 33.4241 142.104 33.3425C141.714 33.1693 141.498 32.8187 141.584 32.4038L142.132 29.7738C142.218 29.3588 142.585 28.9872 143.053 28.7837C143.273 28.6885 143.514 28.6298 143.76 28.6207L146.915 28.5089Z" fill="#B0C9E2"/>
<path d="M142.515 19.2003C142.873 19.1878 143.209 19.283 143.437 19.4887L145.403 21.266C145.86 21.6781 145.714 22.3769 145.078 22.8278L142.488 24.6626C142.283 24.8074 142.053 24.9089 141.82 24.9659C141.69 24.9978 141.559 25.0166 141.431 25.0212C141.073 25.0337 140.737 24.9385 140.509 24.7327L138.537 22.9595C138.226 22.6796 138.195 22.2663 138.406 21.889C138.505 21.7112 138.658 21.5419 138.862 21.3977L141.458 19.5588C141.776 19.3337 142.157 19.2129 142.515 19.2003Z" fill="#B0C9E2"/>
<path d="M141.584 32.4046C141.498 32.8195 141.715 33.1701 142.104 33.3433C141.441 34.7666 140.465 36.105 139.253 37.302C139.134 37.2786 139.009 37.2689 138.88 37.2735C138.522 37.286 138.142 37.4069 137.824 37.632L135.078 39.5769C134.647 39.8824 134.441 40.3025 134.496 40.6701C132.863 41.4875 131.082 42.1014 129.235 42.4554C129.066 42.127 128.657 41.9144 128.134 41.9332L124.801 42.0512C124.278 42.07 123.774 42.314 123.465 42.6594C121.736 42.432 120.185 41.9355 118.87 41.2213C119.077 40.8457 119.045 40.4353 118.735 40.1571L116.769 38.3799C116.541 38.1741 116.205 38.0789 115.847 38.0914C115.72 38.096 115.59 38.1142 115.461 38.1462C114.733 37.017 114.303 35.7282 114.229 34.33C114.693 34.126 115.054 33.7566 115.14 33.3433L115.688 30.7134C115.774 30.3001 115.562 29.9513 115.176 29.7769C115.838 28.3519 116.815 27.0112 118.029 25.8125C118.147 25.8353 118.271 25.8444 118.397 25.8399C118.755 25.8273 119.136 25.7065 119.454 25.4813L122.194 23.5411C122.625 23.2355 122.83 22.816 122.776 22.4489C124.41 21.6298 126.192 21.0148 128.041 20.6603C128.21 20.9886 128.619 21.2001 129.144 21.1818L132.477 21.0638C133.002 21.045 133.506 20.8011 133.815 20.4551C135.542 20.6825 137.091 21.1784 138.406 21.8915C138.194 22.2688 138.226 22.6815 138.537 22.9619L140.508 24.7352C140.737 24.941 141.072 25.0362 141.431 25.0236C141.559 25.0191 141.689 25.0008 141.819 24.9683C142.548 26.0975 142.979 27.3874 143.054 28.7856C142.586 28.9891 142.219 29.3608 142.132 29.7757L141.584 32.4046ZM127.346 37.7802C131.698 37.6258 135.811 34.7188 136.527 31.2765C137.242 27.8423 134.288 25.1781 129.936 25.3326C125.575 25.487 121.46 28.402 120.745 31.8363C120.029 35.2785 122.985 37.9347 127.346 37.7802Z" fill="#B0C9E2"/>
<path d="M115.847 38.0909C116.205 38.0784 116.54 38.1736 116.769 38.3794L118.735 40.1566C119.044 40.4353 119.077 40.8452 118.869 41.2208C118.77 41.4004 118.615 41.5725 118.41 41.7179L115.819 43.5527C115.501 43.7778 115.12 43.8987 114.762 43.9112C114.404 43.9238 114.068 43.8286 113.84 43.6228L111.868 41.8495C111.412 41.4374 111.557 40.7386 112.193 40.2877L114.789 38.4489C114.995 38.3036 115.226 38.2021 115.46 38.1451C115.589 38.1137 115.72 38.0949 115.847 38.0909Z" fill="#B0C9E2"/>
<path d="M115.758 55.7756C116.25 55.7579 116.578 56.0589 116.498 56.4436L116.15 58.1143C116.07 58.499 115.611 58.8274 115.119 58.845L113.12 58.9157C112.963 58.9214 112.822 58.8918 112.706 58.8376C112.288 59.7434 111.666 60.5944 110.891 61.3587C111.028 61.385 111.154 61.434 111.244 61.52L112.424 62.5848C112.717 62.8481 112.624 63.291 112.218 63.5755L110.48 64.8095C110.278 64.9514 110.036 65.0278 109.808 65.0358C109.582 65.0438 109.369 64.9839 109.225 64.854L108.045 63.7892C107.95 63.7037 107.899 63.5977 107.883 63.4865C106.846 64.0092 105.714 64.4003 104.539 64.6231C104.591 64.7252 104.612 64.8363 104.586 64.9606L104.257 66.5378C104.176 66.9265 103.712 67.2548 103.22 67.2725L101.108 67.3472C100.621 67.3643 100.287 67.0639 100.368 66.6757L100.696 65.0985C100.722 64.9742 100.791 64.8563 100.886 64.7525C99.7867 64.61 98.8018 64.2942 97.9633 63.8382C97.9006 63.9522 97.8088 64.0634 97.6772 64.1569L96.0321 65.3219C95.8292 65.4639 95.5875 65.5403 95.3601 65.5482C95.1332 65.5562 94.9206 65.4964 94.777 65.3664L93.5264 64.2384C93.2386 63.9785 93.3309 63.5356 93.7327 63.2477L95.3778 62.0826C95.5094 61.9892 95.6588 61.9299 95.8081 61.894C95.3424 61.1741 95.0683 60.3544 95.0238 59.4652C94.8836 59.5279 94.7285 59.5684 94.5712 59.5741L92.5728 59.6447C92.0803 59.6624 91.7474 59.3615 91.8272 58.9773L92.1749 57.3066C92.2547 56.9219 92.7193 56.593 93.2112 56.5759L95.2096 56.5052C95.3669 56.4995 95.5077 56.5291 95.6234 56.5833C96.0418 55.6775 96.6637 54.8265 97.4372 54.0662C97.3009 54.0399 97.175 53.9869 97.0804 53.9014L95.8999 52.8367C95.612 52.5767 95.7049 52.1299 96.1062 51.846L97.8487 50.612C98.0494 50.47 98.2899 50.3936 98.5168 50.3857C98.7436 50.3777 98.9574 50.4375 99.1039 50.5675L100.284 51.6362C100.379 51.7178 100.426 51.8238 100.442 51.9355C101.483 51.4168 102.616 51.0218 103.791 50.7989C103.738 50.7003 103.718 50.5857 103.744 50.4615L104.072 48.8843C104.153 48.4955 104.616 48.1706 105.104 48.1535L107.216 48.0789C107.708 48.0612 108.042 48.3582 107.961 48.7463L107.633 50.3235C107.607 50.4478 107.539 50.5658 107.444 50.6695C108.542 50.8115 109.527 51.1278 110.361 51.5838C110.423 51.4698 110.52 51.3581 110.651 51.2692L112.297 50.1001C112.497 49.9582 112.738 49.8818 112.965 49.8738C113.191 49.8658 113.405 49.9257 113.552 50.0556L114.798 51.1837C115.091 51.443 114.998 51.8899 114.591 52.1743L112.946 53.3394C112.819 53.4329 112.67 53.4922 112.521 53.5281C112.987 54.248 113.261 55.0676 113.305 55.9568C113.446 55.8941 113.601 55.8537 113.758 55.8485L115.758 55.7756ZM103.344 61.6568C106.105 61.5588 108.712 59.7154 109.167 57.5323C109.62 55.3526 107.748 53.6643 104.987 53.7623C102.22 53.8604 99.6123 55.7078 99.1586 57.8869C98.7043 60.0705 100.577 61.7549 103.344 61.6568Z" fill="#CADAF1"/>
<path d="M208.685 131.82C205.045 137.216 196.624 141.617 181.79 138.633C184.901 145.215 177.96 159.308 166.744 158.419C167.993 212.167 208.685 230.026 208.685 230.026C208.685 230.026 249.377 212.167 250.626 158.42C239.411 159.308 232.47 145.215 235.58 138.634C220.747 141.617 212.325 137.216 208.685 131.82Z" fill="#87A1CF"/>
<path d="M208.685 131.82C205.137 137.081 197.045 141.395 182.897 138.845C182.433 138.761 182.037 139.186 182.171 139.638C184.219 146.542 177.417 159.265 166.744 158.42C167.993 212.167 208.685 230.026 208.685 230.026" stroke="#87A1CF" stroke-width="0.855371" stroke-miterlimit="10" stroke-linecap="round"/>
<path d="M208.685 141.738C204.396 145.45 197.673 147.766 188.525 146.905C188.357 150.067 187.229 153.261 185.375 156.117C183.018 159.75 179.216 162.924 174.498 163.897C176.843 202.583 202.344 218.227 208.685 221.504C215.026 218.227 240.527 202.583 242.871 163.897C238.153 162.924 234.352 159.75 231.994 156.117C230.141 153.261 229.013 150.067 228.845 146.905C219.697 147.767 212.974 145.45 208.685 141.738Z" fill="#CADAF1"/>
<path opacity="0.25" d="M208.685 131.82V230.026C208.685 230.026 249.377 212.167 250.626 158.42C239.411 159.308 232.47 145.215 235.58 138.634C220.747 141.617 212.325 137.216 208.685 131.82Z" fill="#103262"/>
<path d="M249.253 255.85C241.971 236.531 230.604 264.868 218.958 250.247C207.312 235.627 204.448 260.976 194.848 253.408C185.25 245.84 168.118 255.85 168.118 255.85H249.253Z" fill="#A4BFD8"/>
<path d="M161.302 252.891C158.232 244.746 153.439 256.693 148.529 250.529C143.619 244.365 142.411 255.053 138.364 251.862C134.317 248.671 127.094 252.891 127.094 252.891H161.302Z" fill="#A4BFD8"/>
</g>
<defs>
<clipPath id="clip0_98_765">
<rect width="285" height="285" fill="white"/>
</clipPath>
</defs>
</svg>
