<svg width="317" height="297" viewBox="0 0 317 297" fill="none" xmlns="http://www.w3.org/2000/svg">
<path d="M283.95 41.481C264.62 -2.59351 218.222 -19.1885 181.614 10.4043C167.319 21.9493 158.4 40.3234 140.896 47.6964C124.472 54.611 103.666 52.5754 85.9053 56.3202C48.085 64.2447 -2.83426 94.3115 1.05034 140.639C2.75179 160.932 16.4411 183.471 23.208 202.458C30.9772 224.305 35.6387 251.637 56.2037 264.697C91.4603 287.119 133.989 268.792 165.749 250.713C182.841 240.994 192.25 235.019 210.655 238.352C227.693 241.46 243.037 252.337 259.686 239.432C272.187 229.744 273.22 210.111 283.716 198.582C295.541 185.592 307.529 184.651 313.674 165.128C321.125 141.439 310.147 126.639 302.728 105.476C295.308 84.3125 293.055 62.217 283.95 41.481Z" fill="#C78853" fill-opacity="0.3"/>
<path d="M136.863 301.499C203.191 301.499 256.959 298.149 256.959 294.017C256.959 289.885 203.191 286.535 136.863 286.535C70.5363 286.535 16.7675 289.885 16.7675 294.017C16.7675 298.149 70.5363 301.499 136.863 301.499Z" fill="#C78853"/>
<path opacity="0.8" d="M136.863 301.499C203.191 301.499 256.959 298.149 256.959 294.017C256.959 289.885 203.191 286.535 136.863 286.535C70.5363 286.535 16.7675 289.885 16.7675 294.017C16.7675 298.149 70.5363 301.499 136.863 301.499Z" fill="white"/>
<path d="M227.11 9.51953H106.354C98.0168 9.51953 91.2583 16.278 91.2583 24.615V279.553C91.2583 287.89 98.0168 294.648 106.354 294.648H227.11C235.447 294.648 242.206 287.89 242.206 279.553V24.615C242.206 16.278 235.447 9.51953 227.11 9.51953Z" fill="#263238"/>
<path d="M235.493 40.8301H97.9631V263.339H235.493V40.8301Z" fill="white" stroke="#263238" stroke-width="1.33739" stroke-miterlimit="10"/>
<path d="M187.811 130.931C199.453 119.289 199.453 100.414 187.811 88.7725C176.169 77.1308 157.294 77.1308 145.653 88.7725C134.011 100.414 134.011 119.289 145.653 130.931C157.294 142.572 176.169 142.572 187.811 130.931Z" fill="#C78853"/>
<path d="M205.869 249.346H127.603C127.426 249.347 127.252 249.314 127.089 249.247C126.926 249.18 126.777 249.082 126.653 248.958C126.528 248.834 126.429 248.686 126.361 248.523C126.293 248.361 126.258 248.186 126.258 248.01C126.257 247.833 126.291 247.658 126.359 247.495C126.426 247.331 126.525 247.182 126.65 247.057C126.775 246.932 126.923 246.833 127.087 246.766C127.25 246.699 127.426 246.665 127.603 246.666H205.869C206.045 246.666 206.22 246.701 206.382 246.768C206.545 246.836 206.693 246.935 206.817 247.06C206.941 247.185 207.039 247.333 207.106 247.496C207.173 247.659 207.207 247.834 207.206 248.01C207.206 248.364 207.065 248.704 206.814 248.955C206.564 249.206 206.224 249.346 205.869 249.346Z" fill="#C78853"/>
<path d="M208.418 156.418H125.046C123.326 156.418 121.931 157.813 121.931 159.533V169.361C121.931 171.082 123.326 172.477 125.046 172.477H208.418C210.138 172.477 211.533 171.082 211.533 169.361V159.533C211.533 157.813 210.138 156.418 208.418 156.418Z" fill="#C78853"/>
<path d="M208.418 186.455H125.046C123.326 186.455 121.931 187.85 121.931 189.571V199.399C121.931 201.119 123.326 202.514 125.046 202.514H208.418C210.138 202.514 211.533 201.119 211.533 199.399V189.571C211.533 187.85 210.138 186.455 208.418 186.455Z" fill="#C78853"/>
<path d="M181.575 124.722L172.804 119.672V115.5C174.074 113.963 174.994 112.168 175.499 110.24C175.801 110.347 176.119 110.402 176.44 110.403C177.527 110.403 178.219 107.031 178.335 104.623C179.602 101.942 177.877 100.373 177.877 100.373C177.877 100.373 178.592 99.6582 179.066 96.7913C179.539 93.9245 177.395 95.121 175.725 92.495C174.054 89.869 172.858 87.0099 167.373 87.0099C165.862 86.9602 164.37 87.3664 163.093 88.1755C161.815 88.9847 160.811 90.1595 160.21 91.5471C158.844 91.552 157.484 91.711 156.154 92.0211C154.476 92.495 154.002 97.9878 155.432 100.14C156.072 101.316 156.413 102.631 156.426 103.97C156.045 103.504 155.649 103.38 155.432 104.436C154.958 106.821 156.869 110.162 156.869 110.162L157.856 109.882C158.353 111.943 159.312 113.864 160.66 115.5V119.672L151.889 124.722C150.865 125.313 150.014 126.163 149.422 127.187C148.83 128.212 148.518 129.373 148.517 130.556V133.446C153.734 137.476 160.14 139.663 166.732 139.663C173.324 139.663 179.73 137.476 184.947 133.446V130.556C184.947 129.373 184.636 128.211 184.044 127.186C183.452 126.162 182.6 125.312 181.575 124.722Z" fill="#263238"/>
<path d="M133.282 198.519C133.081 198.516 132.889 198.436 132.746 198.294C132.669 198.226 132.608 198.142 132.567 198.048C132.525 197.954 132.504 197.853 132.505 197.75C132.507 197.61 132.548 197.473 132.621 197.354L134.02 195.116L131.293 195.202C131.19 195.208 131.087 195.193 130.991 195.157C130.894 195.121 130.807 195.065 130.734 194.992C130.607 194.85 130.537 194.666 130.537 194.475C130.537 194.285 130.607 194.101 130.734 193.959C130.805 193.884 130.892 193.825 130.989 193.788C131.086 193.75 131.189 193.734 131.293 193.741L133.981 193.842L132.598 191.613C132.523 191.491 132.483 191.351 132.482 191.209C132.481 191.106 132.502 191.004 132.543 190.911C132.585 190.817 132.646 190.733 132.722 190.665C132.865 190.523 133.057 190.442 133.259 190.439C133.391 190.44 133.52 190.479 133.632 190.55C133.743 190.622 133.832 190.723 133.888 190.843L135.216 193.244L136.529 190.859C136.592 190.732 136.688 190.624 136.807 190.547C136.926 190.47 137.064 190.428 137.205 190.424C137.303 190.424 137.4 190.445 137.49 190.486C137.58 190.526 137.66 190.584 137.726 190.657C137.868 190.805 137.947 191.003 137.943 191.209C137.943 191.342 137.908 191.473 137.842 191.589L136.436 193.842L139.163 193.741C139.267 193.734 139.37 193.75 139.467 193.788C139.564 193.825 139.651 193.884 139.722 193.959C139.855 194.096 139.928 194.281 139.924 194.472C139.924 194.664 139.852 194.85 139.722 194.992C139.649 195.065 139.562 195.121 139.465 195.157C139.369 195.193 139.266 195.208 139.163 195.202L136.421 195.116L137.788 197.331C137.865 197.454 137.905 197.597 137.905 197.742C137.905 197.948 137.823 198.146 137.677 198.292C137.531 198.437 137.334 198.519 137.128 198.519C136.994 198.518 136.865 198.477 136.754 198.402C136.644 198.328 136.558 198.223 136.506 198.1L135.209 195.769L133.919 198.1C133.862 198.222 133.772 198.325 133.66 198.399C133.547 198.473 133.416 198.515 133.282 198.519Z" fill="#263238"/>
<path d="M145.883 198.519C145.682 198.516 145.49 198.436 145.347 198.294C145.271 198.226 145.21 198.142 145.168 198.048C145.127 197.954 145.106 197.853 145.106 197.75C145.109 197.61 145.149 197.473 145.223 197.354L146.621 195.116L143.902 195.202C143.798 195.207 143.695 195.19 143.597 195.154C143.5 195.118 143.411 195.063 143.335 194.992C143.232 194.886 143.163 194.751 143.138 194.605C143.112 194.459 143.132 194.309 143.193 194.174C143.254 194.039 143.354 193.925 143.481 193.848C143.607 193.771 143.754 193.734 143.902 193.741L146.583 193.842L145.2 191.613C145.124 191.491 145.084 191.351 145.083 191.209C145.082 191.106 145.103 191.004 145.145 190.911C145.187 190.817 145.248 190.733 145.324 190.665C145.467 190.523 145.659 190.442 145.86 190.439C145.992 190.44 146.122 190.479 146.233 190.55C146.345 190.622 146.433 190.723 146.489 190.843L147.818 193.244L149.131 190.859C149.193 190.732 149.289 190.624 149.408 190.547C149.527 190.47 149.665 190.428 149.807 190.424C149.905 190.423 150.002 190.444 150.092 190.484C150.182 190.524 150.262 190.583 150.327 190.657C150.399 190.73 150.456 190.816 150.495 190.91C150.534 191.005 150.553 191.106 150.553 191.209C150.55 191.343 150.512 191.474 150.444 191.589L149.038 193.842L151.772 193.757C151.875 193.75 151.977 193.766 152.073 193.803C152.168 193.841 152.254 193.899 152.324 193.974C152.456 194.112 152.529 194.296 152.526 194.487C152.526 194.68 152.454 194.865 152.324 195.008C152.252 195.08 152.166 195.136 152.071 195.172C151.976 195.208 151.874 195.224 151.772 195.217L149.022 195.132L150.389 197.346C150.466 197.47 150.506 197.612 150.506 197.758C150.506 197.964 150.424 198.162 150.278 198.307C150.133 198.453 149.935 198.535 149.729 198.535C149.596 198.533 149.466 198.492 149.356 198.418C149.245 198.343 149.159 198.238 149.108 198.115L147.81 195.785L146.52 198.115C146.461 198.234 146.37 198.335 146.258 198.406C146.146 198.477 146.016 198.516 145.883 198.519Z" fill="#263238"/>
<path d="M158.493 198.519C158.289 198.518 158.094 198.438 157.949 198.294C157.872 198.226 157.811 198.142 157.77 198.048C157.728 197.954 157.707 197.853 157.708 197.75C157.71 197.61 157.751 197.473 157.825 197.354L159.223 195.116L156.504 195.202C156.357 195.208 156.213 195.17 156.088 195.093C155.963 195.016 155.864 194.904 155.803 194.771C155.742 194.637 155.722 194.489 155.746 194.344C155.77 194.2 155.836 194.066 155.937 193.959C156.01 193.884 156.099 193.826 156.197 193.788C156.294 193.751 156.399 193.735 156.504 193.741L159.184 193.842L157.801 191.613C157.726 191.491 157.686 191.351 157.685 191.209C157.687 191.107 157.71 191.006 157.751 190.913C157.792 190.819 157.852 190.735 157.926 190.665C158.07 190.521 158.266 190.44 158.469 190.439C158.6 190.442 158.728 190.481 158.838 190.552C158.948 190.624 159.036 190.725 159.091 190.843L160.42 193.244L161.733 190.859C161.795 190.732 161.891 190.624 162.01 190.547C162.129 190.47 162.267 190.428 162.408 190.424C162.507 190.423 162.604 190.444 162.694 190.484C162.784 190.524 162.864 190.583 162.929 190.657C163.001 190.73 163.058 190.816 163.097 190.91C163.135 191.005 163.155 191.106 163.154 191.209C163.151 191.343 163.114 191.474 163.045 191.589L161.639 193.842L164.374 193.741C164.475 193.731 164.576 193.743 164.672 193.775C164.767 193.808 164.855 193.86 164.929 193.93C165.002 193.999 165.06 194.083 165.099 194.177C165.137 194.27 165.155 194.371 165.151 194.472C165.153 194.663 165.083 194.848 164.957 194.992C164.884 195.065 164.796 195.121 164.699 195.157C164.603 195.193 164.5 195.208 164.397 195.202L161.655 195.116L163.014 197.331C163.091 197.454 163.131 197.597 163.131 197.742C163.128 197.844 163.106 197.945 163.065 198.038C163.023 198.132 162.964 198.216 162.89 198.286C162.823 198.359 162.741 198.417 162.65 198.457C162.559 198.497 162.461 198.518 162.362 198.519C162.23 198.517 162.101 198.476 161.992 198.402C161.883 198.327 161.798 198.222 161.748 198.1L160.443 195.769L159.153 198.1C159.095 198.226 159.002 198.332 158.885 198.407C158.768 198.481 158.631 198.52 158.493 198.519Z" fill="#263238"/>
<path d="M171.094 198.519C170.891 198.518 170.695 198.438 170.551 198.294C170.404 198.151 170.32 197.955 170.317 197.75C170.315 197.61 170.353 197.473 170.426 197.354L171.825 195.116L169.106 195.202C169.002 195.207 168.898 195.19 168.801 195.154C168.703 195.118 168.614 195.063 168.538 194.992C168.412 194.85 168.342 194.666 168.342 194.475C168.342 194.285 168.412 194.101 168.538 193.959C168.613 193.886 168.702 193.83 168.8 193.792C168.897 193.755 169.001 193.738 169.106 193.741L171.794 193.842L170.418 191.613C170.343 191.491 170.303 191.351 170.302 191.209C170.304 191.107 170.327 191.006 170.368 190.913C170.41 190.819 170.469 190.735 170.543 190.665C170.688 190.521 170.883 190.44 171.087 190.439C171.219 190.44 171.348 190.479 171.46 190.55C171.571 190.622 171.66 190.723 171.716 190.843L173.037 193.244L174.35 190.859C174.412 190.732 174.508 190.624 174.627 190.547C174.746 190.47 174.884 190.428 175.026 190.424C175.124 190.423 175.221 190.444 175.311 190.484C175.401 190.524 175.481 190.583 175.546 190.657C175.618 190.73 175.675 190.816 175.714 190.91C175.752 191.005 175.772 191.106 175.771 191.209C175.769 191.343 175.731 191.474 175.663 191.589L174.256 193.842L176.991 193.741C177.092 193.731 177.193 193.743 177.289 193.775C177.385 193.808 177.472 193.86 177.546 193.93C177.62 193.999 177.677 194.083 177.716 194.177C177.754 194.27 177.772 194.371 177.768 194.472C177.77 194.663 177.701 194.848 177.574 194.992C177.501 195.065 177.413 195.121 177.317 195.157C177.22 195.193 177.117 195.208 177.015 195.202L174.272 195.116L175.632 197.331C175.708 197.454 175.749 197.597 175.748 197.742C175.749 197.845 175.728 197.946 175.686 198.04C175.645 198.134 175.584 198.218 175.507 198.286C175.44 198.359 175.358 198.417 175.267 198.457C175.176 198.497 175.078 198.518 174.979 198.519C174.847 198.517 174.718 198.476 174.609 198.402C174.5 198.327 174.415 198.222 174.365 198.1L173.06 195.769L171.77 198.1C171.711 198.228 171.615 198.336 171.495 198.411C171.375 198.486 171.236 198.523 171.094 198.519Z" fill="#263238"/>
<path d="M183.696 198.519C183.492 198.518 183.297 198.438 183.152 198.294C183.032 198.172 182.955 198.014 182.934 197.844C182.913 197.674 182.949 197.502 183.036 197.354L184.426 195.116L181.707 195.202C181.603 195.207 181.5 195.19 181.402 195.154C181.305 195.118 181.216 195.063 181.14 194.992C181.013 194.85 180.943 194.666 180.943 194.475C180.943 194.285 181.013 194.101 181.14 193.959C181.215 193.886 181.304 193.83 181.401 193.792C181.499 193.755 181.603 193.738 181.707 193.741L184.395 193.842L183.012 191.613C182.937 191.491 182.897 191.351 182.896 191.209C182.899 191.004 182.982 190.808 183.129 190.665C183.274 190.521 183.469 190.44 183.673 190.439C183.805 190.44 183.934 190.479 184.046 190.55C184.157 190.622 184.246 190.723 184.302 190.843L185.623 193.244L186.936 190.859C186.998 190.732 187.094 190.624 187.213 190.547C187.332 190.47 187.47 190.428 187.612 190.424C187.711 190.423 187.81 190.444 187.901 190.484C187.992 190.524 188.073 190.583 188.14 190.657C188.283 190.805 188.361 191.003 188.357 191.209C188.355 191.343 188.317 191.474 188.249 191.589L186.843 193.842L189.577 193.741C189.678 193.731 189.779 193.743 189.875 193.775C189.971 193.808 190.058 193.86 190.132 193.93C190.206 193.999 190.263 194.083 190.302 194.177C190.34 194.27 190.358 194.371 190.354 194.472C190.356 194.663 190.287 194.848 190.16 194.992C190.087 195.065 189.999 195.121 189.903 195.157C189.806 195.193 189.703 195.208 189.601 195.202L186.858 195.116L188.218 197.331C188.294 197.454 188.335 197.597 188.334 197.742C188.335 197.845 188.314 197.946 188.272 198.04C188.231 198.134 188.17 198.218 188.093 198.286C188.026 198.359 187.944 198.417 187.853 198.457C187.762 198.497 187.664 198.518 187.565 198.519C187.433 198.517 187.304 198.476 187.195 198.402C187.086 198.327 187.001 198.222 186.951 198.1L185.646 195.769L184.356 198.1C184.298 198.226 184.205 198.332 184.088 198.407C183.971 198.481 183.835 198.52 183.696 198.519Z" fill="#263238"/>
<path d="M196.298 198.519C196.097 198.516 195.904 198.436 195.762 198.294C195.685 198.226 195.624 198.142 195.583 198.048C195.541 197.954 195.52 197.853 195.521 197.75C195.523 197.61 195.563 197.473 195.637 197.354L197.028 195.116L194.309 195.202C194.209 195.209 194.108 195.196 194.014 195.163C193.919 195.129 193.832 195.077 193.759 195.008C193.686 194.939 193.628 194.856 193.589 194.764C193.55 194.671 193.53 194.572 193.532 194.472C193.531 194.377 193.55 194.282 193.586 194.194C193.622 194.106 193.675 194.026 193.742 193.959C193.813 193.884 193.9 193.825 193.997 193.788C194.094 193.75 194.197 193.734 194.301 193.741L196.989 193.842L195.606 191.613C195.531 191.491 195.491 191.351 195.49 191.209C195.493 191.004 195.576 190.808 195.723 190.665C195.867 190.521 196.063 190.44 196.267 190.439C196.399 190.44 196.528 190.479 196.64 190.55C196.751 190.622 196.84 190.723 196.896 190.843L198.217 193.244L199.537 190.859C199.599 190.733 199.694 190.626 199.811 190.549C199.929 190.473 200.065 190.429 200.206 190.424C200.305 190.423 200.404 190.444 200.495 190.484C200.586 190.524 200.667 190.583 200.734 190.657C200.876 190.805 200.955 191.003 200.951 191.209C200.951 191.342 200.916 191.473 200.85 191.589L199.444 193.842L202.171 193.741C202.275 193.734 202.378 193.75 202.475 193.788C202.572 193.825 202.659 193.884 202.731 193.959C202.863 194.096 202.936 194.281 202.933 194.472C202.932 194.664 202.86 194.85 202.731 194.992C202.657 195.065 202.57 195.121 202.473 195.157C202.377 195.193 202.274 195.208 202.171 195.202L199.429 195.116L200.788 197.331C200.865 197.454 200.905 197.597 200.905 197.742C200.902 197.947 200.818 198.143 200.672 198.286C200.53 198.431 200.338 198.514 200.136 198.519C200.003 198.517 199.875 198.476 199.766 198.402C199.657 198.327 199.572 198.222 199.522 198.1L198.217 195.769L196.927 198.1C196.871 198.221 196.783 198.324 196.672 198.398C196.56 198.473 196.431 198.514 196.298 198.519Z" fill="#263238"/>
<path d="M181.684 25.2527H151.772C151.233 25.2527 150.715 25.0382 150.333 24.6565C149.951 24.2748 149.737 23.757 149.737 23.2172C149.737 22.6773 149.951 22.1596 150.333 21.7778C150.715 21.3961 151.233 21.1816 151.772 21.1816H181.684C182.224 21.1816 182.741 21.3961 183.123 21.7778C183.505 22.1596 183.719 22.6773 183.719 23.2172C183.719 23.757 183.505 24.2748 183.123 24.6565C182.741 25.0382 182.224 25.2527 181.684 25.2527Z" fill="#C78853" stroke="#263238" stroke-width="1.33739" stroke-linecap="round" stroke-linejoin="round"/>
<path d="M174.886 275.91C174.887 274.295 174.41 272.717 173.514 271.374C172.618 270.032 171.344 268.985 169.853 268.367C168.363 267.748 166.722 267.586 165.139 267.901C163.555 268.215 162.101 268.992 160.96 270.133C159.818 271.275 159.041 272.729 158.727 274.312C158.412 275.895 158.574 277.536 159.193 279.027C159.811 280.518 160.858 281.792 162.201 282.688C163.543 283.584 165.122 284.061 166.736 284.059C168.897 284.057 170.968 283.198 172.496 281.67C174.024 280.142 174.884 278.07 174.886 275.91Z" fill="#C78853"/>
<path d="M170.869 271.775H162.603V280.042H170.869V271.775Z" fill="#C78853" stroke="#263238" stroke-width="1.33739" stroke-linecap="round" stroke-linejoin="round"/>
<path d="M265.202 182.103C265.202 182.103 254.372 154.585 264.014 151.314C274.052 147.903 273.609 166.076 273.22 174.932C272.404 193.858 270.315 197.378 268.753 192.755L265.202 182.103ZM261.947 203.57C264.923 207.454 265.762 203.43 260.393 185.258C257.876 176.712 252.407 159.425 244.016 165.912C235.959 172.128 255.134 194.658 255.134 194.658L261.947 203.57ZM256.198 219.341C259.034 221.858 259.088 218.681 252.352 205.558C249.19 199.413 242.501 186.975 237.024 193.128C231.764 199.063 249.687 213.491 249.687 213.491L256.198 219.341ZM249.983 238.096C252.818 240.621 252.873 237.435 246.137 224.321C242.975 218.176 236.286 205.729 230.808 211.89C225.58 217.842 243.449 232.269 243.449 232.269L249.983 238.096ZM267.929 199.918C263.392 201.689 266.997 203.616 285.946 203.562C294.834 203.562 312.983 203.158 309.114 193.283C305.408 183.797 278.418 195.878 278.418 195.878L267.929 199.918ZM262.763 212.535C257.962 213.367 261.116 215.977 279.7 219.691C288.409 221.439 306.27 224.663 304.445 214.252C302.697 204.214 273.842 210.694 273.842 210.694L262.763 212.535ZM256.983 227.941C252.896 228.532 255.506 230.808 271.13 234.382C278.457 236.06 293.49 239.207 292.185 230.327C290.942 221.781 266.391 226.613 266.391 226.613L256.983 227.941ZM252.593 242.213C248.592 243.231 251.428 245.22 267.354 247.116C274.813 248.001 290.095 249.54 287.865 240.846C285.713 232.502 261.815 239.89 261.815 239.89L252.593 242.213ZM276.009 184.434C273.679 189.655 278.519 188.863 294.974 174.505C302.681 167.769 318.142 153.676 305.897 146.66C294.143 139.917 281.502 172.454 281.502 172.454L276.009 184.434ZM253.199 260.805C250.736 262.242 253.152 262.802 264.449 260.549C269.747 259.5 280.523 257.169 276.88 252.57C273.352 248.141 258.902 257.464 258.902 257.464L253.199 260.805Z" fill="#C78853"/>
<path opacity="0.3" d="M265.202 182.103C265.202 182.103 254.372 154.585 264.014 151.314C274.052 147.903 273.609 166.076 273.22 174.932C272.404 193.858 270.315 197.378 268.753 192.755L265.202 182.103ZM261.947 203.57C264.923 207.454 265.762 203.43 260.393 185.258C257.876 176.712 252.407 159.425 244.016 165.912C235.959 172.128 255.134 194.658 255.134 194.658L261.947 203.57ZM256.198 219.341C259.034 221.858 259.088 218.681 252.352 205.558C249.19 199.413 242.501 186.975 237.024 193.128C231.764 199.063 249.687 213.491 249.687 213.491L256.198 219.341ZM249.983 238.096C252.818 240.621 252.873 237.435 246.137 224.321C242.975 218.176 236.286 205.729 230.808 211.89C225.58 217.842 243.449 232.269 243.449 232.269L249.983 238.096ZM267.929 199.918C263.392 201.689 266.997 203.616 285.946 203.562C294.834 203.562 312.983 203.158 309.114 193.283C305.408 183.797 278.418 195.878 278.418 195.878L267.929 199.918ZM262.763 212.535C257.962 213.367 261.116 215.977 279.7 219.691C288.409 221.439 306.27 224.663 304.445 214.252C302.697 204.214 273.842 210.694 273.842 210.694L262.763 212.535ZM256.983 227.941C252.896 228.532 255.506 230.808 271.13 234.382C278.457 236.06 293.49 239.207 292.185 230.327C290.942 221.781 266.391 226.613 266.391 226.613L256.983 227.941ZM252.593 242.213C248.592 243.231 251.428 245.22 267.354 247.116C274.813 248.001 290.095 249.54 287.865 240.846C285.713 232.502 261.815 239.89 261.815 239.89L252.593 242.213ZM276.009 184.434C273.679 189.655 278.519 188.863 294.974 174.505C302.681 167.769 318.142 153.676 305.897 146.66C294.143 139.917 281.502 172.454 281.502 172.454L276.009 184.434ZM253.199 260.805C250.736 262.242 253.152 262.802 264.449 260.549C269.747 259.5 280.523 257.169 276.88 252.57C273.352 248.141 258.902 257.464 258.902 257.464L253.199 260.805Z" fill="white"/>
<path d="M269.98 194.914L268.093 163.503ZM264.006 205.278L252.073 178.265ZM294.803 197.423L266.205 201.525ZM257.822 219.837L242.338 199.972ZM260.541 213.746L281.875 214.819ZM255.491 228.982L271.806 230.598ZM251.552 238.662L243.449 226.472ZM250.62 242.966L269.802 243.145ZM246.735 278.953C246.864 278.943 246.983 278.883 247.067 278.785C247.152 278.688 247.194 278.561 247.186 278.433C245.966 260.113 253.051 230.108 264.418 205.48C271.682 189.74 300.156 158.803 300.459 158.492C300.551 158.4 300.602 158.276 300.602 158.146C300.602 158.017 300.551 157.892 300.459 157.801C300.414 157.755 300.361 157.72 300.302 157.695C300.244 157.671 300.181 157.658 300.117 157.658C300.054 157.658 299.991 157.671 299.932 157.695C299.873 157.72 299.82 157.755 299.775 157.801C299.488 158.111 270.897 189.165 263.571 205.045C251.995 230.271 245.003 259.732 246.246 278.495C246.255 278.618 246.311 278.734 246.401 278.819C246.492 278.904 246.611 278.952 246.735 278.953ZM269.973 195.396C270.101 195.388 270.221 195.329 270.307 195.233C270.393 195.137 270.437 195.011 270.431 194.883L268.574 163.456C268.571 163.393 268.556 163.33 268.528 163.272C268.501 163.214 268.462 163.162 268.414 163.12C268.366 163.077 268.311 163.044 268.25 163.023C268.189 163.002 268.125 162.994 268.061 162.998C267.933 163.006 267.813 163.064 267.727 163.16C267.641 163.256 267.597 163.382 267.603 163.511L269.491 194.922C269.497 195.045 269.55 195.162 269.64 195.247C269.73 195.333 269.849 195.38 269.973 195.38V195.396ZM264.177 205.721C264.293 205.668 264.384 205.572 264.431 205.453C264.477 205.334 264.475 205.201 264.426 205.084L252.484 178.07C252.433 177.953 252.337 177.861 252.217 177.814C252.098 177.767 251.965 177.77 251.847 177.822C251.73 177.873 251.638 177.969 251.591 178.089C251.544 178.208 251.547 178.341 251.599 178.459L263.532 205.472C263.57 205.559 263.631 205.633 263.71 205.685C263.788 205.738 263.88 205.766 263.975 205.767C264.055 205.772 264.135 205.756 264.208 205.721H264.177ZM266.243 201.992L294.826 197.905C294.895 197.904 294.963 197.888 295.026 197.858C295.088 197.828 295.144 197.786 295.188 197.734C295.233 197.681 295.266 197.62 295.286 197.553C295.305 197.487 295.31 197.418 295.301 197.349C295.292 197.281 295.268 197.215 295.231 197.157C295.195 197.098 295.146 197.048 295.089 197.009C295.032 196.971 294.967 196.945 294.899 196.933C294.831 196.922 294.761 196.924 294.694 196.942L266.111 201.028C265.984 201.036 265.864 201.095 265.78 201.191C265.695 201.287 265.653 201.413 265.661 201.541C265.669 201.669 265.728 201.788 265.824 201.873C265.92 201.957 266.046 202 266.174 201.992H266.243ZM258.094 220.226C258.195 220.146 258.261 220.03 258.277 219.902C258.293 219.774 258.258 219.644 258.179 219.542L242.687 199.638C242.608 199.535 242.491 199.467 242.362 199.45C242.233 199.434 242.103 199.469 242 199.548C241.897 199.628 241.829 199.745 241.813 199.873C241.796 200.002 241.831 200.133 241.91 200.236L257.433 220.171C257.478 220.23 257.536 220.277 257.602 220.309C257.668 220.341 257.74 220.358 257.814 220.358C257.93 220.352 258.04 220.305 258.125 220.226H258.094ZM282.302 214.842C282.307 214.713 282.26 214.588 282.173 214.494C282.086 214.399 281.965 214.343 281.836 214.337L260.541 213.257C260.421 213.265 260.309 213.317 260.225 213.403C260.141 213.488 260.091 213.602 260.086 213.722C260.08 213.842 260.118 213.959 260.194 214.053C260.269 214.146 260.376 214.208 260.494 214.228L281.828 215.308C281.957 215.312 282.082 215.266 282.177 215.178C282.271 215.091 282.327 214.97 282.333 214.842H282.302ZM272.257 230.644C272.264 230.58 272.259 230.516 272.241 230.454C272.223 230.392 272.193 230.334 272.152 230.284C272.112 230.234 272.062 230.193 272.005 230.163C271.948 230.133 271.886 230.114 271.822 230.108L255.506 228.5C255.443 228.494 255.379 228.5 255.318 228.518C255.257 228.537 255.201 228.567 255.152 228.607C255.103 228.648 255.062 228.698 255.032 228.754C255.002 228.81 254.984 228.872 254.978 228.935C254.967 229.063 255.007 229.189 255.088 229.288C255.169 229.387 255.286 229.45 255.413 229.463L271.729 231.079H271.775C271.9 231.088 272.024 231.047 272.12 230.966C272.216 230.885 272.276 230.769 272.288 230.644H272.257ZM251.785 239.066C251.893 238.995 251.968 238.884 251.994 238.757C252.021 238.63 251.996 238.499 251.925 238.39L243.86 226.2C243.787 226.095 243.675 226.023 243.549 225.998C243.423 225.974 243.292 225.999 243.185 226.068C243.077 226.14 243.001 226.251 242.975 226.377C242.949 226.504 242.974 226.636 243.045 226.744L251.109 238.934C251.155 239.001 251.217 239.055 251.288 239.093C251.36 239.131 251.44 239.151 251.521 239.152C251.626 239.157 251.73 239.127 251.816 239.066H251.785ZM270.291 243.145C270.289 243.017 270.238 242.895 270.148 242.804C270.059 242.713 269.937 242.659 269.81 242.656L250.627 242.477C250.5 242.477 250.377 242.528 250.287 242.618C250.197 242.708 250.146 242.831 250.146 242.958C250.144 243.023 250.155 243.087 250.178 243.146C250.201 243.206 250.237 243.261 250.282 243.307C250.327 243.352 250.381 243.388 250.44 243.413C250.499 243.437 250.563 243.449 250.627 243.448L269.81 243.627C269.875 243.63 269.941 243.62 270.002 243.597C270.064 243.574 270.12 243.539 270.168 243.494C270.216 243.45 270.254 243.395 270.281 243.335C270.307 243.275 270.321 243.211 270.322 243.145H270.291ZM244.552 271.829C244.591 271.743 247.862 262.731 257.697 260.579C257.824 260.551 257.935 260.474 258.004 260.365C258.074 260.256 258.098 260.123 258.07 259.996C258.039 259.872 257.961 259.765 257.852 259.697C257.744 259.629 257.613 259.605 257.488 259.631C247.116 261.9 243.674 271.417 243.635 271.51C243.595 271.633 243.604 271.766 243.661 271.882C243.717 271.998 243.817 272.088 243.938 272.132H244.094C244.197 272.141 244.3 272.116 244.389 272.061C244.477 272.007 244.545 271.925 244.583 271.829H244.552ZM246.735 278.953C246.864 278.943 246.983 278.883 247.067 278.785C247.152 278.688 247.194 278.561 247.186 278.433C245.966 260.113 253.051 230.108 264.418 205.48C271.682 189.74 300.156 158.803 300.459 158.492C300.551 158.4 300.602 158.276 300.602 158.146C300.602 158.017 300.551 157.892 300.459 157.801C300.414 157.755 300.361 157.72 300.302 157.695C300.244 157.671 300.181 157.658 300.117 157.658C300.054 157.658 299.991 157.671 299.932 157.695C299.873 157.72 299.82 157.755 299.775 157.801C299.488 158.111 270.897 189.165 263.571 205.045C251.995 230.271 245.003 259.732 246.246 278.495C246.255 278.618 246.311 278.734 246.401 278.819C246.492 278.904 246.611 278.952 246.735 278.953ZM269.973 195.396C270.101 195.388 270.221 195.329 270.307 195.233C270.393 195.137 270.437 195.011 270.431 194.883L268.574 163.456C268.571 163.393 268.556 163.33 268.528 163.272C268.501 163.214 268.462 163.162 268.414 163.12C268.366 163.077 268.311 163.044 268.25 163.023C268.189 163.002 268.125 162.994 268.061 162.998C267.933 163.006 267.813 163.064 267.727 163.16C267.641 163.256 267.597 163.382 267.603 163.511L269.491 194.922C269.497 195.045 269.55 195.162 269.64 195.247C269.73 195.333 269.849 195.38 269.973 195.38V195.396ZM264.177 205.721C264.293 205.668 264.384 205.572 264.431 205.453C264.477 205.334 264.475 205.201 264.426 205.084L252.484 178.07C252.433 177.953 252.337 177.861 252.217 177.814C252.098 177.767 251.965 177.77 251.847 177.822C251.73 177.873 251.638 177.969 251.591 178.089C251.544 178.208 251.547 178.341 251.599 178.459L263.532 205.472C263.57 205.559 263.631 205.633 263.71 205.685C263.788 205.738 263.88 205.766 263.975 205.767C264.055 205.772 264.135 205.756 264.208 205.721H264.177ZM266.243 201.992L294.826 197.905C294.895 197.904 294.963 197.888 295.026 197.858C295.088 197.828 295.144 197.786 295.188 197.734C295.233 197.681 295.266 197.62 295.286 197.553C295.305 197.487 295.31 197.418 295.301 197.349C295.292 197.281 295.268 197.215 295.231 197.157C295.195 197.098 295.146 197.048 295.089 197.009C295.032 196.971 294.967 196.945 294.899 196.933C294.831 196.922 294.761 196.924 294.694 196.942L266.111 201.028C265.984 201.036 265.864 201.095 265.78 201.191C265.695 201.287 265.653 201.413 265.661 201.541C265.669 201.669 265.728 201.788 265.824 201.873C265.92 201.957 266.046 202 266.174 201.992H266.243ZM258.094 220.226C258.195 220.146 258.261 220.03 258.277 219.902C258.293 219.774 258.258 219.644 258.179 219.542L242.687 199.638C242.648 199.587 242.599 199.544 242.543 199.512C242.487 199.48 242.426 199.459 242.362 199.45C242.298 199.442 242.233 199.447 242.171 199.463C242.109 199.48 242.051 199.509 242 199.548C241.949 199.587 241.906 199.636 241.874 199.692C241.842 199.748 241.821 199.81 241.813 199.873C241.804 199.937 241.809 200.002 241.826 200.064C241.842 200.127 241.871 200.185 241.91 200.236L257.433 220.171C257.478 220.23 257.536 220.277 257.602 220.309C257.668 220.341 257.74 220.358 257.814 220.358C257.93 220.352 258.04 220.305 258.125 220.226H258.094ZM282.302 214.842C282.307 214.713 282.26 214.588 282.173 214.494C282.086 214.399 281.965 214.343 281.836 214.337L260.541 213.257C260.421 213.265 260.309 213.317 260.225 213.403C260.141 213.488 260.091 213.602 260.086 213.722C260.08 213.842 260.118 213.959 260.194 214.053C260.269 214.146 260.376 214.208 260.494 214.228L281.828 215.308C281.957 215.312 282.082 215.266 282.177 215.178C282.271 215.091 282.327 214.97 282.333 214.842H282.302ZM272.257 230.644C272.264 230.58 272.259 230.516 272.241 230.454C272.223 230.392 272.193 230.334 272.152 230.284C272.112 230.234 272.062 230.193 272.005 230.163C271.948 230.133 271.886 230.114 271.822 230.108L255.506 228.5C255.443 228.494 255.379 228.5 255.318 228.518C255.257 228.537 255.201 228.567 255.152 228.607C255.103 228.648 255.062 228.698 255.032 228.754C255.002 228.81 254.984 228.872 254.978 228.935C254.967 229.063 255.007 229.189 255.088 229.288C255.169 229.387 255.286 229.45 255.413 229.463L271.729 231.079H271.775C271.9 231.088 272.024 231.047 272.12 230.966C272.216 230.885 272.276 230.769 272.288 230.644H272.257ZM251.785 239.066C251.893 238.995 251.968 238.884 251.994 238.757C252.021 238.63 251.996 238.499 251.925 238.39L243.86 226.2C243.787 226.095 243.675 226.023 243.549 225.998C243.423 225.974 243.292 225.999 243.185 226.068C243.077 226.14 243.001 226.251 242.975 226.377C242.949 226.504 242.974 226.636 243.045 226.744L251.109 238.934C251.155 239.001 251.217 239.055 251.288 239.093C251.36 239.131 251.44 239.151 251.521 239.152C251.626 239.157 251.73 239.127 251.816 239.066H251.785ZM270.291 243.145C270.289 243.017 270.238 242.895 270.148 242.804C270.059 242.713 269.937 242.659 269.81 242.656L250.627 242.477C250.5 242.477 250.377 242.528 250.287 242.618C250.197 242.708 250.146 242.831 250.146 242.958C250.144 243.023 250.155 243.087 250.178 243.146C250.201 243.206 250.237 243.261 250.282 243.307C250.327 243.352 250.381 243.388 250.44 243.413C250.499 243.437 250.563 243.449 250.627 243.448L269.81 243.627C269.875 243.63 269.941 243.62 270.002 243.597C270.064 243.574 270.12 243.539 270.168 243.494C270.216 243.45 270.254 243.395 270.281 243.335C270.307 243.275 270.321 243.211 270.322 243.145H270.291ZM244.552 271.829C244.591 271.743 247.862 262.731 257.697 260.579C257.824 260.551 257.935 260.474 258.004 260.365C258.074 260.256 258.098 260.123 258.07 259.996C258.039 259.872 257.961 259.765 257.852 259.697C257.744 259.629 257.613 259.605 257.488 259.631C247.116 261.9 243.674 271.417 243.635 271.51C243.595 271.633 243.604 271.766 243.661 271.882C243.717 271.998 243.817 272.088 243.938 272.132H244.094C244.197 272.141 244.3 272.116 244.389 272.061C244.477 272.007 244.545 271.925 244.583 271.829H244.552Z" fill="#C78853"/>
<path opacity="0.2" d="M269.98 194.914L268.093 163.503ZM264.006 205.278L252.073 178.265ZM294.803 197.423L266.205 201.525ZM257.822 219.837L242.338 199.972ZM260.541 213.746L281.875 214.819ZM255.491 228.982L271.806 230.598ZM251.552 238.662L243.449 226.472ZM250.62 242.966L269.802 243.145ZM246.735 278.953C246.864 278.943 246.983 278.883 247.067 278.785C247.152 278.688 247.194 278.561 247.186 278.433C245.966 260.113 253.051 230.108 264.418 205.48C271.682 189.74 300.156 158.803 300.459 158.492C300.551 158.4 300.602 158.276 300.602 158.146C300.602 158.017 300.551 157.892 300.459 157.801C300.414 157.755 300.361 157.72 300.302 157.695C300.244 157.671 300.181 157.658 300.117 157.658C300.054 157.658 299.991 157.671 299.932 157.695C299.873 157.72 299.82 157.755 299.775 157.801C299.488 158.111 270.897 189.165 263.571 205.045C251.995 230.271 245.003 259.732 246.246 278.495C246.255 278.618 246.311 278.734 246.401 278.819C246.492 278.904 246.611 278.952 246.735 278.953ZM269.973 195.396C270.101 195.388 270.221 195.329 270.307 195.233C270.393 195.137 270.437 195.011 270.431 194.883L268.574 163.456C268.571 163.393 268.556 163.33 268.528 163.272C268.501 163.214 268.462 163.162 268.414 163.12C268.366 163.077 268.311 163.044 268.25 163.023C268.189 163.002 268.125 162.994 268.061 162.998C267.933 163.006 267.813 163.064 267.727 163.16C267.641 163.256 267.597 163.382 267.603 163.511L269.491 194.922C269.497 195.045 269.55 195.162 269.64 195.247C269.73 195.333 269.849 195.38 269.973 195.38V195.396ZM264.177 205.721C264.293 205.668 264.384 205.572 264.431 205.453C264.477 205.334 264.475 205.201 264.426 205.084L252.484 178.07C252.433 177.953 252.337 177.861 252.217 177.814C252.098 177.767 251.965 177.77 251.847 177.822C251.73 177.873 251.638 177.969 251.591 178.089C251.544 178.208 251.547 178.341 251.599 178.459L263.532 205.472C263.57 205.559 263.631 205.633 263.71 205.685C263.788 205.738 263.88 205.766 263.975 205.767C264.055 205.772 264.135 205.756 264.208 205.721H264.177ZM266.243 201.992L294.826 197.905C294.895 197.904 294.963 197.888 295.026 197.858C295.088 197.828 295.144 197.786 295.188 197.734C295.233 197.681 295.266 197.62 295.286 197.553C295.305 197.487 295.31 197.418 295.301 197.349C295.292 197.281 295.268 197.215 295.231 197.157C295.195 197.098 295.146 197.048 295.089 197.009C295.032 196.971 294.967 196.945 294.899 196.933C294.831 196.922 294.761 196.924 294.694 196.942L266.111 201.028C265.984 201.036 265.864 201.095 265.78 201.191C265.695 201.287 265.653 201.413 265.661 201.541C265.669 201.669 265.728 201.788 265.824 201.873C265.92 201.957 266.046 202 266.174 201.992H266.243ZM258.094 220.226C258.195 220.146 258.261 220.03 258.277 219.902C258.293 219.774 258.258 219.644 258.179 219.542L242.687 199.638C242.608 199.535 242.491 199.467 242.362 199.45C242.233 199.434 242.103 199.469 242 199.548C241.897 199.628 241.829 199.745 241.813 199.873C241.796 200.002 241.831 200.133 241.91 200.236L257.433 220.171C257.478 220.23 257.536 220.277 257.602 220.309C257.668 220.341 257.74 220.358 257.814 220.358C257.93 220.352 258.04 220.305 258.125 220.226H258.094ZM282.302 214.842C282.307 214.713 282.26 214.588 282.173 214.494C282.086 214.399 281.965 214.343 281.836 214.337L260.541 213.257C260.421 213.265 260.309 213.317 260.225 213.403C260.141 213.488 260.091 213.602 260.086 213.722C260.08 213.842 260.118 213.959 260.194 214.053C260.269 214.146 260.376 214.208 260.494 214.228L281.828 215.308C281.957 215.312 282.082 215.266 282.177 215.178C282.271 215.091 282.327 214.97 282.333 214.842H282.302ZM272.257 230.644C272.264 230.58 272.259 230.516 272.241 230.454C272.223 230.392 272.193 230.334 272.152 230.284C272.112 230.234 272.062 230.193 272.005 230.163C271.948 230.133 271.886 230.114 271.822 230.108L255.506 228.5C255.443 228.494 255.379 228.5 255.318 228.518C255.257 228.537 255.201 228.567 255.152 228.607C255.103 228.648 255.062 228.698 255.032 228.754C255.002 228.81 254.984 228.872 254.978 228.935C254.967 229.063 255.007 229.189 255.088 229.288C255.169 229.387 255.286 229.45 255.413 229.463L271.729 231.079H271.775C271.9 231.088 272.024 231.047 272.12 230.966C272.216 230.885 272.276 230.769 272.288 230.644H272.257ZM251.785 239.066C251.893 238.995 251.968 238.884 251.994 238.757C252.021 238.63 251.996 238.499 251.925 238.39L243.86 226.2C243.787 226.095 243.675 226.023 243.549 225.998C243.423 225.974 243.292 225.999 243.185 226.068C243.077 226.14 243.001 226.251 242.975 226.377C242.949 226.504 242.974 226.636 243.045 226.744L251.109 238.934C251.155 239.001 251.217 239.055 251.288 239.093C251.36 239.131 251.44 239.151 251.521 239.152C251.626 239.157 251.73 239.127 251.816 239.066H251.785ZM270.291 243.145C270.289 243.017 270.238 242.895 270.148 242.804C270.059 242.713 269.937 242.659 269.81 242.656L250.627 242.477C250.5 242.477 250.377 242.528 250.287 242.618C250.197 242.708 250.146 242.831 250.146 242.958C250.144 243.023 250.155 243.087 250.178 243.146C250.201 243.206 250.237 243.261 250.282 243.307C250.327 243.352 250.381 243.388 250.44 243.413C250.499 243.437 250.563 243.449 250.627 243.448L269.81 243.627C269.875 243.63 269.941 243.62 270.002 243.597C270.064 243.574 270.12 243.539 270.168 243.494C270.216 243.45 270.254 243.395 270.281 243.335C270.307 243.275 270.321 243.211 270.322 243.145H270.291ZM244.552 271.829C244.591 271.743 247.862 262.731 257.697 260.579C257.824 260.551 257.935 260.474 258.004 260.365C258.074 260.256 258.098 260.123 258.07 259.996C258.039 259.872 257.961 259.765 257.852 259.697C257.744 259.629 257.613 259.605 257.488 259.631C247.116 261.9 243.674 271.417 243.635 271.51C243.595 271.633 243.604 271.766 243.661 271.882C243.717 271.998 243.817 272.088 243.938 272.132H244.094C244.197 272.141 244.3 272.116 244.389 272.061C244.477 272.007 244.545 271.925 244.583 271.829H244.552ZM246.735 278.953C246.864 278.943 246.983 278.883 247.067 278.785C247.152 278.688 247.194 278.561 247.186 278.433C245.966 260.113 253.051 230.108 264.418 205.48C271.682 189.74 300.156 158.803 300.459 158.492C300.551 158.4 300.602 158.276 300.602 158.146C300.602 158.017 300.551 157.892 300.459 157.801C300.414 157.755 300.361 157.72 300.302 157.695C300.244 157.671 300.181 157.658 300.117 157.658C300.054 157.658 299.991 157.671 299.932 157.695C299.873 157.72 299.82 157.755 299.775 157.801C299.488 158.111 270.897 189.165 263.571 205.045C251.995 230.271 245.003 259.732 246.246 278.495C246.255 278.618 246.311 278.734 246.401 278.819C246.492 278.904 246.611 278.952 246.735 278.953ZM269.973 195.396C270.101 195.388 270.221 195.329 270.307 195.233C270.393 195.137 270.437 195.011 270.431 194.883L268.574 163.456C268.571 163.393 268.556 163.33 268.528 163.272C268.501 163.214 268.462 163.162 268.414 163.12C268.366 163.077 268.311 163.044 268.25 163.023C268.189 163.002 268.125 162.994 268.061 162.998C267.933 163.006 267.813 163.064 267.727 163.16C267.641 163.256 267.597 163.382 267.603 163.511L269.491 194.922C269.497 195.045 269.55 195.162 269.64 195.247C269.73 195.333 269.849 195.38 269.973 195.38V195.396ZM264.177 205.721C264.293 205.668 264.384 205.572 264.431 205.453C264.477 205.334 264.475 205.201 264.426 205.084L252.484 178.07C252.433 177.953 252.337 177.861 252.217 177.814C252.098 177.767 251.965 177.77 251.847 177.822C251.73 177.873 251.638 177.969 251.591 178.089C251.544 178.208 251.547 178.341 251.599 178.459L263.532 205.472C263.57 205.559 263.631 205.633 263.71 205.685C263.788 205.738 263.88 205.766 263.975 205.767C264.055 205.772 264.135 205.756 264.208 205.721H264.177ZM266.243 201.992L294.826 197.905C294.895 197.904 294.963 197.888 295.026 197.858C295.088 197.828 295.144 197.786 295.188 197.734C295.233 197.681 295.266 197.62 295.286 197.553C295.305 197.487 295.31 197.418 295.301 197.349C295.292 197.281 295.268 197.215 295.231 197.157C295.195 197.098 295.146 197.048 295.089 197.009C295.032 196.971 294.967 196.945 294.899 196.933C294.831 196.922 294.761 196.924 294.694 196.942L266.111 201.028C265.984 201.036 265.864 201.095 265.78 201.191C265.695 201.287 265.653 201.413 265.661 201.541C265.669 201.669 265.728 201.788 265.824 201.873C265.92 201.957 266.046 202 266.174 201.992H266.243ZM258.094 220.226C258.195 220.146 258.261 220.03 258.277 219.902C258.293 219.774 258.258 219.644 258.179 219.542L242.687 199.638C242.648 199.587 242.599 199.544 242.543 199.512C242.487 199.48 242.426 199.459 242.362 199.45C242.298 199.442 242.233 199.447 242.171 199.463C242.109 199.48 242.051 199.509 242 199.548C241.949 199.587 241.906 199.636 241.874 199.692C241.842 199.748 241.821 199.81 241.813 199.873C241.804 199.937 241.809 200.002 241.826 200.064C241.842 200.127 241.871 200.185 241.91 200.236L257.433 220.171C257.478 220.23 257.536 220.277 257.602 220.309C257.668 220.341 257.74 220.358 257.814 220.358C257.93 220.352 258.04 220.305 258.125 220.226H258.094ZM282.302 214.842C282.307 214.713 282.26 214.588 282.173 214.494C282.086 214.399 281.965 214.343 281.836 214.337L260.541 213.257C260.421 213.265 260.309 213.317 260.225 213.403C260.141 213.488 260.091 213.602 260.086 213.722C260.08 213.842 260.118 213.959 260.194 214.053C260.269 214.146 260.376 214.208 260.494 214.228L281.828 215.308C281.957 215.312 282.082 215.266 282.177 215.178C282.271 215.091 282.327 214.97 282.333 214.842H282.302ZM272.257 230.644C272.264 230.58 272.259 230.516 272.241 230.454C272.223 230.392 272.193 230.334 272.152 230.284C272.112 230.234 272.062 230.193 272.005 230.163C271.948 230.133 271.886 230.114 271.822 230.108L255.506 228.5C255.443 228.494 255.379 228.5 255.318 228.518C255.257 228.537 255.201 228.567 255.152 228.607C255.103 228.648 255.062 228.698 255.032 228.754C255.002 228.81 254.984 228.872 254.978 228.935C254.967 229.063 255.007 229.189 255.088 229.288C255.169 229.387 255.286 229.45 255.413 229.463L271.729 231.079H271.775C271.9 231.088 272.024 231.047 272.12 230.966C272.216 230.885 272.276 230.769 272.288 230.644H272.257ZM251.785 239.066C251.893 238.995 251.968 238.884 251.994 238.757C252.021 238.63 251.996 238.499 251.925 238.39L243.86 226.2C243.787 226.095 243.675 226.023 243.549 225.998C243.423 225.974 243.292 225.999 243.185 226.068C243.077 226.14 243.001 226.251 242.975 226.377C242.949 226.504 242.974 226.636 243.045 226.744L251.109 238.934C251.155 239.001 251.217 239.055 251.288 239.093C251.36 239.131 251.44 239.151 251.521 239.152C251.626 239.157 251.73 239.127 251.816 239.066H251.785ZM270.291 243.145C270.289 243.017 270.238 242.895 270.148 242.804C270.059 242.713 269.937 242.659 269.81 242.656L250.627 242.477C250.5 242.477 250.377 242.528 250.287 242.618C250.197 242.708 250.146 242.831 250.146 242.958C250.144 243.023 250.155 243.087 250.178 243.146C250.201 243.206 250.237 243.261 250.282 243.307C250.327 243.352 250.381 243.388 250.44 243.413C250.499 243.437 250.563 243.449 250.627 243.448L269.81 243.627C269.875 243.63 269.941 243.62 270.002 243.597C270.064 243.574 270.12 243.539 270.168 243.494C270.216 243.45 270.254 243.395 270.281 243.335C270.307 243.275 270.321 243.211 270.322 243.145H270.291ZM244.552 271.829C244.591 271.743 247.862 262.731 257.697 260.579C257.824 260.551 257.935 260.474 258.004 260.365C258.074 260.256 258.098 260.123 258.07 259.996C258.039 259.872 257.961 259.765 257.852 259.697C257.744 259.629 257.613 259.605 257.488 259.631C247.116 261.9 243.674 271.417 243.635 271.51C243.595 271.633 243.604 271.766 243.661 271.882C243.717 271.998 243.817 272.088 243.938 272.132H244.094C244.197 272.141 244.3 272.116 244.389 272.061C244.477 272.007 244.545 271.925 244.583 271.829H244.552Z" fill="black"/>
<path d="M259.422 265.258H237.428V269.811H239.347L243.317 294.649H253.533L257.503 269.811H259.422V265.258Z" fill="#C78853"/>
<path opacity="0.3" d="M259.422 265.258H237.428V269.811H239.347L243.317 294.649H253.533L257.503 269.811H259.422V265.258Z" fill="white"/>
<path d="M61.4012 127.589L35.8172 119.237L33.5409 113.223L28.3433 113.06L18.9115 111.273L20.0458 113.223L31.9171 121.84L34.8461 123.3L61.6032 137.277L61.4012 127.589Z" fill="white" stroke="#263238" stroke-width="1.00396" stroke-miterlimit="10"/>
<path d="M33.5409 113.224L31.1014 111.764L26.2301 113.551L27.0381 114.522L33.5409 113.224Z" fill="white" stroke="#263238" stroke-width="1.00396" stroke-linejoin="round"/>
<path d="M61.4012 127.589L35.8172 119.237L33.5409 113.223L28.3433 113.06L18.9115 111.273L20.0458 113.223L31.9171 121.84L34.8461 123.3L61.6032 137.277L61.4012 127.589Z" fill="white"/>
<mask id="mask0_627_1445" style="mask-type:luminance" maskUnits="userSpaceOnUse" x="18" y="111" width="44" height="27">
<path d="M61.4012 127.591L35.8172 119.239L33.5409 113.225L28.3433 113.062L18.9115 111.275L20.0458 113.225L31.9171 121.841L34.8461 123.302L61.6032 137.279L61.4012 127.591Z" fill="white"/>
</mask>
<g mask="url(#mask0_627_1445)">
<path opacity="0.5" d="M61.4012 127.591L35.8172 119.239L33.5409 113.225L28.3433 113.062L18.9115 111.275L20.0458 113.225L31.9171 121.841L34.8461 123.302L61.6032 137.279L61.4012 127.591Z" fill="#C78853" stroke="#263238" stroke-width="1.00396" stroke-miterlimit="10"/>
</g>
<path d="M61.4012 127.589L35.8172 119.237L33.5409 113.223L28.3433 113.06L18.9115 111.273L20.0458 113.223L31.9171 121.84L34.8461 123.3L61.6032 137.277L61.4012 127.589Z" stroke="#263238" stroke-width="1.00396" stroke-miterlimit="10"/>
<path d="M33.5409 113.224L31.1014 111.764L26.2301 113.551L27.0381 114.522L33.5409 113.224Z" fill="white"/>
<mask id="mask1_627_1445" style="mask-type:luminance" maskUnits="userSpaceOnUse" x="26" y="111" width="8" height="4">
<path d="M33.5409 113.224L31.1014 111.764L26.2301 113.551L27.0381 114.522L33.5409 113.224Z" fill="white"/>
</mask>
<g mask="url(#mask1_627_1445)">
<path opacity="0.5" d="M33.5409 113.224L31.1014 111.764L26.2301 113.551L27.0381 114.522L33.5409 113.224Z" fill="#C78853" stroke="#263238" stroke-width="1.00396" stroke-linejoin="round"/>
</g>
<path d="M33.5409 113.224L31.1014 111.764L26.2301 113.551L27.0381 114.522L33.5409 113.224Z" stroke="#263238" stroke-width="1.00396" stroke-linejoin="round"/>
<path d="M66.8319 73.3831C66.8319 73.3831 66.4357 76.8792 67.4224 79.1245C68.4091 81.3698 73.8863 88.9758 73.8863 88.9758L63.6621 97.1723C63.6621 97.1723 59.4201 88.6262 58.6121 87.2433C57.8041 85.8604 56.833 79.9092 59.4667 75.6439C62.1005 71.3786 65.8919 70.2288 66.8319 73.3831Z" fill="white"/>
<mask id="mask2_627_1445" style="mask-type:luminance" maskUnits="userSpaceOnUse" x="57" y="71" width="17" height="27">
<path d="M66.8318 73.385C66.8318 73.385 66.4356 76.8812 67.4223 79.1265C68.4089 81.3718 73.8862 88.9778 73.8862 88.9778L63.662 97.1743C63.662 97.1743 59.42 88.6282 58.612 87.2453C57.804 85.8623 56.8329 79.9112 59.4666 75.6459C62.1004 71.3806 65.8917 70.2308 66.8318 73.385Z" fill="white"/>
</mask>
<g mask="url(#mask2_627_1445)">
<g style="mix-blend-mode:multiply" opacity="0.5">
<path d="M61.5798 84.6191L66.016 93.8178L63.6542 97.1819L59.1947 89.2185L61.5798 84.6191Z" fill="#C78853"/>
</g>
</g>
<path d="M66.8319 73.3831C66.8319 73.3831 66.4357 76.8792 67.4224 79.1245C68.4091 81.3698 73.8863 88.9758 73.8863 88.9758L63.6621 97.1723C63.6621 97.1723 59.4201 88.6262 58.6121 87.2433C57.8041 85.8604 56.833 79.9092 59.4667 75.6439C62.1005 71.3786 65.8919 70.2288 66.8319 73.3831Z" stroke="#263238" stroke-width="1.00396" stroke-miterlimit="10"/>
<path d="M70.0017 66.9816C69.3724 63.097 64.9206 55.1957 57.8585 55.4987C53.2746 55.7007 51.1303 56.6252 49.1414 57.7518C47.5202 58.7069 46.0091 59.8377 44.6353 61.1236C41.1858 65.2646 39.9738 66.3989 40.6419 69.5687C40.5871 70.833 40.7852 72.0956 41.2246 73.2823C42.2812 76.1026 43.0038 77.9439 43.9205 79.2879C43.6409 80.6009 42.9105 84.066 42.8717 84.8584C42.8329 85.6509 45.2025 85.0993 46.3989 84.7963C48.6209 89.7686 52.6919 93.2181 53.9583 93.6143C56.1648 94.3058 59.6531 90.6775 61.5022 87.8651C63.3513 85.0527 61.9528 81.8906 61.9606 80.632C61.9684 79.3734 66.1171 76.6076 67.6554 75.7296C69.1937 74.8517 70.6232 70.8584 70.0017 66.9816Z" fill="white"/>
<mask id="mask3_627_1445" style="mask-type:luminance" maskUnits="userSpaceOnUse" x="40" y="55" width="31" height="39">
<path d="M70.0016 66.9796C69.3723 63.095 64.9205 55.1938 57.8583 55.4968C53.2745 55.6988 51.1302 56.6233 49.1413 57.7498C47.5201 58.705 46.0089 59.8357 44.6352 61.1216C41.1857 65.2626 39.9737 66.3969 40.6418 69.5667C40.587 70.8311 40.7851 72.0936 41.2245 73.2804C42.2811 76.1006 43.0037 77.9419 43.9204 79.286C43.6407 80.599 42.9104 84.064 42.8716 84.8565C42.8327 85.6489 45.2023 85.0973 46.3988 84.7943C48.6208 89.7666 52.6918 93.2161 53.9582 93.6123C56.1646 94.3038 59.653 90.6756 61.5021 87.8631C63.3511 85.0507 61.9527 81.8887 61.9605 80.63C61.9682 79.3714 66.117 76.6056 67.6553 75.7277C69.1936 74.8498 70.6231 70.8564 70.0016 66.9796Z" fill="white"/>
</mask>
<g mask="url(#mask3_627_1445)">
<g style="mix-blend-mode:multiply" opacity="0.5">
<path d="M40.6729 69.5689C40.6181 70.8332 40.8162 72.0957 41.2556 73.2825C42.3122 76.1027 43.0347 77.944 43.9515 79.2881C43.6718 80.6011 42.9415 84.0661 42.9026 84.8586C42.8638 85.6511 45.2334 85.0994 46.4298 84.7964C48.6518 89.7687 52.7229 93.2182 53.9892 93.6145C56.1957 94.3059 59.6841 90.6777 61.5331 87.8653C61.9951 87.1631 62.295 86.367 62.411 85.5345C62.31 85.1694 62.2401 84.9441 62.2401 84.9441C62.2401 84.9441 61.1991 88.9452 59.1324 88.4247C57.0658 87.9041 53.9038 83.7632 52.1402 82.3336C50.3766 80.9041 51.0991 79.024 50.7495 76.8952C50.3999 74.7664 45.179 72.8941 44.8294 71.6743C44.4798 70.4545 45.6995 65.4046 45.6995 65.4046C45.6995 65.4046 47.6807 62.7631 47.2534 63.8507C46.9514 64.7939 46.8418 65.788 46.9312 66.7743C47.0206 67.7605 47.3072 68.7187 47.7739 69.5922C48.1014 70.2813 48.6209 70.8613 49.2701 71.2624C49.9192 71.6634 50.6703 71.8685 51.4332 71.853L53.3289 62.4601L49.3277 59.1504L44.6662 61.0927C41.1856 65.2647 39.997 66.399 40.6729 69.5689Z" fill="#C78853"/>
</g>
</g>
<path d="M70.0017 66.9816C69.3724 63.097 64.9206 55.1957 57.8585 55.4987C53.2746 55.7007 51.1303 56.6252 49.1414 57.7518C47.5202 58.7069 46.0091 59.8377 44.6353 61.1236C41.1858 65.2646 39.9738 66.3989 40.6419 69.5687C40.5871 70.833 40.7852 72.0956 41.2246 73.2823C42.2812 76.1026 43.0038 77.9439 43.9205 79.2879C43.6409 80.6009 42.9105 84.066 42.8717 84.8584C42.8329 85.6509 45.2025 85.0993 46.3989 84.7963C48.6209 89.7686 52.6919 93.2181 53.9583 93.6143C56.1648 94.3058 59.6531 90.6775 61.5022 87.8651C63.3513 85.0527 61.9528 81.8906 61.9606 80.632C61.9684 79.3734 66.1171 76.6076 67.6554 75.7296C69.1937 74.8517 70.6232 70.8584 70.0017 66.9816Z" stroke="#263238" stroke-miterlimit="10"/>
<path d="M44.8839 76.9414L45.6608 79.1634C45.6608 79.1634 47.3312 79.715 49.3667 77.493" stroke="#263238" stroke-miterlimit="10" stroke-linecap="round"/>
<path d="M50.6254 87.3204C50.6254 87.3204 52.4744 87.134 53.2203 84.5391" stroke="#263238" stroke-miterlimit="10" stroke-linecap="round"/>
<path d="M43.5864 75.0864C43.5864 75.0864 44.138 73.416 47.471 73.416" stroke="#263238" stroke-miterlimit="10" stroke-linecap="round"/>
<path d="M60.6709 52.4069C58.2491 52.0586 55.8068 51.8717 53.3601 51.8475C53.3601 51.8475 46.0416 47.6288 39.0104 52.1272C31.9793 56.6255 35.3589 64.5035 35.3589 66.4691C35.3589 68.4347 33.1059 68.4425 34.5121 70.9752C35.9183 73.508 40.6731 72.1095 40.6731 72.1095C40.7233 71.1542 40.9757 70.2205 41.4137 69.3701C41.8516 68.5196 42.4651 67.7718 43.2136 67.1761C45.7463 65.2105 47.7663 64.7832 48.6054 65.3503C48.6054 65.3503 48.046 69.569 48.8851 71.2549C48.8851 71.2549 51.6975 72.6611 52.5444 72.6611C53.3912 72.6611 51.9927 73.8498 54.7974 74.9064C55.3084 75.0899 55.855 75.1525 56.3942 75.0891C56.9334 75.0257 57.4506 74.8382 57.9051 74.5413C58.3169 72.8321 59.2181 70.2604 60.8962 70.8587C63.3591 71.7366 65.6044 77.7965 62.2714 79.8632C66.2803 80.5935 71.136 73.5002 71.4235 67.0362C71.7109 60.5723 64.8352 53.1372 60.6709 52.4069Z" fill="#263238"/>
<path d="M48.7297 62.5777C48.7297 62.5777 50.7963 61.4667 53.3291 63.844C55.8618 66.2214 60.7875 69.399 67.3136 67.6509" stroke="white" stroke-width="0.5" stroke-linecap="round" stroke-linejoin="round"/>
<path d="M48.4421 60.6732C48.4421 60.6732 49.8639 58.4512 52.2413 58.4512C54.6186 58.4512 60.1736 61.7842 64.6098 61.7842" stroke="white" stroke-width="0.5" stroke-linecap="round" stroke-linejoin="round"/>
<path d="M46.8262 64.9531C46.8262 64.9531 44.1303 61.6279 41.5976 64.3238C39.0648 67.0197 40.673 69.568 40.673 69.568" stroke="white" stroke-width="0.5" stroke-linecap="round" stroke-linejoin="round"/>
<path d="M36.0504 67.1762C37.5953 65.783 38.5557 63.8567 38.7386 61.7844C39.0571 58.296 43.8196 55.2816 46.8263 58.1407" stroke="white" stroke-width="0.5" stroke-linecap="round" stroke-linejoin="round"/>
<path d="M40.9604 54.4884C40.9604 54.4884 45.723 49.889 49.6852 55.7547" stroke="white" stroke-width="0.5" stroke-linecap="round" stroke-linejoin="round"/>
<path d="M79.721 280.627C79.721 280.627 82.65 285.18 82.3237 288.109L82.0051 291.038C82.0051 291.038 71.2604 293.982 68.984 293.982C66.7076 293.982 54.6576 292.84 54.6576 292.84L54.1371 290.773C54.1007 290.621 54.1178 290.46 54.1857 290.319C54.2536 290.177 54.3681 290.064 54.51 289.997L65.2548 284.985L68.6422 281.28L79.721 280.627Z" fill="white" stroke="#263238" stroke-width="1.00396" stroke-miterlimit="10"/>
<path d="M70.6155 291.69C73.5289 291.915 79.0606 290.136 82.2693 289.002L82.044 291.037C82.044 291.037 71.2603 293.982 68.984 293.982C66.7076 293.982 54.6576 292.84 54.6576 292.84L54.2847 291.364C56.2114 291.372 66.762 291.395 70.6155 291.69Z" fill="#C78853" stroke="#263238" stroke-width="1.00396" stroke-miterlimit="10"/>
<path d="M65.2703 284.986L49.6309 291.792C49.6309 291.792 48.2946 295.14 49.6309 295.809C50.9672 296.477 80.1016 295.809 80.1016 295.809C80.1016 295.809 82.1138 290.518 78.9363 286.967C75.7587 283.417 65.2703 284.986 65.2703 284.986Z" fill="white" stroke="#263238" stroke-width="1.00396" stroke-miterlimit="10"/>
<path d="M80.1016 295.806C80.1016 295.806 50.9672 296.474 49.6309 295.806C48.986 295.48 48.9627 294.54 49.1104 293.646H80.6144C80.5114 294.381 80.3398 295.104 80.1016 295.806Z" fill="#C78853" stroke="#263238" stroke-width="1.00396" stroke-miterlimit="10"/>
<path d="M57.874 166.73C57.874 166.73 53.7874 184.84 52.2414 196.168C50.6953 207.495 49.7863 230.189 50.1126 232.792C50.4389 235.394 66.7076 279.003 66.7076 279.003L68.3313 282.887L79.7209 280.611C79.7209 280.611 74.5156 264.016 72.5655 254.903C70.6155 245.79 66.3502 230.818 66.3502 228.216C66.3502 225.613 76.4501 175.906 77.1727 172.643C77.8952 169.38 81.1738 164.369 81.1738 164.369L59.3657 163.926L57.874 166.73Z" fill="#C78853" stroke="#263238" stroke-width="1.00396" stroke-miterlimit="10"/>
<path d="M57.874 166.731C57.874 166.731 55.4811 183.272 56.4678 194.77C57.4545 206.269 59.5755 230.749 59.5755 234.393C59.5755 238.037 65.4568 259.798 65.7908 266.635C66.3114 276.51 65.5811 281.397 65.5811 281.397L65.2314 284.978C65.2314 284.978 72.0916 285.957 73.5911 286.384C75.323 286.831 77.1102 287.024 78.8974 286.959C78.8974 286.959 81.3914 275.982 81.3914 266.627C81.3914 257.273 79.317 238.021 78.2837 230.221C77.2504 222.421 80.5057 192.331 82.3547 186.714C84.2038 181.097 88.2438 169.202 85.5245 163.126C82.8053 157.051 57.874 166.731 57.874 166.731Z" fill="#C78853" stroke="#263238" stroke-width="1.00396" stroke-miterlimit="10"/>
<path d="M88.5467 160.08L88.2981 167.476C88.2981 167.476 83.8697 168.354 77.903 169.388C72.9773 170.242 60.6088 169.162 56.4445 168.758C56.065 168.725 55.7141 168.543 55.4683 168.252C55.2224 167.961 55.1013 167.584 55.1315 167.204L55.5355 160.523L88.5467 160.08Z" fill="#263238"/>
<path d="M71.237 86.3516C71.237 86.3516 64.2447 93.911 61.611 98.6113C58.9772 103.312 57.9361 110.514 56.9495 116.185C55.9628 121.857 58.6354 135.173 57.8818 141.287L55.4966 160.547C55.4966 160.547 54.9839 161.852 56.7008 163.282C58.4178 164.711 66.8008 165.232 74.3757 165.613C77.1416 165.753 85.4002 163.973 86.752 163.888C88.3836 163.787 88.438 161.713 88.5079 160.081C88.8342 152.413 90.2171 131.972 91.1261 123.069C92.9985 104.912 82.7509 87.3849 71.237 86.3516Z" fill="white" stroke="#263238" stroke-width="1.00396" stroke-miterlimit="10"/>
<g style="mix-blend-mode:multiply">
<path d="M90.2715 133.393C90.5822 129.361 90.893 125.702 91.1649 123.068C91.2426 122.291 91.2892 121.514 91.3281 120.737L72.752 123.845L56.7941 118.406C56.7958 121.708 56.9826 125.008 57.3534 128.289L73.0083 132.67L90.2715 133.393Z" fill="#C78853"/>
</g>
<g style="mix-blend-mode:multiply">
<path d="M70.5455 87.1113C69.4889 88.2845 67.3912 90.6696 65.3945 93.2024L77.1881 105.19L81.0727 103.636L70.5455 87.1113Z" fill="#C78853"/>
</g>
<path d="M71.2369 86.3516C71.2369 86.3516 64.2447 93.911 61.6109 98.6113C60.83 100.04 60.1974 101.545 59.723 103.102L73.7852 86.8566C72.9545 86.6049 72.1009 86.4357 71.2369 86.3516Z" fill="#263238"/>
<g style="mix-blend-mode:multiply">
<path d="M57.4933 113.124L72.752 118.143L91.2815 116.015C90.991 111.399 89.9655 106.859 88.2437 102.566L73.3036 108.556L59.9483 102.504C58.8563 105.975 58.0355 109.526 57.4933 113.124Z" fill="#C78853"/>
</g>
<g style="mix-blend-mode:multiply">
<path d="M83.7608 152.412C76.0217 153.711 68.0808 153.063 60.6553 150.524L56.9339 149.25L55.7762 158.573L60.0182 159.762C68.0824 162.016 76.5108 162.666 84.8252 161.673L88.2514 161.261C88.4297 160.884 88.5301 160.474 88.5466 160.057C88.6399 157.983 88.803 154.968 89.0128 151.511L83.7608 152.412Z" fill="#C78853"/>
</g>
<g style="mix-blend-mode:multiply">
<path d="M85.8353 139.717C78.0959 141.021 70.1531 140.37 62.7298 137.821L57.9906 136.197C58.1081 137.89 58.0847 139.589 57.9206 141.278L57.369 145.761L62.0927 147.082C70.1537 149.339 78.5796 149.991 86.8919 149.001L89.2227 148.721C89.4169 145.614 89.6422 142.304 89.883 139.033L85.8353 139.717Z" fill="#C78853"/>
</g>
<path d="M12.9458 106.861L27.9678 118.939L28.6152 118.134L13.5932 106.056L12.9458 106.861Z" fill="#263238"/>
<path d="M78.4701 94.7344C78.4701 94.7344 83.9784 98.4869 84.1027 107.352C84.1571 111.236 83.7531 114.864 82.8596 121.227C81.9662 127.59 76.419 148.311 72.0993 150.828C67.7797 153.345 61.0749 148.59 61.0749 148.59L28.6463 127.062L20.8072 120.73L16.9226 113.396L18.1424 111.065L27.7062 118.399L22.5553 113.637L23.5653 112.355L25.4299 113.652L30.8683 115.688L32.057 123.457L33.7351 124.607L64.7575 135.942C64.7575 135.942 64.369 119.246 64.6565 116.053C64.9439 112.86 65.3401 104.834 68.7586 99.0152" fill="white"/>
<mask id="mask4_627_1445" style="mask-type:luminance" maskUnits="userSpaceOnUse" x="16" y="94" width="69" height="58">
<path d="M78.4701 94.7344C78.4701 94.7344 83.9784 98.4869 84.1027 107.352C84.1571 111.236 83.7531 114.864 82.8596 121.227C81.9662 127.59 76.419 148.311 72.0993 150.828C67.7797 153.345 61.0749 148.59 61.0749 148.59L28.6463 127.062L20.8072 120.73L16.9226 113.396L18.1424 111.065L27.7062 118.399L22.5553 113.637L23.5653 112.355L25.4299 113.652L30.8683 115.688L32.057 123.457L33.7351 124.607L64.7575 135.942C64.7575 135.942 64.369 119.246 64.6565 116.053C64.9439 112.86 65.3401 104.834 68.7586 99.0152" fill="white"/>
</mask>
<g mask="url(#mask4_627_1445)">
<g style="mix-blend-mode:multiply" opacity="0.5">
<path d="M64.5399 123.326C64.5399 129.091 64.7341 135.943 64.7341 135.943L33.7429 124.655L32.0647 123.505L30.876 115.736L25.4376 113.7L23.5808 112.379L22.5708 113.661L27.7062 118.401L18.1423 111.066L16.9847 113.358L20.8693 120.692L28.7084 127.063L30.6818 128.376L73.5288 142.182L64.5399 123.326Z" fill="#C78853"/>
</g>
</g>
<path d="M78.4701 94.7344C78.4701 94.7344 83.9784 98.4869 84.1027 107.352C84.1571 111.236 83.7531 114.864 82.8596 121.227C81.9662 127.59 76.419 148.311 72.0993 150.828C67.7797 153.345 61.0749 148.59 61.0749 148.59L28.6463 127.062L20.8072 120.73L16.9226 113.396L18.1424 111.065L27.7062 118.399L22.5553 113.637L23.5653 112.355L25.4299 113.652L30.8683 115.688L32.057 123.457L33.7351 124.607L64.7575 135.942C64.7575 135.942 64.369 119.246 64.6565 116.053C64.9439 112.86 65.3401 104.834 68.7586 99.0152" stroke="#263238" stroke-width="1.00396" stroke-miterlimit="10"/>
<path d="M64.7575 135.942L76.5977 144.488L79.6666 139.05C79.6666 139.05 81.7875 137.379 82.0983 136.121C82.4091 134.862 82.0128 132.819 82.3314 131.56C82.6499 130.302 84.2348 129.121 84.3824 126.075C84.5301 123.03 84.3824 120.489 84.3824 120.489C84.3824 120.489 86.9463 109.946 86.6666 105.363C86.3869 100.779 81.9662 92.6755 78.4235 92.4968C74.8807 92.3181 70.2736 92.8542 66.6998 98.2615C63.126 103.669 63.8563 119.456 63.2969 120.443C62.7375 121.429 63.5144 126.3 63.5144 126.3C63.2039 126.532 62.9463 126.827 62.7588 127.166C62.5712 127.505 62.458 127.88 62.4267 128.266C62.3646 129.532 63.732 132.648 63.732 132.648L64.7575 135.942Z" fill="white" stroke="#263238" stroke-width="1.00396" stroke-miterlimit="10"/>
<g style="mix-blend-mode:multiply">
<path d="M63.6076 116.387C63.632 117.742 63.5306 119.097 63.3046 120.434C62.8074 121.32 63.3745 125.321 63.4988 126.137C70.1584 128.205 77.2004 128.737 84.0949 127.691C84.2431 127.151 84.3316 126.596 84.3591 126.036C84.5145 122.998 84.3591 120.45 84.3591 120.45C84.3591 120.45 84.5844 119.51 84.8952 118.08C77.7549 118.534 70.5863 117.964 63.6076 116.387Z" fill="#C78853"/>
</g>
<g style="mix-blend-mode:multiply">
<path d="M66.2181 99.123C65.1071 101.353 64.4856 104.701 64.1282 108.096C71.1811 110.788 78.7854 111.714 86.2781 110.792C86.5771 108.996 86.7097 107.175 86.6743 105.354C86.5398 103.914 86.1997 102.502 85.6643 101.159C79.122 101.311 72.587 100.627 66.2181 99.123Z" fill="#C78853"/>
</g>
<path d="M63.7319 132.732L64.7342 135.941L76.5744 144.487L79.6432 139.049C79.6432 139.049 81.7642 137.378 82.075 136.12C82.1304 135.901 82.1642 135.677 82.176 135.452C75.9365 135.344 69.7371 134.43 63.7319 132.732Z" fill="#263238"/>
<path d="M72.3013 286.281C72.3013 286.281 72.5655 279.553 73.8552 269.718C75.1449 259.882 72.045 245.913 71.5244 243.582C71.0039 241.251 71.7886 236.077 71.268 234.259C70.7475 232.441 68.2303 224.687 69.7142 215.691C71.1981 206.694 72.4023 182.912 72.4023 182.912C72.4023 182.912 68.6653 179.875 67.5699 175.92C66.4744 171.966 67.3135 170.723 67.3135 170.723" stroke="#263238" stroke-width="1.00396" stroke-miterlimit="10"/>
<path d="M74.0339 171.09L72.5966 179.045" stroke="#263238" stroke-width="1.00396" stroke-miterlimit="10"/>
</svg>
