<svg width="661" height="630" viewBox="0 0 661 630" fill="none" xmlns="http://www.w3.org/2000/svg">
<g clip-path="url(#clip0_892_1219)">
<path d="M329 192.467H305.737V219.538H329V192.467Z" fill="white" stroke="#1C1916" stroke-linecap="round" stroke-linejoin="round"/>
<path d="M356.042 192.467H332.78V219.538H356.042V192.467Z" fill="white" stroke="#1C1916" stroke-linecap="round" stroke-linejoin="round"/>
<path d="M383.073 192.467H359.811V219.538H383.073V192.467Z" fill="white" stroke="#1C1916" stroke-linecap="round" stroke-linejoin="round"/>
<path d="M329 192.467H305.737V202.248H329V192.467Z" fill="white" stroke="#1C1916" stroke-linecap="round" stroke-linejoin="round"/>
<path d="M356.042 192.467H332.78V202.248H356.042V192.467Z" fill="white" stroke="#1C1916" stroke-linecap="round" stroke-linejoin="round"/>
<path d="M383.073 192.467H359.811V202.248H383.073V192.467Z" fill="white" stroke="#1C1916" stroke-linecap="round" stroke-linejoin="round"/>
<path d="M360.673 292.297H337.411V319.368H360.673V292.297Z" fill="white" stroke="#1C1916" stroke-linecap="round" stroke-linejoin="round"/>
<path d="M387.716 292.297H364.454V319.368H387.716V292.297Z" fill="white" stroke="#1C1916" stroke-linecap="round" stroke-linejoin="round"/>
<path d="M414.747 292.297H391.484V319.368H414.747V292.297Z" fill="white" stroke="#1C1916" stroke-linecap="round" stroke-linejoin="round"/>
<path d="M360.673 292.297H337.411V302.079H360.673V292.297Z" fill="white" stroke="#1C1916" stroke-linecap="round" stroke-linejoin="round"/>
<path d="M387.716 292.297H364.454V302.079H387.716V292.297Z" fill="white" stroke="#1C1916" stroke-linecap="round" stroke-linejoin="round"/>
<path d="M414.747 292.297H391.484V302.079H414.747V292.297Z" fill="white" stroke="#1C1916" stroke-linecap="round" stroke-linejoin="round"/>
<path d="M429.473 192.467H406.211V219.538H429.473V192.467Z" fill="white" stroke="#1C1916" stroke-linecap="round" stroke-linejoin="round"/>
<path d="M456.516 192.467H433.254V219.538H456.516V192.467Z" fill="white" stroke="#1C1916" stroke-linecap="round" stroke-linejoin="round"/>
<path d="M483.547 192.467H460.285V219.538H483.547V192.467Z" fill="white" stroke="#1C1916" stroke-linecap="round" stroke-linejoin="round"/>
<path d="M429.473 192.467H406.211V202.248H429.473V192.467Z" fill="white" stroke="#1C1916" stroke-linecap="round" stroke-linejoin="round"/>
<path d="M456.516 192.467H433.254V202.248H456.516V192.467Z" fill="white" stroke="#1C1916" stroke-linecap="round" stroke-linejoin="round"/>
<path d="M483.547 192.467H460.285V202.248H483.547V192.467Z" fill="white" stroke="#1C1916" stroke-linecap="round" stroke-linejoin="round"/>
<path d="M532.043 192.467H508.781V219.538H532.043V192.467Z" fill="white" stroke="#1C1916" stroke-linecap="round" stroke-linejoin="round"/>
<path d="M559.087 192.467H535.825V219.538H559.087V192.467Z" fill="white" stroke="#1C1916" stroke-linecap="round" stroke-linejoin="round"/>
<path d="M586.117 192.467H562.854V219.538H586.117V192.467Z" fill="white" stroke="#1C1916" stroke-linecap="round" stroke-linejoin="round"/>
<path d="M532.043 192.467H508.781V202.248H532.043V192.467Z" fill="white" stroke="#1C1916" stroke-linecap="round" stroke-linejoin="round"/>
<path d="M559.087 192.467H535.825V202.248H559.087V192.467Z" fill="white" stroke="#1C1916" stroke-linecap="round" stroke-linejoin="round"/>
<path d="M586.117 192.467H562.854V202.248H586.117V192.467Z" fill="white" stroke="#1C1916" stroke-linecap="round" stroke-linejoin="round"/>
<path d="M573.978 265.829V243.471H565.128V265.829L557.799 277.035V321.381H581.308V277.035L573.978 265.829Z" fill="white" stroke="#1C1916" stroke-linecap="round" stroke-linejoin="round"/>
<path d="M573.965 243.471H565.129V255.143H573.965V243.471Z" fill="white" stroke="#1C1916" stroke-linecap="round" stroke-linejoin="round"/>
<path d="M575.965 288.256H557.799V306.956H575.965V288.256Z" fill="white" stroke="#1C1916" stroke-linecap="round" stroke-linejoin="round"/>
<path d="M543.524 265.829V243.471H534.688V265.829L527.358 277.035V321.381H550.853V277.035L543.524 265.829Z" fill="white" stroke="#1C1916" stroke-linecap="round" stroke-linejoin="round"/>
<path d="M543.524 243.471H534.688V255.143H543.524V243.471Z" fill="white" stroke="#1C1916" stroke-linecap="round" stroke-linejoin="round"/>
<path d="M545.524 288.256H527.358V306.956H545.524V288.256Z" fill="white" stroke="#1C1916" stroke-linecap="round" stroke-linejoin="round"/>
<path d="M325.369 265.829V243.471H316.533V265.829L309.203 277.035V321.381H332.712V277.035L325.369 265.829Z" fill="white" stroke="#1C1916" stroke-linecap="round" stroke-linejoin="round"/>
<path d="M325.369 243.471H316.532V255.143H325.369V243.471Z" fill="white" stroke="#1C1916" stroke-linecap="round" stroke-linejoin="round"/>
<path d="M327.369 288.256H309.203V306.956H327.369V288.256Z" fill="white" stroke="#1C1916" stroke-linecap="round" stroke-linejoin="round"/>
<path d="M295.695 220.553H595.556" stroke="#1C1916" stroke-width="4" stroke-linecap="round" stroke-linejoin="round"/>
<path d="M394.744 121.844V322.436" stroke="#1C1916" stroke-width="4" stroke-linecap="round" stroke-linejoin="round"/>
<path d="M498.507 121.844V322.436" stroke="#1C1916" stroke-width="4" stroke-linecap="round" stroke-linejoin="round"/>
<path d="M597.665 119.229H295.257V322.615H597.665V119.229Z" stroke="#1C1916" stroke-width="4" stroke-linecap="round" stroke-linejoin="round"/>
<path d="M248.02 240.047H65.9775V376.154H248.02V240.047Z" fill="white" stroke="#1C1916" stroke-linecap="round" stroke-linejoin="round"/>
<path d="M248.02 282.447H65.9775V288.653H248.02V282.447Z" fill="white" stroke="#1C1916" stroke-linecap="round" stroke-linejoin="round"/>
<path d="M73.4434 322.807C73.4434 322.807 82.8963 310.806 96.733 311.532C110.57 312.258 113.173 323.176 113.173 323.176H69.0869L73.4434 322.807Z" fill="white" stroke="#1C1916" stroke-linecap="round" stroke-linejoin="round"/>
<path d="M85.4453 324.26C85.4453 324.26 87.9935 311.506 96.7202 311.506" stroke="#1C1916" stroke-linecap="round" stroke-linejoin="round"/>
<path d="M98.8984 323.533C98.8984 323.533 99.9944 313.724 107.639 315.176" stroke="#1C1916" stroke-linecap="round" stroke-linejoin="round"/>
<path d="M136.367 322.807C136.367 322.807 145.82 310.806 159.657 311.532C173.494 312.258 176.097 323.176 176.097 323.176H131.997L136.367 322.807Z" fill="white" stroke="#1C1916" stroke-linecap="round" stroke-linejoin="round"/>
<path d="M148.368 324.26C148.368 324.26 150.903 311.533 159.629 311.533" stroke="#1C1916" stroke-linecap="round" stroke-linejoin="round"/>
<path d="M161.821 323.533C161.821 323.533 162.904 313.724 170.548 315.176" stroke="#1C1916" stroke-linecap="round" stroke-linejoin="round"/>
<path d="M199.276 322.807C199.276 322.807 208.729 310.806 222.566 311.532C236.403 312.258 238.924 323.176 238.924 323.176H194.906L199.276 322.807Z" fill="white" stroke="#1C1916" stroke-linecap="round" stroke-linejoin="round"/>
<path d="M211.276 324.26C211.276 324.26 213.825 311.533 222.551 311.533" stroke="#1C1916" stroke-linecap="round" stroke-linejoin="round"/>
<path d="M224.73 323.533C224.73 323.533 225.826 313.724 233.457 315.176" stroke="#1C1916" stroke-linecap="round" stroke-linejoin="round"/>
<path d="M248.02 323.191H65.9775V329.397H248.02V323.191Z" fill="white" stroke="#1C1916" stroke-linecap="round" stroke-linejoin="round"/>
<path d="M248.02 240.047H65.9775V246.225H248.02V240.047Z" fill="white" stroke="#1C1916" stroke-linecap="round" stroke-linejoin="round"/>
<path d="M248.02 358.111H65.9775V376.14H248.02V358.111Z" fill="white" stroke="#1C1916" stroke-linecap="round" stroke-linejoin="round"/>
<path d="M100.72 260.98H75.9922V282.804H100.72V260.98Z" fill="white" stroke="#1C1916" stroke-linecap="round" stroke-linejoin="round"/>
<path d="M100.72 260.98H75.9922V264.186H100.72V260.98Z" fill="white" stroke="#1C1916" stroke-linecap="round" stroke-linejoin="round"/>
<path d="M198.906 260.98H122.899V282.804H198.906V260.98Z" fill="white" stroke="#1C1916" stroke-linecap="round" stroke-linejoin="round"/>
<path d="M198.906 260.98H122.899V264.186H198.906V260.98Z" fill="white" stroke="#1C1916" stroke-linecap="round" stroke-linejoin="round"/>
<path d="M178.905 260.98H158.177V282.804H178.905V260.98Z" fill="white" stroke="#1C1916" stroke-linecap="round" stroke-linejoin="round"/>
<path d="M178.905 260.98H158.177V264.186H178.905V260.98Z" fill="white" stroke="#1C1916" stroke-linecap="round" stroke-linejoin="round"/>
<path d="M442.076 472.025L461.557 603.42L459.05 607.187V613.79C459.05 613.79 446.72 624.75 446.474 626.12C446.304 627.265 446.304 628.428 446.474 629.573H482.627C482.627 629.573 482.627 624.545 482.312 621.709C481.997 618.873 481.052 619.517 481.367 616.051C481.682 612.585 483.258 606.625 482.943 603.488C482.627 600.351 480.737 600.337 480.422 594.994C480.107 589.651 476.312 471.148 476.312 471.148L442.076 472.025Z" fill="#1C1916" stroke="#1C1916" stroke-linecap="round" stroke-linejoin="round"/>
<path d="M517.59 472.025L498.095 603.42L500.616 607.187V613.79C500.616 613.79 512.864 624.75 513.179 626.12C513.349 627.265 513.349 628.428 513.179 629.573H477.039C477.039 629.573 477.039 624.545 477.354 621.709C477.669 618.873 478.601 619.517 478.299 616.051C477.998 612.585 476.409 606.625 476.724 603.488C477.039 600.351 478.916 600.337 479.231 594.994C479.546 589.651 483.341 471.148 483.341 471.148L517.59 472.025Z" fill="#1C1916" stroke="#1C1916" stroke-linecap="round" stroke-linejoin="round"/>
<path d="M536.236 339.768L540.551 373.154C540.551 373.154 535.989 376.99 531.674 374.839C527.358 372.688 520.385 364.756 519.906 363.55C519.426 362.345 517.741 341.644 517.741 341.644L536.236 339.768Z" fill="#B5B5B5" stroke="#1C1916" stroke-linecap="round" stroke-linejoin="round"/>
<path d="M536.236 339.768L517.741 341.686C517.741 341.686 518.015 344.96 518.371 348.974H537.428L536.236 339.768Z" fill="#1C1916" stroke="#1C1916" stroke-linecap="round" stroke-linejoin="round"/>
<path d="M422.445 339.287L419.568 371.687C419.568 371.687 418.609 382.482 418.609 387.524C418.609 392.565 418.719 436.597 418.719 436.597C418.719 436.597 417.034 448.598 418.239 450.296C419.445 451.995 424.473 458.694 424.473 458.694C424.473 458.694 429.514 460.133 430.24 460.379C430.966 460.626 433.117 457.502 431.912 457.009C430.738 456.609 429.539 456.289 428.322 456.05L424.473 448.132L427.363 440.446C427.363 440.446 429.514 450.296 429.514 451.255C429.514 452.214 430.72 454.379 431.432 451.488C432.145 448.598 431.199 446.214 431.912 442.611C432.624 439.008 431.199 436.172 429.747 433.432C428.295 430.692 427.583 429.596 427.583 429.596C427.583 429.596 436.364 380.277 437.076 378.126C437.789 375.975 440.707 339.52 440.707 339.52L422.445 339.287Z" fill="#B5B5B5" stroke="#1C1916" stroke-linecap="round" stroke-linejoin="round"/>
<path d="M421.595 348.973H439.925C440.377 343.493 440.692 339.52 440.692 339.52L422.444 339.287L421.595 348.973Z" fill="#1C1916" stroke="#1C1916" stroke-linecap="round" stroke-linejoin="round"/>
<path d="M517.33 343.139L546.565 341.248C546.565 341.248 534.619 296.614 534.619 295.368C534.619 294.121 498.78 266.762 498.78 266.762L496.574 266.447L479.285 269.037L461.996 266.42L459.804 266.735C459.804 266.735 423.966 294.135 423.966 295.34C423.966 296.546 412.02 341.221 412.02 341.221L441.255 343.111L438.748 377.361C438.748 377.361 434.967 400.308 436.227 414.46C437.487 428.611 435.83 477.013 435.83 477.013H522.741C522.741 477.013 522.357 427.337 522.357 414.46C522.357 400.253 519.206 377.361 519.206 377.361L517.33 343.139Z" fill="white" stroke="#1C1916" stroke-linecap="round" stroke-linejoin="round"/>
<path d="M508.205 274.296L506.903 272.926L504.273 270.898L510.726 303.778H448.488L453.831 272.036L450.378 274.543C450.378 274.543 442.83 301.942 442.515 305.353C442.199 308.765 441.254 343.069 441.254 343.069L438.747 377.318C438.747 377.318 434.966 400.265 436.226 414.417C437.487 428.569 435.829 476.97 435.829 476.97H522.74C522.74 476.97 522.357 427.295 522.357 414.417C522.357 400.211 519.206 377.318 519.206 377.318L517.329 343.069L518.589 307.86L508.205 274.296Z" fill="#C78853" stroke="#1C1916" stroke-linecap="round" stroke-linejoin="round"/>
<path d="M462.23 253.967C460.293 255.774 458.906 258.092 458.229 260.653C456.859 265.201 452.352 290.792 454.215 290.587C456.078 290.381 468.915 281.764 470.258 280.997C471.6 280.23 480.135 287.408 480.135 287.408C480.135 287.408 487.629 280.463 489.492 279.928C491.355 279.394 505.261 289.518 505.535 287.148C505.809 284.778 497.52 259.351 494.301 255.639C491.081 251.926 483.081 251.625 483.081 251.625C483.081 251.625 471.326 247.816 462.23 253.967Z" fill="white" stroke="#1C1916" stroke-linecap="round" stroke-linejoin="round"/>
<path d="M460.092 245.938C460.092 245.938 463.298 265.981 463.832 268.392C464.366 270.803 479.066 287.64 480.135 287.366C481.203 287.092 490.56 265.72 490.834 264.378C491.108 263.035 492.437 245.746 492.437 245.746L460.092 245.938Z" fill="#B5B5B5" stroke="#1C1916" stroke-linecap="round" stroke-linejoin="round"/>
<path d="M482.19 245.746L460.092 245.924C460.092 245.924 462.434 260.501 463.448 266.282L478.038 260.802L482.19 245.746Z" fill="#1C1916" stroke="#1C1916" stroke-linecap="round" stroke-linejoin="round"/>
<path d="M454.215 224.291C454.215 224.291 448.338 221.345 448.338 228.305C448.402 230.565 448.991 232.778 450.059 234.771C451.126 236.764 452.643 238.48 454.489 239.785C455.284 240.333 454.215 224.291 454.215 224.291Z" fill="#B5B5B5" stroke="#1C1916" stroke-linecap="round" stroke-linejoin="round"/>
<path d="M494.135 224.291C494.135 224.291 500.012 221.345 500.012 228.305C499.947 230.563 499.359 232.775 498.294 234.767C497.229 236.759 495.716 238.477 493.875 239.785C492.998 240.333 494.135 224.291 494.135 224.291Z" fill="#B5B5B5" stroke="#1C1916" stroke-linecap="round" stroke-linejoin="round"/>
<path d="M461.695 191.152C461.695 191.152 449.365 199.701 449.94 206.113C450.516 212.524 454.489 242.472 456.092 244.869C457.695 247.267 470.257 262.241 471.86 262.515C473.463 262.789 482.327 263.145 482.82 262.076C483.313 261.008 494.807 246.746 495.341 243.266C495.876 239.787 496.41 205.318 495.341 201.838C494.273 198.359 484.423 181.522 461.695 191.152Z" fill="#B5B5B5" stroke="#1C1916" stroke-linecap="round" stroke-linejoin="round"/>
<path d="M461.695 191.153C461.695 191.153 449.365 199.702 449.94 206.113C450.256 209.826 451.721 221.402 453.215 230.978C454.201 229.362 457.023 224.361 456.352 220.813C455.801 216.382 455.536 211.921 455.557 207.456C460.835 209.205 466.313 210.282 471.86 210.661C480.683 211.196 491.629 206.921 491.629 206.921C491.629 206.921 491.095 220.018 492.163 221.621C492.958 222.813 494.903 226.964 495.903 229.005C496.081 217.84 496.04 203.976 495.383 201.839C494.3 198.373 484.423 181.522 461.695 191.153Z" fill="#1C1916" stroke="#1C1916" stroke-linecap="round" stroke-linejoin="round"/>
<path d="M471.326 245.142C471.326 245.142 475.861 246.745 477.998 246.211C479.43 245.81 480.786 245.175 482.012 244.334" stroke="#1C1916" stroke-linecap="round" stroke-linejoin="round"/>
<path d="M468.914 248.349C471.079 249.942 473.706 250.784 476.394 250.746C479.489 250.313 482.478 249.319 485.217 247.814" stroke="#1C1916" stroke-linecap="round" stroke-linejoin="round"/>
<path d="M462.229 233.115C463.566 233.88 465.069 234.304 466.608 234.349C468.147 234.395 469.673 234.06 471.052 233.376" stroke="#1C1916" stroke-linecap="round" stroke-linejoin="round"/>
<path d="M482.012 233.417C482.012 233.417 487.094 234.485 490.026 232.047" stroke="#1C1916" stroke-linecap="round" stroke-linejoin="round"/>
<path d="M471.326 228.84C471.326 228.84 465.97 226.963 462.229 229.1" stroke="#1C1916" stroke-linecap="round" stroke-linejoin="round"/>
<path d="M481.806 229.375C481.806 229.375 486.614 226.429 490.026 229.101" stroke="#1C1916" stroke-linecap="round" stroke-linejoin="round"/>
<path d="M523.261 358.48C523.261 358.48 533.112 362.33 537.427 366.166C541.742 370.002 540.797 377.688 538.797 381.236C536.797 384.784 528.96 386.51 526.316 385.798C523.672 385.085 521.083 380.181 519.138 377.345C517.192 374.509 511.438 361.549 511.438 361.549L523.261 358.48Z" fill="#B5B5B5" stroke="#1C1916" stroke-linecap="round" stroke-linejoin="round"/>
<path d="M509.11 353.975C507.504 354.687 505.808 355.176 504.069 355.427C501.671 355.66 496.863 353.742 496.63 356.139C496.397 358.537 499.74 360.455 501.904 360.948C503.979 361.205 506.077 361.205 508.151 360.948C510.95 363.685 513.914 366.248 517.029 368.62C519.673 370.305 526.865 368.387 526.618 365.017C526.372 361.646 520.851 356.865 517.974 355.427C515.097 353.988 509.11 353.975 509.11 353.975Z" fill="#B5B5B5" stroke="#1C1916" stroke-linecap="round" stroke-linejoin="round"/>
<path d="M510.301 348.399C510.301 348.399 506.944 359.441 508.15 360.893C509.356 362.346 510.547 362.332 511.506 361.606C512.465 360.88 515.822 353.92 516.548 351.29C517.274 348.659 513.192 344.084 510.301 348.399Z" fill="#B5B5B5" stroke="#1C1916" stroke-linecap="round" stroke-linejoin="round"/>
<path d="M516.548 351.234C516.548 351.234 521.11 352.193 521.343 354.344C521.576 356.495 517.507 362.756 515.11 364.194C512.712 365.633 511.507 361.55 511.507 361.55L516.548 351.234Z" fill="#B5B5B5" stroke="#1C1916" stroke-linecap="round" stroke-linejoin="round"/>
<path d="M521.344 354.398C521.344 354.398 525.193 356.563 525.193 358.728C525.193 360.892 521.344 364.728 519.193 365.92C517.042 367.112 515.083 364.249 515.083 364.249L521.344 354.398Z" fill="#B5B5B5" stroke="#1C1916" stroke-linecap="round" stroke-linejoin="round"/>
<path d="M525.193 358.729C525.193 358.729 527.591 364.003 526.632 364.962C525.673 365.921 520.385 369.291 519.193 368.812C518.001 368.332 519.193 365.921 519.193 365.921C519.193 365.921 524.275 360.893 525.193 358.729Z" fill="#B5B5B5" stroke="#1C1916" stroke-linecap="round" stroke-linejoin="round"/>
<path d="M287.367 370.031H287.271C285.714 369.892 284.2 369.44 282.821 368.704C281.441 367.967 280.225 366.96 279.243 365.743C278.673 364.981 278.267 364.109 278.053 363.182C277.838 362.255 277.819 361.294 277.996 360.359C278.069 359.652 278.317 358.974 278.716 358.386C279.115 357.798 279.654 357.318 280.284 356.989C281.097 356.714 281.96 356.619 282.814 356.709C283.667 356.798 284.492 357.072 285.23 357.509C285.522 357.673 285.738 357.946 285.829 358.268C285.92 358.591 285.88 358.936 285.716 359.229C285.553 359.521 285.28 359.737 284.957 359.828C284.635 359.919 284.289 359.879 283.997 359.715C283.201 359.243 282.256 359.091 281.353 359.29C281.089 359.456 280.867 359.681 280.705 359.947C280.543 360.214 280.446 360.514 280.421 360.825C280.304 361.419 280.314 362.032 280.451 362.622C280.588 363.213 280.849 363.767 281.216 364.25C282.807 366.123 285.07 367.299 287.518 367.524C287.852 367.544 288.165 367.696 288.387 367.946C288.609 368.197 288.723 368.525 288.703 368.86C288.683 369.194 288.531 369.506 288.28 369.729C288.03 369.951 287.701 370.065 287.367 370.045V370.031Z" fill="white" stroke="#1C1916" stroke-linecap="round" stroke-linejoin="round"/>
<path d="M292.751 372.578C290.864 372.577 289.044 371.877 287.645 370.611C286.245 369.345 285.365 367.606 285.175 365.728L284.12 355.344H301.341L300.313 365.714C300.124 367.591 299.246 369.33 297.85 370.598C296.453 371.865 294.637 372.571 292.751 372.578Z" fill="white" stroke="#1C1916" stroke-linecap="round" stroke-linejoin="round"/>
<path d="M311.588 372.441H274.996L278.051 374.976H308.547L311.588 372.441Z" fill="white" stroke="#1C1916" stroke-linecap="round" stroke-linejoin="round"/>
<path d="M288.23 353.083C288.23 353.083 289.135 348.973 291.491 347.124C293.847 345.274 296.971 344.22 296.971 341.877" stroke="#1C1916" stroke-linecap="round" stroke-linejoin="round"/>
<path d="M294.737 353.084C294.737 353.084 294.011 350.742 297.477 349.111" stroke="#1C1916" stroke-linecap="round" stroke-linejoin="round"/>
<path d="M548.648 321.094H471.053V375.153H548.648V321.094Z" fill="white" stroke="#1C1916" stroke-linecap="round" stroke-linejoin="round"/>
<path d="M544.702 328.342H474.971V375.154H544.702V328.342Z" fill="white" stroke="#1C1916" stroke-linecap="round" stroke-linejoin="round"/>
<path d="M521.18 351.74H498.507V375.139H521.18V351.74Z" fill="white" stroke="#1C1916" stroke-linecap="round" stroke-linejoin="round"/>
<path d="M474.971 328.341L471.053 321.094H548.635L544.703 328.341H474.971Z" fill="white" stroke="#1C1916" stroke-linecap="round" stroke-linejoin="round"/>
<path d="M632.902 375.18H56.1826V629.502H632.902V375.18Z" fill="white" stroke="#1C1916" stroke-linecap="round" stroke-linejoin="round"/>
<path d="M632.902 375.18H56.1826V395.414H632.902V375.18Z" fill="#1C1916" stroke="#1C1916" stroke-linecap="round" stroke-linejoin="round"/>
<path d="M632.902 375.18H56.1826V388.112H632.902V375.18Z" fill="white" stroke="#1C1916" stroke-linecap="round" stroke-linejoin="round"/>
<path d="M17.385 497.492C19.8099 498.547 25.7693 498.41 25.7693 498.41C25.7693 498.41 24.4952 494.519 24.3993 494.3C23.0978 491.56 18.9194 487.053 15.604 487.45C15.0484 487.542 14.5182 487.749 14.0478 488.058C13.5775 488.368 13.1775 488.773 12.8739 489.247C12.5702 489.721 12.3698 490.254 12.2855 490.81C12.2012 491.367 12.2349 491.935 12.3846 492.478C12.9326 494.848 15.3163 496.574 17.385 497.492Z" fill="#1C1916"/>
<path d="M19.454 514.727C21.9748 515.097 27.2903 513.563 27.6739 513.439C28.5523 516.476 29.6324 519.451 30.907 522.344C31.6331 524.043 32.4277 525.728 33.236 527.4C32.7428 526.687 32.3044 526.03 32.2359 526.03C30.2631 523.742 25.0846 520.481 21.9611 521.81C21.449 522.044 20.992 522.384 20.6197 522.806C20.2475 523.229 19.9683 523.725 19.8003 524.263C19.6324 524.8 19.5794 525.367 19.6448 525.926C19.7102 526.486 19.8926 527.025 20.1801 527.509C21.3309 529.605 24.0982 530.646 26.3313 530.975C28.5644 531.304 33.1812 530.085 34.3594 529.742C34.6881 530.372 34.9895 531.016 35.3183 531.66C36.8527 534.729 38.4008 537.77 39.8256 540.812C40.3325 541.88 40.7845 542.949 41.1955 544.031L40.3325 542.798C38.346 540.51 33.1675 537.25 30.0576 538.565C29.5437 538.799 29.0849 539.139 28.7113 539.563C28.3377 539.986 28.0578 540.484 27.8897 541.023C27.7216 541.562 27.6691 542.131 27.7358 542.692C27.8025 543.252 27.9868 543.793 28.2767 544.278C29.4274 546.374 32.1811 547.401 34.4279 547.73C36.6746 548.059 40.8119 546.963 42.2367 546.566C42.6751 547.675 43.1135 548.785 43.4971 549.881C43.73 550.634 44.0177 551.347 44.2095 552.114C44.4013 552.881 44.6342 553.635 44.8397 554.374C45.1822 555.827 45.5521 557.32 45.8535 558.745C46.0727 559.731 46.2645 560.676 46.4562 561.622C45.9768 560.553 44.9767 558.471 44.8671 558.306C43.2642 555.744 38.6337 551.744 35.3457 552.58C34.8039 552.734 34.3007 553.002 33.8689 553.364C33.4371 553.726 33.0864 554.175 32.8395 554.681C32.5927 555.188 32.4553 555.741 32.4363 556.304C32.4173 556.867 32.517 557.428 32.7291 557.95C33.5511 560.197 36.1266 561.635 38.2912 562.293C40.4557 562.95 45.9357 562.361 46.5932 562.293C46.9083 563.868 47.2097 565.403 47.4563 566.855C48.0317 570.061 48.4564 572.938 48.8263 575.362H51.0868C50.6895 572.855 50.1826 569.883 49.5113 566.485C49.1962 564.882 48.84 563.183 48.4427 561.43C50.0287 560.798 51.5751 560.07 53.0732 559.252C55.1242 560.999 57.4061 562.456 59.8546 563.581C59.2518 565.074 58.649 566.512 58.0462 567.869C56.827 570.691 55.6488 573.212 54.6213 575.335H57.0325C57.9092 573.376 58.8819 571.129 59.9094 568.65C60.5259 567.143 61.1561 565.512 61.8 563.841C62.4302 563.978 67.6498 565.033 70.0883 564.485C72.294 563.978 74.9655 562.731 75.9518 560.553C76.2017 560.048 76.3422 559.495 76.3644 558.932C76.3865 558.369 76.2897 557.807 76.0804 557.284C75.871 556.76 75.5537 556.287 75.1492 555.894C74.7446 555.501 74.2619 555.198 73.7325 555.005C70.5267 553.922 65.6085 557.58 63.8138 560.019C63.7043 560.156 62.7316 561.841 62.1288 562.923C62.3891 562.238 62.6494 561.553 62.896 560.868C63.4166 559.498 63.8824 558.06 64.3892 556.539C64.6221 555.799 64.8413 555.046 65.0742 554.292C65.3071 553.539 65.4715 552.73 65.677 551.95C66.1154 550.114 66.4579 548.223 66.773 546.319C68.006 546.771 72.3762 548.292 74.6504 548.127C76.9245 547.963 79.733 547.141 81.0345 545.141C81.3576 544.678 81.5795 544.152 81.6857 543.598C81.7919 543.043 81.7799 542.473 81.6506 541.923C81.5213 541.374 81.2776 540.858 80.9354 540.409C80.5932 539.96 80.1601 539.589 79.6645 539.318C76.6505 537.77 71.2391 540.688 69.102 542.771C68.965 542.908 67.595 544.606 66.8689 545.511C67.047 544.36 67.2251 543.223 67.3758 542.058C67.7868 538.688 68.1019 535.277 68.4444 531.866C68.5403 530.825 68.6499 529.783 68.7595 528.742C69.1979 528.907 74.3627 530.824 76.8971 530.646C79.1576 530.496 81.9797 529.66 83.2949 527.66C83.6181 527.197 83.84 526.671 83.9461 526.117C84.0523 525.562 84.0404 524.992 83.9111 524.442C83.7818 523.893 83.5381 523.377 83.1959 522.928C82.8536 522.479 82.4206 522.108 81.9249 521.837C78.911 520.276 73.5133 523.207 71.3624 525.29C71.198 525.44 69.239 527.906 68.7732 528.55C69.0061 526.262 69.2801 523.975 69.6226 521.7C70.082 518.675 70.7364 515.682 71.5816 512.741C71.7871 512.823 77.1574 514.851 79.8015 514.672C82.0619 514.508 84.8841 513.686 86.1993 511.672C86.5224 511.209 86.7443 510.684 86.8505 510.129C86.9567 509.575 86.9447 509.004 86.8154 508.455C86.6861 507.905 86.4424 507.389 86.1002 506.94C85.758 506.492 85.3249 506.12 84.8293 505.85C81.8153 504.302 76.4176 507.22 74.2668 509.302C74.1024 509.467 71.9926 512.111 71.6364 512.617C71.6364 512.453 71.7186 512.275 71.7734 512.097C72.7045 509.176 73.8919 506.343 75.3217 503.63C76.0888 502.123 76.9108 500.712 77.7465 499.37C78.7055 499.849 83.1305 502 85.4869 502.11C87.8432 502.219 90.6517 501.685 92.1724 499.836C92.5467 499.414 92.8275 498.917 92.9965 498.379C93.1654 497.841 93.2187 497.273 93.1527 496.713C93.0867 496.153 92.903 495.613 92.6136 495.129C92.3243 494.645 91.9358 494.227 91.4737 493.904C88.6515 492.027 82.9661 494.287 80.5961 496.178C80.4591 496.274 79.2261 497.466 78.4178 498.342C78.8014 497.74 79.185 497.109 79.5686 496.548C80.9386 494.411 82.4181 492.534 83.6785 490.89C84.4183 489.972 85.0485 489.136 85.7472 488.369C86.9391 488.369 91.734 488.205 93.83 487.218C95.9261 486.232 98.2277 484.478 98.7209 482.122C98.8396 481.582 98.846 481.024 98.7398 480.482C98.6336 479.94 98.417 479.425 98.1035 478.97C97.79 478.516 97.3862 478.13 96.9174 477.838C96.4485 477.546 95.9246 477.353 95.3781 477.272C92.008 476.916 87.9939 481.533 86.761 484.3C86.6651 484.547 85.391 488.479 85.4869 488.479H85.5554C84.9115 489.191 84.1854 489.985 83.5278 490.849C82.1578 492.479 80.7879 494.315 79.2535 496.424C77.6488 498.692 76.1715 501.048 74.8285 503.48C73.3202 506.197 72.0594 509.044 71.061 511.987V512.083C71.061 511.097 71.061 508.316 71.061 508.097C70.6774 505.096 68.1567 499.521 64.8276 498.904C64.2704 498.817 63.701 498.848 63.1566 498.996C62.6122 499.143 62.105 499.404 61.6681 499.761C61.2312 500.117 60.8744 500.562 60.6209 501.066C60.3675 501.57 60.2231 502.122 60.1971 502.685C60.0053 505.069 61.7315 507.453 63.4166 508.96C65.3208 510.658 70.5952 512.302 71.0199 512.439C70.0702 515.455 69.3241 518.53 68.7869 521.646C68.4718 523.468 68.1978 525.304 67.9512 527.126C67.9512 526.262 67.9512 525.495 67.9512 525.386C67.5539 522.385 65.0468 516.81 61.7041 516.193C61.1471 516.108 60.5785 516.141 60.035 516.289C59.4915 516.438 58.9852 516.699 58.5488 517.055C58.1124 517.411 57.7556 517.855 57.5015 518.358C57.2474 518.861 57.1016 519.412 57.0736 519.974C56.8818 522.358 58.6079 524.742 60.293 526.249C61.9781 527.756 66.4853 529.276 67.6772 529.646C67.5813 530.359 67.4854 531.016 67.4032 531.783C67.0059 535.181 66.6086 538.633 66.1291 541.908C65.951 543.072 65.7455 544.223 65.54 545.36C65.54 544.606 65.54 543.99 65.54 543.867C65.1427 540.853 62.622 535.291 59.2929 534.674C58.7367 534.587 58.1685 534.618 57.625 534.765C57.0815 534.911 56.5749 535.171 56.1382 535.526C55.7016 535.881 55.3445 536.325 55.0902 536.827C54.836 537.329 54.6902 537.879 54.6624 538.442C54.4706 540.825 56.1968 543.223 57.8819 544.73C59.5669 546.237 63.6358 547.593 65.0468 548.059C64.8002 549.223 64.5536 550.401 64.2659 551.525C64.0467 552.278 63.8823 553.032 63.6221 553.785C63.3618 554.539 63.1426 555.279 62.9097 556.005C62.4028 557.375 61.8822 558.854 61.3479 560.211C60.9917 561.156 60.6218 562.046 60.2656 562.95C60.4437 561.786 60.7588 559.498 60.7588 559.306C60.6699 556.618 59.8865 553.999 58.4846 551.703C58.5051 551.406 58.5051 551.109 58.4846 550.812C58.4136 550.253 58.2254 549.715 57.9324 549.233C57.6394 548.751 57.2481 548.336 56.7841 548.016C56.32 547.695 55.7937 547.476 55.2393 547.372C54.6849 547.269 54.1149 547.283 53.5664 547.415C50.2922 548.278 48.2098 554.032 48.0865 557.005C48.0865 557.183 48.1961 559.128 48.292 560.361C48.1276 559.649 47.9769 558.991 47.7988 558.224C47.4426 556.772 47.059 555.333 46.648 553.785C46.4288 553.046 46.2097 552.292 45.9768 551.539C45.7439 550.785 45.4425 550.018 45.1822 549.251C44.5383 547.483 43.8122 545.716 43.0039 543.949C44.278 543.647 48.7578 542.497 50.5662 541.113C52.3745 539.729 54.2651 537.483 54.2514 535.099C54.2647 534.535 54.1595 533.976 53.9428 533.455C53.7261 532.935 53.4026 532.466 52.9933 532.079C52.584 531.691 52.098 531.394 51.5666 531.207C51.0352 531.019 50.4704 530.945 49.9086 530.989C46.5384 531.345 43.6067 536.729 43.0587 539.688C43.0587 539.88 42.8121 542.058 42.7299 543.25C42.2504 542.195 41.7709 541.14 41.2503 540.086C39.7434 537.058 38.1268 534.03 36.5239 531.003L35.0717 528.263C35.5238 528.153 40.8941 526.893 42.908 525.358C44.7027 523.988 46.6069 521.728 46.5932 519.344C46.6086 518.78 46.505 518.219 46.289 517.698C46.073 517.177 45.7496 516.707 45.3398 516.319C44.93 515.931 44.4431 515.634 43.9108 515.447C43.3785 515.26 42.8127 515.188 42.2504 515.234C38.8803 515.604 35.9485 520.974 35.4005 523.934C35.4005 524.153 35.0717 527.29 35.0306 528.043C33.9758 525.988 32.9346 523.934 31.9893 521.892C30.7051 519.117 29.6022 516.262 28.6877 513.344C28.8931 513.344 34.4964 511.974 36.565 510.426C38.3597 509.056 40.264 506.795 40.2503 504.398C40.2678 503.833 40.1656 503.271 39.9504 502.749C39.7352 502.227 39.4118 501.756 39.0015 501.368C38.5913 500.979 38.1035 500.682 37.5702 500.496C37.0369 500.31 36.4702 500.239 35.9074 500.288C32.5373 500.644 29.6192 506.014 29.0575 508.987C29.0575 509.22 28.7014 512.59 28.7014 513.207C28.7014 513.042 28.5644 512.864 28.5233 512.7C27.6842 509.747 27.1111 506.726 26.8108 503.672C26.619 501.986 26.5231 500.37 26.482 498.781C27.5506 498.657 32.4277 498 34.4416 496.781C36.4554 495.561 38.5515 493.589 38.7707 491.205C38.8479 490.646 38.8065 490.077 38.6492 489.536C38.4919 488.994 38.2222 488.492 37.8577 488.061C37.4931 487.631 37.042 487.282 36.5337 487.037C36.0253 486.793 35.4712 486.659 34.9073 486.643C31.5098 486.643 28.0575 491.657 27.0848 494.534C27.0848 494.685 26.6875 496.342 26.4683 497.548C26.4683 496.835 26.4683 496.096 26.4683 495.411C26.4683 492.849 26.6327 490.506 26.7971 488.424C26.893 487.246 27.0163 486.177 27.1259 485.177C28.1123 484.506 32.0304 481.738 33.236 479.697C34.4416 477.656 35.3868 474.984 34.4964 472.751C34.3071 472.226 34.0103 471.746 33.625 471.342C33.2397 470.938 32.7742 470.618 32.2585 470.404C31.7428 470.19 31.188 470.086 30.6298 470.099C30.0715 470.111 29.5221 470.24 29.0164 470.477C26.0025 472.039 25.2079 478.108 25.7148 481.094C25.7148 481.355 26.893 485.314 26.9478 485.273C26.8108 486.232 26.6875 487.259 26.5642 488.383C26.3587 490.465 26.1395 492.821 26.0847 495.397C25.9885 498.17 26.0525 500.947 26.2765 503.713C26.5274 506.811 27.0453 509.882 27.8246 512.891C27.8305 512.923 27.8305 512.956 27.8246 512.987C27.2903 512.152 25.7285 509.864 25.5778 509.699C23.605 507.412 18.4265 504.151 15.303 505.466C14.7905 505.702 14.3333 506.043 13.9609 506.467C13.5886 506.891 13.3094 507.388 13.1415 507.926C12.9736 508.465 12.9207 509.033 12.9863 509.593C13.0518 510.153 13.2343 510.694 13.522 511.179C14.4536 513.371 17.2072 514.398 19.454 514.727Z" fill="#1C1916"/>
<path d="M77.6643 498.796C77.6643 498.796 78.7465 494.837 78.7876 494.577C79.1986 491.59 78.2397 485.548 75.1846 484.069C74.6705 483.833 74.1122 483.708 73.5464 483.703C72.9806 483.699 72.4202 483.814 71.9023 484.042C71.3844 484.27 70.9207 484.605 70.5419 485.025C70.1631 485.445 69.8777 485.941 69.7047 486.48C68.8827 488.741 69.9239 491.494 71.0747 493.33C72.568 495.618 77.6643 498.796 77.6643 498.796Z" fill="#1C1916"/>
<path d="M71.0061 571.076H34.4551L38.1129 629.506H67.3482L71.0061 571.076Z" fill="#1C1916"/>
<path d="M384.442 466.697H377.085V629.505H384.442V466.697Z" fill="white" stroke="#1C1916" stroke-linecap="round" stroke-linejoin="round"/>
<path d="M404.444 528.717H358.303V531.909H404.444V528.717Z" fill="white" stroke="#1C1916" stroke-linecap="round" stroke-linejoin="round"/>
<path d="M408.02 582.529H354.728V585.721H408.02V582.529Z" fill="white" stroke="#1C1916" stroke-linecap="round" stroke-linejoin="round"/>
<path d="M353.44 629.505H345.576L359.249 464.875H367.098L353.44 629.505Z" fill="white" stroke="#1C1916" stroke-linecap="round" stroke-linejoin="round"/>
<path d="M409.321 629.505H417.171L403.512 464.875H395.648L409.321 629.505Z" fill="white" stroke="#1C1916" stroke-linecap="round" stroke-linejoin="round"/>
<path d="M407.513 454.848H354.002V468.986H407.513V454.848Z" fill="white" stroke="#1C1916" stroke-linecap="round" stroke-linejoin="round"/>
<path d="M407.513 454.848H354.002V461.629H407.513V454.848Z" fill="#1C1916" stroke="#1C1916" stroke-linecap="round" stroke-linejoin="round"/>
<path d="M411.691 452.107H349.837V458.039H411.691V452.107Z" fill="white" stroke="#1C1916" stroke-linecap="round" stroke-linejoin="round"/>
<path d="M229.294 33.4805H83.5967V228.976H229.294V33.4805Z" fill="#1C1916" stroke="#1C1916" stroke-linecap="round" stroke-linejoin="round"/>
<path d="M100.187 83.2793H151.533" stroke="white" stroke-linecap="round" stroke-linejoin="round"/>
<path d="M100.187 105.404H151.533" stroke="white" stroke-linecap="round" stroke-linejoin="round"/>
<path d="M100.187 127.543H151.533" stroke="white" stroke-linecap="round" stroke-linejoin="round"/>
<path d="M100.187 149.684H151.533" stroke="white" stroke-linecap="round" stroke-linejoin="round"/>
<path d="M100.187 171.807H151.533" stroke="white" stroke-linecap="round" stroke-linejoin="round"/>
<path d="M100.187 193.945H151.533" stroke="white" stroke-linecap="round" stroke-linejoin="round"/>
<path d="M162.274 83.2793H213.621" stroke="white" stroke-linecap="round" stroke-linejoin="round"/>
<path d="M162.274 105.404H213.621" stroke="white" stroke-linecap="round" stroke-linejoin="round"/>
<path d="M162.274 127.543H213.621" stroke="white" stroke-linecap="round" stroke-linejoin="round"/>
<path d="M162.274 149.684H213.621" stroke="white" stroke-linecap="round" stroke-linejoin="round"/>
<path d="M162.274 171.807H213.621" stroke="white" stroke-linecap="round" stroke-linejoin="round"/>
<path d="M162.274 193.945H213.621" stroke="white" stroke-linecap="round" stroke-linejoin="round"/>
<path d="M112.68 57.1477H110.04V68.3477H106.12V57.1477H103.2V53.9477H113.28L112.68 57.1477ZM117.52 68.5477C116.333 68.5477 115.373 68.3477 114.64 67.9477C113.92 67.5477 113.393 66.9143 113.06 66.0477C112.74 65.1677 112.58 64.021 112.58 62.6077C112.58 61.1943 112.74 60.0543 113.06 59.1877C113.393 58.321 113.92 57.6877 114.64 57.2877C115.373 56.8877 116.333 56.6877 117.52 56.6877C118.72 56.6877 119.68 56.8877 120.4 57.2877C121.12 57.6877 121.64 58.321 121.96 59.1877C122.293 60.0543 122.46 61.1943 122.46 62.6077C122.46 64.021 122.293 65.1677 121.96 66.0477C121.64 66.9143 121.12 67.5477 120.4 67.9477C119.68 68.3477 118.72 68.5477 117.52 68.5477ZM117.5 65.7277C117.953 65.7277 118.273 65.4877 118.46 65.0077C118.646 64.5143 118.74 63.721 118.74 62.6277C118.74 61.521 118.646 60.7277 118.46 60.2477C118.273 59.7543 117.953 59.5077 117.5 59.5077C117.06 59.5077 116.746 59.7543 116.56 60.2477C116.386 60.7277 116.3 61.521 116.3 62.6277C116.3 63.721 116.386 64.5143 116.56 65.0077C116.746 65.4877 117.06 65.7277 117.5 65.7277ZM127.263 57.4277C127.983 56.9343 128.743 56.6877 129.543 56.6877C130.463 56.6877 131.223 56.9743 131.823 57.5477C132.437 58.121 132.743 58.981 132.743 60.1277V68.3477H129.143V60.7077C129.143 59.8943 128.777 59.4877 128.043 59.4877C127.75 59.4877 127.49 59.561 127.263 59.7077V68.3477H123.663V53.7677L127.263 53.2477V57.4277ZM147.769 62.3477C147.916 61.801 148.009 61.2543 148.049 60.7077C148.103 60.161 148.129 59.701 148.129 59.3277H151.849C151.849 59.8343 151.803 60.4277 151.709 61.1077C151.616 61.7743 151.449 62.4543 151.209 63.1477C150.969 63.841 150.636 64.4943 150.209 65.1077L153.069 68.3277H147.969L147.329 67.5877C146.956 67.8943 146.476 68.1343 145.889 68.3077C145.303 68.4677 144.656 68.5477 143.949 68.5477C143.003 68.5477 142.183 68.3343 141.489 67.9077C140.796 67.4677 140.263 66.9077 139.889 66.2277C139.529 65.5477 139.349 64.8343 139.349 64.0877C139.349 63.621 139.416 63.1543 139.549 62.6877C139.683 62.2077 139.909 61.7677 140.229 61.3677C140.563 60.9677 141.009 60.6477 141.569 60.4077C141.329 59.9543 141.143 59.5143 141.009 59.0877C140.889 58.661 140.829 58.241 140.829 57.8277C140.829 56.881 141.036 56.1143 141.449 55.5277C141.863 54.9277 142.416 54.4943 143.109 54.2277C143.816 53.9477 144.609 53.8077 145.489 53.8077C145.983 53.8077 146.489 53.8477 147.009 53.9277C147.529 53.9943 148.056 54.101 148.589 54.2477L148.309 57.3677C148.029 57.261 147.736 57.1743 147.429 57.1077C147.136 57.041 146.849 57.0077 146.569 57.0077C146.036 57.0077 145.609 57.1143 145.289 57.3277C144.983 57.5277 144.829 57.8543 144.829 58.3077C144.829 58.761 145.123 59.3277 145.709 60.0077L147.769 62.3477ZM145.289 65.6077C145.356 65.6077 145.423 65.6077 145.489 65.6077C145.569 65.6077 145.649 65.601 145.729 65.5877L143.149 62.5477C143.083 62.8143 143.049 63.081 143.049 63.3477C143.049 63.961 143.229 64.4943 143.589 64.9477C143.949 65.3877 144.516 65.6077 145.289 65.6077ZM168.051 57.1477H165.411V68.3477H161.491V57.1477H158.571V53.9477H168.651L168.051 57.1477ZM172.246 64.9877C172.246 64.761 172.079 64.541 171.746 64.3277L170.026 63.2077C169.399 62.7943 168.946 62.3477 168.666 61.8677C168.386 61.3877 168.246 60.761 168.246 59.9877C168.246 58.881 168.573 58.061 169.226 57.5277C169.879 56.981 170.953 56.701 172.446 56.6877C173.006 56.6877 173.519 56.7143 173.986 56.7677C174.466 56.8077 174.846 56.8543 175.126 56.9077C175.419 56.961 175.566 56.9877 175.566 56.9877L175.266 59.6477C175.266 59.6477 175.166 59.6343 174.966 59.6077C174.766 59.581 174.506 59.5543 174.186 59.5277C173.879 59.4877 173.559 59.4677 173.226 59.4677C172.746 59.4677 172.399 59.5077 172.186 59.5877C171.973 59.6677 171.866 59.821 171.866 60.0477C171.866 60.181 171.906 60.2943 171.986 60.3877C172.066 60.4677 172.193 60.561 172.366 60.6677L174.126 61.8077C174.766 62.221 175.226 62.6677 175.506 63.1477C175.786 63.6143 175.926 64.221 175.926 64.9677C175.926 66.1543 175.586 67.0477 174.906 67.6477C174.226 68.2343 173.113 68.5343 171.566 68.5477C170.886 68.5477 170.259 68.5077 169.686 68.4277C169.126 68.361 168.613 68.2677 168.146 68.1477L168.446 65.4277C168.446 65.4277 168.693 65.4677 169.186 65.5477C169.679 65.6143 170.333 65.6477 171.146 65.6477C171.879 65.6477 172.246 65.4277 172.246 64.9877ZM182 68.5477C181.214 68.5477 180.494 68.461 179.84 68.2877C179.2 68.1143 178.647 67.8077 178.18 67.3677C177.714 66.9277 177.354 66.321 177.1 65.5477C176.847 64.7743 176.72 63.7877 176.72 62.5877C176.72 60.641 177.08 59.1743 177.8 58.1877C178.534 57.1877 179.707 56.6877 181.32 56.6877C182.787 56.6877 183.847 57.0943 184.5 57.9077C185.167 58.7077 185.5 59.901 185.5 61.4877C185.5 61.861 185.487 62.2477 185.46 62.6477C185.434 63.0343 185.387 63.3877 185.32 63.7077H180.54C180.62 64.521 180.847 65.0677 181.22 65.3477C181.594 65.6143 182.22 65.7477 183.1 65.7477C183.407 65.7477 183.72 65.721 184.04 65.6677C184.374 65.6143 184.694 65.5543 185 65.4877V68.2077C184.534 68.301 184.04 68.381 183.52 68.4477C183.014 68.5143 182.507 68.5477 182 68.5477ZM181.46 59.3277C180.927 59.3277 180.614 60.0477 180.52 61.4877H182.16C182.16 61.1943 182.147 60.881 182.12 60.5477C182.107 60.2143 182.047 59.9277 181.94 59.6877C181.847 59.4477 181.687 59.3277 181.46 59.3277ZM191.753 60.7077C191.753 59.8943 191.446 59.4877 190.833 59.4877C190.593 59.4877 190.38 59.561 190.193 59.7077V68.3477H186.593V56.8477H189.653L189.913 57.6277C190.66 57.001 191.473 56.6877 192.353 56.6877C192.86 56.6877 193.32 56.7877 193.733 56.9877C194.146 57.1877 194.486 57.4877 194.753 57.8877C195.18 57.4743 195.626 57.1743 196.093 56.9877C196.573 56.7877 197.053 56.6877 197.533 56.6877C198.4 56.6877 199.113 56.9743 199.673 57.5477C200.233 58.121 200.513 58.981 200.513 60.1277V68.3477H196.913V60.7077C196.913 59.8943 196.606 59.4877 195.993 59.4877C195.726 59.4877 195.506 59.5543 195.333 59.6877C195.333 59.7543 195.333 59.8277 195.333 59.9077C195.346 59.9877 195.353 60.061 195.353 60.1277V68.3477H191.753V60.7077Z" fill="white"/>
<path d="M189.03 466.695H181.673V629.503H189.03V466.695Z" fill="white" stroke="#1C1916" stroke-linecap="round" stroke-linejoin="round"/>
<path d="M209.045 528.713H162.904V531.905H209.045V528.713Z" fill="white" stroke="#1C1916" stroke-linecap="round" stroke-linejoin="round"/>
<path d="M212.62 582.525H159.328V585.717H212.62V582.525Z" fill="white" stroke="#1C1916" stroke-linecap="round" stroke-linejoin="round"/>
<path d="M158.027 629.503H150.177L163.849 464.873H171.699L158.027 629.503Z" fill="white" stroke="#1C1916" stroke-linecap="round" stroke-linejoin="round"/>
<path d="M213.922 629.503H221.772L208.1 464.873H200.25L213.922 629.503Z" fill="white" stroke="#1C1916" stroke-linecap="round" stroke-linejoin="round"/>
<path d="M212.114 454.844H158.603V468.982H212.114V454.844Z" fill="white" stroke="#1C1916" stroke-linecap="round" stroke-linejoin="round"/>
<path d="M212.114 454.844H158.603V461.625H212.114V454.844Z" fill="#1C1916" stroke="#1C1916" stroke-linecap="round" stroke-linejoin="round"/>
<path d="M216.292 452.105H154.438V458.037H216.292V452.105Z" fill="white" stroke="#1C1916" stroke-linecap="round" stroke-linejoin="round"/>
<path d="M246.856 589.609C246.856 589.609 235.677 599.035 236.718 600.432C237.759 601.83 248.596 616.872 252.445 620.694C256.295 624.516 267.515 630.12 269.556 628.024C271.597 625.927 263.624 609.858 262.227 606.364C261.106 602.633 260.747 598.715 261.172 594.843C261.528 593.719 246.856 589.609 246.856 589.609Z" fill="#1C1916" stroke="#1C1916" stroke-linecap="round" stroke-linejoin="round"/>
<path d="M252.445 614.721C248.527 610.022 242.253 600.829 239.348 596.486C237.608 598.295 236.334 599.898 236.718 600.404C237.773 601.774 248.596 616.844 252.445 620.666C256.295 624.489 267.515 630.092 269.556 627.996C269.719 627.753 269.832 627.48 269.889 627.193C269.945 626.906 269.944 626.611 269.885 626.324C265.09 624.091 256.35 619.406 252.445 614.721Z" fill="white" stroke="#1C1916" stroke-linecap="round" stroke-linejoin="round"/>
<path d="M208.784 590.623C208.784 590.623 197.605 600.049 198.647 601.446C199.688 602.843 210.524 617.886 214.374 621.708C218.224 625.53 229.444 631.147 231.485 629.051C233.526 626.955 225.539 610.885 224.142 607.392C223.016 603.657 222.662 599.732 223.101 595.856C223.443 594.815 208.784 590.623 208.784 590.623Z" fill="#1C1916" stroke="#1C1916" stroke-linecap="round" stroke-linejoin="round"/>
<path d="M214.375 615.775C210.443 611.063 204.182 601.87 201.278 597.541C199.524 599.349 198.264 600.939 198.647 601.445C199.702 602.815 210.525 617.885 214.375 621.707C218.224 625.53 229.444 631.147 231.486 629.05C231.649 628.806 231.762 628.53 231.816 628.24C231.87 627.951 231.865 627.653 231.801 627.365C226.992 625.132 218.265 620.461 214.375 615.775Z" fill="white" stroke="#1C1916" stroke-linecap="round" stroke-linejoin="round"/>
<path d="M213.141 399.181C213.141 399.181 245.254 425.389 245.623 428.348C245.783 430.815 245.659 433.293 245.254 435.732C245.254 435.732 276.64 495.901 277.749 504.025C278.859 512.149 286.243 599.28 286.243 599.28L276.653 598.91L278.503 606.664C278.503 606.664 262.625 613.308 245.623 608.144C228.622 602.979 203.154 590.786 203.154 590.786L220.142 528.384C220.142 528.384 205.072 527.644 203.894 523.959C202.716 520.273 159.589 439.02 159.589 439.02C159.589 439.02 172.878 395.455 176.207 394.345C179.536 393.235 213.141 399.181 213.141 399.181Z" fill="#B5B5B5" stroke="#1C1916" stroke-linecap="round" stroke-linejoin="round"/>
<path d="M231.842 478.559C235.486 478.915 237.13 478.915 237.13 478.915" stroke="#1C1916" stroke-linecap="round" stroke-linejoin="round"/>
<path d="M178.057 456.021C178.057 456.021 200.579 473.735 215.717 476.325C220.636 477.16 224.622 477.695 227.759 478.119" stroke="#1C1916" stroke-linecap="round" stroke-linejoin="round"/>
<path d="M227.909 451.24C227.909 451.24 260.789 506.615 261.131 507.724C261.474 508.834 276.639 595.965 276.639 595.965" stroke="#1C1916" stroke-linecap="round" stroke-linejoin="round"/>
<path d="M230.485 454.543L234.924 445.68" stroke="#1C1916" stroke-linecap="round" stroke-linejoin="round"/>
<path d="M232.608 514.645C235.005 515.552 237.529 516.079 240.088 516.206" stroke="#1C1916" stroke-linecap="round" stroke-linejoin="round"/>
<path d="M186.55 480.395C186.55 480.395 221.265 508.822 227.909 512.507" stroke="#1C1916" stroke-linecap="round" stroke-linejoin="round"/>
<path d="M220.155 528.385L233.074 540.934" stroke="#1C1916" stroke-linecap="round" stroke-linejoin="round"/>
<path d="M231.389 576.621C228.215 579.551 224.35 581.63 220.155 582.663" stroke="#1C1916" stroke-linecap="round" stroke-linejoin="round"/>
<path d="M253.748 513.986C253.748 513.986 238.61 564.196 234.568 572.32" stroke="#1C1916" stroke-linecap="round" stroke-linejoin="round"/>
<path d="M246.172 589.416C245.677 591.747 245.003 594.037 244.158 596.266" stroke="#1C1916" stroke-linecap="round" stroke-linejoin="round"/>
<path d="M254.118 539.824C254.118 539.824 250.336 569.827 246.747 586.746" stroke="#1C1916" stroke-linecap="round" stroke-linejoin="round"/>
<path d="M256.255 363.74L248.912 367.508L244.953 370.892L241.377 366.001L253.241 355.082L256.255 363.74Z" fill="white" stroke="#1C1916" stroke-linecap="round" stroke-linejoin="round"/>
<path d="M258.693 336.82L241.198 363.549L251.925 362.617L269.242 337.766L258.693 336.82Z" fill="#1C1916" stroke="#1C1916" stroke-linecap="round" stroke-linejoin="round"/>
<path d="M266.227 350.562C266.227 350.562 258.514 348.685 257.761 350.37C257.007 352.055 258.323 352.822 260.199 353.768C262.076 354.713 264.72 355.453 266.036 353.384C267.351 351.316 266.227 350.562 266.227 350.562Z" fill="white" stroke="#1C1916" stroke-linecap="round" stroke-linejoin="round"/>
<path d="M262.46 355.343C262.46 355.343 253.802 353.644 253.241 355.151C252.679 356.658 247.966 363.247 249.131 364.001C250.295 364.754 257.35 365.371 258.72 363.809C260.09 362.247 262.46 355.343 262.46 355.343Z" fill="white" stroke="#1C1916" stroke-linecap="round" stroke-linejoin="round"/>
<path d="M224.059 374.276L241.198 363.549L248.349 372.591L210.894 407.032L209.757 383.126L224.059 374.276Z" fill="#1C1916" stroke="#1C1916" stroke-linecap="round" stroke-linejoin="round"/>
<path d="M211.072 344.726C211.072 344.726 213.894 366.563 214.278 375.221C214.662 383.88 215.401 404.21 215.401 404.21L228.964 401.95C228.964 401.95 227.265 376.167 224.443 362.796C222.841 354.977 220.114 347.432 216.347 340.396L211.072 344.726Z" fill="#C78853" stroke="#1C1916" stroke-linecap="round" stroke-linejoin="round"/>
<path d="M209.566 341.711C212.387 357.459 214.217 373.368 215.046 389.345C216.169 414.183 207.319 444.308 207.319 444.308C207.319 444.308 197.537 449.569 175.508 440.733C162.714 435.65 150.322 429.61 138.437 422.663C138.437 422.663 140.875 370.138 149.396 350.561C157.918 330.984 162.192 321.956 170.85 319.504C179.508 317.051 209.566 341.711 209.566 341.711Z" fill="#1C1916" stroke="#1C1916" stroke-linecap="round" stroke-linejoin="round"/>
<path d="M186.988 331.93L191.372 359.453L147.848 353.644C147.848 353.644 131.888 416.115 131.696 423.513C131.504 430.91 141.286 441.007 160.685 447.035C180.084 453.063 187.221 456.625 193.564 451.364C199.907 446.104 207.881 381.153 207.264 374.372C206.648 367.59 206.332 364.59 206.332 364.59L193.907 359.316L189.386 333.286L186.988 331.93Z" fill="white" stroke="#1C1916" stroke-linecap="round" stroke-linejoin="round"/>
<path d="M174.932 304.448C174.932 304.448 164.959 308.215 164.767 313.859C164.575 319.504 169.48 324.586 171.165 325.34C172.85 326.093 198.838 340.204 201.661 340.958C204.483 341.711 216.347 337.204 216.347 333.436C216.347 329.669 187.166 306.516 183.782 303.694C180.399 300.872 174.932 304.448 174.932 304.448Z" fill="#C78853" stroke="#1C1916" stroke-linecap="round" stroke-linejoin="round"/>
<path d="M185.892 293.529C185.892 293.529 178.549 290.515 176.48 293.899C174.412 297.283 173.466 302.941 174.973 304.448C176.48 305.955 195.112 336.067 201.702 340.958C208.291 345.849 209.798 347.369 213.004 345.068C216.21 342.766 220.717 339.04 222.785 334.108C224.854 329.176 227.868 328.464 223.169 322.052C218.47 315.641 217.511 315.285 217.511 315.285L185.892 293.529Z" fill="#C78853" stroke="#1C1916" stroke-linecap="round" stroke-linejoin="round"/>
<path d="M236.678 293.901C236.678 293.901 233.472 300.874 232.157 302.381C230.842 303.888 228.773 303.888 228.773 305.395C228.773 306.902 229.896 312.916 228.581 313.862C227.266 314.807 221.43 315.56 221.43 315.56C221.43 315.56 216.155 323.465 213.895 324.219C211.634 324.972 205.99 321.574 201.853 319.136C197.715 316.697 191.688 307.464 188.482 302.381C185.276 297.298 185.098 294.285 185.851 293.531C186.605 292.778 185.098 282.421 201.469 279.598C217.84 276.776 228.019 279.982 230.842 283.366C233.664 286.75 236.678 293.901 236.678 293.901Z" fill="white" stroke="#1C1916" stroke-linecap="round" stroke-linejoin="round"/>
<path d="M224.101 304.653C223.457 305.749 222.58 306.434 222.142 306.174C221.704 305.914 221.868 304.804 222.512 303.722C223.156 302.639 224.032 301.941 224.471 302.201C224.909 302.461 224.745 303.544 224.101 304.653Z" fill="#1C1916"/>
<path d="M227.978 301.71C227.978 301.71 224.909 299.71 222.498 300.943" stroke="#1C1916" stroke-linecap="round" stroke-linejoin="round"/>
<path d="M218.443 315.532C217.471 315.019 216.64 314.274 216.023 313.364C215.407 312.454 215.024 311.406 214.908 310.312" stroke="#1C1916" stroke-linecap="round" stroke-linejoin="round"/>
<path d="M192.441 255.129C192.441 255.129 183.591 263.034 182.467 274.144C181.344 285.255 184.522 291.652 185.892 293.529C187.262 295.406 190.221 294.653 192.674 292.776C195.126 290.899 199.441 286.378 203.634 286.57C207.826 286.762 210.593 286.57 210.593 286.57C208.632 291.311 206.101 295.796 203.058 299.927C201.436 302.113 199.6 304.132 197.578 305.955C197.578 305.955 208.305 297.297 211.881 294.475C215.456 291.652 217.525 285.625 217.525 285.625V289.735L225.622 293.31L229.732 287.104L228.047 294.625C228.047 294.625 229.732 295.009 231.992 295.762C234.719 296.366 237.491 296.742 240.28 296.886C240.28 296.886 242.733 284.652 242.733 276.939C242.733 269.226 232.348 256.704 220.676 252.868C209.004 249.033 197.332 250.8 192.441 255.129Z" fill="#1C1916" stroke="#1C1916" stroke-linecap="round" stroke-linejoin="round"/>
<path d="M192.441 255.129C188.549 251.938 183.869 249.856 178.892 249.101C170.796 247.978 164.768 255.951 162.891 260.965C161.749 263.636 161.485 266.601 162.138 269.432L176.632 273.953C176.632 273.953 179.07 260.404 183.591 257.951C186.027 256.507 188.896 255.973 191.688 256.444L192.441 255.129Z" fill="#1C1916" stroke="#1C1916" stroke-linecap="round" stroke-linejoin="round"/>
<path d="M202.606 291.078C202.606 291.078 200.729 282.049 195.455 282.611C190.181 283.173 191.126 297.859 193.003 299.051C194.88 300.243 198.483 298.681 198.483 298.681" fill="white"/>
<path d="M202.606 291.078C202.606 291.078 200.729 282.049 195.455 282.611C190.181 283.173 191.126 297.859 193.003 299.051C194.88 300.243 198.483 298.681 198.483 298.681" stroke="#1C1916" stroke-linecap="round" stroke-linejoin="round"/>
<path d="M227.636 360.727C227.636 360.727 231.595 354.521 232.157 353.205C232.718 351.89 235.362 336.067 236.678 334.752C237.993 333.437 245.706 331.176 248.528 330.231C251.35 329.286 255.871 328.162 256.063 329.108C256.255 330.053 252.117 331.546 250.035 333.053C247.953 334.56 244.952 340.588 243.445 344.917C241.938 349.246 241.76 353.959 239.692 356.028C237.623 358.096 231.787 365.439 231.787 365.439L227.636 360.727Z" fill="white" stroke="#1C1916" stroke-linecap="round" stroke-linejoin="round"/>
<path d="M157.424 349.864C157.424 349.864 174.932 407.403 177.576 407.787C180.22 408.171 233.293 368.633 233.293 368.633L228.361 357.906L194.112 370.702C194.112 370.702 188.276 336.822 186.385 334.562C184.495 332.301 172.083 324.588 163.616 333.055" fill="#1C1916"/>
<path d="M157.424 349.864C157.424 349.864 174.932 407.403 177.576 407.787C180.22 408.171 233.293 368.633 233.293 368.633L228.361 357.906L194.112 370.702C194.112 370.702 188.276 336.822 186.385 334.562C184.495 332.301 172.083 324.588 163.616 333.055" stroke="#1C1916" stroke-linecap="round" stroke-linejoin="round"/>
<path d="M0 629.504H661" stroke="#1C1916" stroke-miterlimit="10"/>
</g>
<defs>
<clipPath id="clip0_892_1219">
<rect width="661" height="629.572" fill="white"/>
</clipPath>
</defs>
</svg>
