<svg width="60" height="66" viewBox="0 0 60 66" fill="none" xmlns="http://www.w3.org/2000/svg">
<g clip-path="url(#clip0_438_1089)">
<path d="M2.90484 3.85149H18.8886L19.4989 6.81576H12.7276V23.6133H8.92056V6.81576H2.90484V3.85149Z" fill="#040403"/>
<g clip-path="url(#clip1_438_1089)">
<path d="M29.6554 22.885C24.1671 22.885 19.6768 18.3946 19.6768 12.9064C19.6768 7.41812 24.1671 2.92773 29.6554 2.92773C35.1436 2.92773 39.634 7.41812 39.634 12.9064C39.634 18.3946 35.1436 22.885 29.6554 22.885ZM29.6554 3.64049C24.5235 3.64049 20.3895 7.7745 20.3895 12.9064C20.3895 18.0382 24.5235 22.1722 29.6554 22.1722C34.7872 22.1722 38.9212 18.0382 38.9212 12.9064C38.9212 7.7745 34.7872 3.64049 29.6554 3.64049Z" fill="#C78853"/>
<path d="M29.656 19.3199C28.9433 19.3199 28.3018 19.1773 27.6603 18.9635C27.4465 18.8922 27.3752 18.6784 27.4465 18.5359C27.5178 18.322 27.7316 18.2508 27.8741 18.322C29.1571 18.7497 30.5114 18.6784 31.723 18.2508C31.9369 18.1795 32.0794 18.2508 32.1507 18.4646C32.222 18.6784 32.1507 18.821 31.9369 18.8922C31.2241 19.1773 30.4401 19.3199 29.656 19.3199ZM33.2198 18.1795C33.0773 18.1795 33.006 18.1082 32.9347 18.0369C32.7922 17.8944 32.8635 17.6806 33.006 17.538C34.5028 16.4689 35.3581 14.687 35.3581 12.9051C35.3581 11.5508 34.8592 10.2679 34.0039 9.19872C33.8613 9.05617 33.8613 8.84234 34.0752 8.69979C34.2177 8.55724 34.4315 8.55724 34.5741 8.77106C35.5719 9.91148 36.0709 11.4083 36.0709 12.9051C36.0709 14.9721 35.073 16.8965 33.4337 18.1082C33.3624 18.1082 33.2911 18.1795 33.2198 18.1795ZM31.723 7.55937H31.5805C30.6539 7.20299 29.656 7.13172 28.6582 7.27427C28.4444 7.27427 28.3018 7.20299 28.2305 6.98917C28.2305 6.77534 28.3018 6.63279 28.5156 6.56151C29.656 6.41896 30.7965 6.49023 31.8656 6.84661C32.0794 6.91789 32.1507 7.13172 32.0794 7.27427C32.0081 7.4881 31.8656 7.55937 31.723 7.55937ZM26.4486 18.3933C26.3774 18.3933 26.3061 18.3933 26.2348 18.322C24.3816 17.1816 23.2412 15.1146 23.2412 12.9051C23.2412 11.0519 24.0965 9.27 25.522 7.98703C25.6646 7.91575 25.8784 7.91575 26.021 8.0583C26.1635 8.20086 26.1635 8.41468 25.9497 8.55724C24.6667 9.62637 23.954 11.1944 23.954 12.9051C23.954 14.9008 24.9518 16.6827 26.6625 17.7518C26.805 17.8231 26.8763 18.1082 26.805 18.2508C26.6625 18.322 26.5912 18.3933 26.4486 18.3933ZM27.1614 11.1232C26.9476 11.1232 26.805 10.9806 26.805 10.7668V6.84661C26.805 6.63279 26.9476 6.49023 27.1614 6.49023C27.3752 6.49023 27.5178 6.63279 27.5178 6.84661V10.7668C27.5178 10.9806 27.3752 11.1232 27.1614 11.1232Z" fill="#C78853"/>
<path d="M27.1618 19.3199C26.5916 19.3199 26.0926 18.821 26.0926 18.2508V11.9785L25.4512 11.337C25.3799 11.2657 25.3799 11.1944 25.3799 11.0519V6.77534C25.3799 6.63279 25.5224 6.49023 25.7363 6.49023C25.9501 6.49023 26.0926 6.63279 26.0926 6.84661V10.9806L26.7341 11.6221C26.8054 11.6934 26.8054 11.7647 26.8054 11.9072V18.322C26.8054 18.5359 26.948 18.6784 27.1618 18.6784C27.3756 18.6784 27.5182 18.5359 27.5182 18.322V11.9072C27.5182 11.8359 27.5894 11.6934 27.5894 11.6221L28.2309 10.9806V6.84661C28.2309 6.63279 28.3735 6.49023 28.5873 6.49023C28.8011 6.49023 28.9437 6.63279 28.9437 6.84661V11.1232C28.9437 11.1944 28.8724 11.337 28.8724 11.4083L28.2309 11.9785V18.2508C28.2309 18.821 27.732 19.3199 27.1618 19.3199ZM32.5075 19.3199C31.9373 19.3199 31.4383 18.821 31.4383 18.2508V12.4774C31.4383 12.1923 31.3671 11.9785 31.2245 11.8359C31.1532 11.7647 31.082 11.6221 31.0107 11.5508C30.5117 10.9093 30.3692 10.2679 30.4405 9.48382C30.583 8.62851 30.7969 7.91575 31.2245 7.34555C31.3671 7.13172 31.6522 6.91789 31.866 6.77534C32.2936 6.49023 32.7926 6.49023 33.2202 6.77534C33.4341 6.91789 33.7192 7.13172 33.8617 7.34555C34.2894 7.91575 34.5745 8.62851 34.6458 9.48382C34.717 10.2679 34.5745 10.9093 34.0755 11.5508C34.0043 11.6221 33.933 11.7647 33.8617 11.8359C33.7192 12.0498 33.6479 12.2636 33.6479 12.4774V18.2508C33.5766 18.821 33.0777 19.3199 32.5075 19.3199ZM32.5075 7.20299C32.4362 7.20299 32.2936 7.20299 32.2224 7.27427C32.0798 7.41682 31.866 7.55937 31.7947 7.70192C31.4383 8.20086 31.2245 8.77106 31.1532 9.48382C31.082 10.054 31.2245 10.553 31.5809 11.0519C31.6522 11.1232 31.7234 11.1944 31.7947 11.337C32.0798 11.6221 32.2224 12.0498 32.2224 12.4774V18.2508C32.2224 18.4646 32.3649 18.6071 32.5787 18.6071C32.7926 18.6071 32.9351 18.4646 32.9351 18.2508V12.4774C32.9351 12.0498 33.0777 11.6221 33.3628 11.337C33.4341 11.2657 33.5053 11.1944 33.5766 11.0519C33.933 10.553 34.0755 10.054 34.0043 9.48382C33.933 8.77106 33.7192 8.12958 33.3628 7.70192L32.9351 7.27427C32.7213 7.20299 32.5787 7.20299 32.5075 7.20299Z" fill="#C78853"/>
</g>
<path d="M45.8463 3.70619V12.2212H53.6348V3.85149H57.3837V23.6133H53.6348V15.2436H45.8463V23.6133H42.0974V3.85149L45.8463 3.70619Z" fill="#040403"/>
<path d="M18.3968 26.1721C18.3589 26.5506 18.2832 26.9668 18.1697 27.4209C18.0562 27.875 17.9332 28.3291 17.8008 28.7831C17.6873 29.2183 17.5737 29.6345 17.4602 30.0319C17.3656 30.4103 17.3183 30.7225 17.3183 30.9684V42.1503C17.3183 42.6044 17.2237 42.8314 17.0345 42.8314C16.8831 42.8314 16.5237 42.6044 15.9561 42.1503C15.5587 41.8475 14.9911 41.5543 14.2532 41.2705C13.5343 40.9867 12.7491 40.7407 11.8977 40.5326C11.0463 40.3055 10.1854 40.1258 9.31506 39.9934C8.46365 39.8609 7.71631 39.7947 7.07302 39.7947C6.88382 39.7947 6.62839 39.8042 6.30675 39.8231C6.00403 39.8231 5.66346 39.842 5.28506 39.8798C4.90665 39.8988 4.51879 39.9366 4.12146 39.9934C3.72414 40.0501 3.34574 40.1258 2.98625 40.2204C2.98625 39.5204 3.11869 38.9622 3.38358 38.546C3.64846 38.1108 3.97956 37.7892 4.37689 37.581C4.79313 37.3729 5.25668 37.2405 5.76752 37.1837C6.29729 37.108 6.8176 37.0702 7.32844 37.0702C7.89605 37.0702 8.5961 37.1837 9.42859 37.4108C10.28 37.6189 11.1314 37.8838 11.9828 38.2054C12.8342 38.527 13.6194 38.8771 14.3384 39.2555C15.0763 39.6339 15.6155 39.9934 15.9561 40.3339L15.5871 36.0485C15.0384 35.5755 13.837 35.1782 11.9828 34.8565C10.1476 34.516 7.58386 34.3457 4.29175 34.3457C4.10254 34.3457 4.00794 34.27 4.00794 34.1186C4.00794 34.024 4.03632 33.8727 4.09308 33.6646L5.02963 31.6212C6.48649 31.6212 7.80145 31.6969 8.9745 31.8482C10.1476 31.9996 11.1692 32.1888 12.0396 32.4158C12.9288 32.6429 13.6573 32.8983 14.2249 33.1821C14.8114 33.4659 15.2276 33.7308 15.4736 33.9767C15.4736 33.8443 15.4547 33.6267 15.4168 33.324C15.379 33.0213 15.3317 32.6807 15.2749 32.3023C15.2182 31.9239 15.1425 31.536 15.0479 31.1387C14.9722 30.7414 14.8871 30.3819 14.7925 30.0603C14.6979 29.7197 14.5938 29.4453 14.4803 29.2372C14.3857 29.0102 14.2816 28.8967 14.1681 28.8967H4.49041C4.14984 28.8967 3.93226 28.8683 3.83766 28.8115C3.74306 28.7548 3.69576 28.6129 3.69576 28.3858C3.69576 28.2534 3.72414 28.1115 3.7809 27.9601C3.85658 27.8087 3.94172 27.6574 4.03632 27.506L4.71745 26.1721H18.3968ZM22.4268 30.3441C22.2754 30.3441 22.1619 30.2968 22.0862 30.2022C22.0105 30.1076 21.9159 29.9373 21.8024 29.6913C21.6889 29.4643 21.5564 29.2278 21.4051 28.9818C21.2726 28.7169 21.1402 28.471 21.0078 28.2439C20.8942 27.9979 20.7902 27.7709 20.6956 27.5628C20.601 27.3547 20.5537 27.1938 20.5537 27.0803C20.5537 26.8722 20.6294 26.6735 20.7807 26.4843C20.951 26.2762 21.2064 26.1721 21.547 26.1721H23.3066C23.6471 26.1721 23.8931 26.2762 24.0445 26.4843C24.2147 26.6735 24.2999 26.8722 24.2999 27.0803C24.2999 27.1938 24.2526 27.3547 24.158 27.5628C24.0634 27.7709 23.9499 27.9979 23.8174 28.2439C23.7039 28.471 23.5714 28.7169 23.4201 28.9818C23.2876 29.2278 23.1647 29.4643 23.0511 29.6913C22.9376 29.9373 22.843 30.1076 22.7673 30.2022C22.6917 30.2968 22.5781 30.3441 22.4268 30.3441ZM41.0443 26.1721C40.9497 26.5506 40.8456 26.9668 40.7321 27.4209C40.6186 27.875 40.505 28.3291 40.3915 28.7831C40.2969 29.2372 40.2118 29.6629 40.1361 30.0603C40.0604 30.4387 40.0226 30.7508 40.0226 30.9968V41.9516C40.0226 42.0651 39.9753 42.1503 39.8807 42.207C39.7861 42.2638 39.6726 42.2922 39.5401 42.2922C39.3887 42.2922 39.2847 42.2638 39.2279 42.207C39.1712 42.1314 39.0955 42.0462 39.0009 41.9516C38.3198 41.157 37.5913 40.4191 36.8156 39.7379C36.0588 39.0379 35.2547 38.4324 34.4033 37.9216C33.5519 37.3918 32.6626 36.9851 31.7355 36.7012C30.8273 36.3985 29.8813 36.2472 28.8975 36.2472C28.6894 36.2472 28.4339 36.2661 28.1312 36.3039C27.8285 36.3228 27.5069 36.3607 27.1663 36.4174C26.8446 36.4742 26.5325 36.531 26.2297 36.5877C25.927 36.6445 25.6811 36.7012 25.4918 36.758C25.4918 36.512 25.5108 36.2472 25.5486 35.9634C25.6054 35.6796 25.6905 35.3958 25.804 35.112C25.9176 34.8281 26.0595 34.5727 26.2297 34.3457C26.4 34.1186 26.6081 33.9389 26.8541 33.8065C26.8541 33.0875 26.9014 32.4537 26.996 31.905C27.1095 31.3374 27.2325 30.8454 27.3649 30.4292C27.5163 30.013 27.6677 29.6818 27.819 29.4359C27.9704 29.171 28.0934 28.9913 28.188 28.8967H27.3366C26.996 28.8967 26.7784 28.8683 26.6838 28.8115C26.5892 28.7548 26.5419 28.6129 26.5419 28.3858C26.5419 28.2534 26.5703 28.1115 26.6271 27.9601C26.7027 27.8087 26.7879 27.6574 26.8825 27.506L27.5636 26.1721H41.0443ZM31.1395 28.8967C30.9503 28.8967 30.6949 29.0196 30.3733 29.2656C30.0516 29.4926 29.73 29.8143 29.4083 30.2305C29.0867 30.6468 28.8029 31.1387 28.5569 31.7063C28.3299 32.2739 28.2164 32.8888 28.2164 33.551C28.292 33.5321 28.415 33.5227 28.5853 33.5227C28.7556 33.5037 28.9259 33.4943 29.0961 33.4943C29.2854 33.4754 29.4556 33.4659 29.607 33.4659C29.7773 33.4659 29.9097 33.4659 30.0043 33.4659C30.7233 33.4659 31.4896 33.5983 32.3031 33.8632C33.1356 34.1281 33.9397 34.5065 34.7155 34.9984C35.5101 35.4904 36.248 36.0863 36.9291 36.7864C37.6102 37.4864 38.1779 38.2716 38.6319 39.142L38.0076 32.3023C37.913 31.3184 37.79 30.5049 37.6386 29.8616C37.4873 29.2183 37.2602 28.8967 36.9575 28.8967H31.1395ZM57.1643 26.1721L56.2561 28.2155C56.048 28.6696 55.4425 28.8967 54.4398 28.8967H51.5166C51.6112 28.9913 51.6774 29.2183 51.7153 29.5778C51.772 29.9184 51.8004 30.3157 51.8004 30.7698C51.8004 31.3752 51.7815 31.9239 51.7436 32.4158C51.7058 32.8888 51.6301 33.3808 51.5166 33.8916C52.6329 34.1186 53.6073 34.5254 54.4398 35.112C55.2912 35.6796 56.0196 36.3228 56.6251 37.0418C57.2305 37.7608 57.7319 38.5176 58.1292 39.3122C58.5455 40.1069 58.8766 40.8353 59.1225 41.4975C59.3685 42.1597 59.5388 42.7179 59.6334 43.172C59.728 43.626 59.7753 43.8815 59.7753 43.9382C59.7753 44.0328 59.7469 44.1464 59.6901 44.2788C59.6523 44.3923 59.5577 44.4491 59.4063 44.4491C59.2361 44.4491 59.0847 44.3923 58.9522 44.2788C58.8387 44.1653 58.7441 44.0423 58.6684 43.9099C58.2522 43.1152 57.7035 42.2733 57.0224 41.384C56.3413 40.4758 55.5182 39.6433 54.5533 38.8865C53.6073 38.1297 52.5194 37.5054 51.2896 37.0134C50.0787 36.5026 48.7259 36.2472 47.2312 36.2472C46.8717 36.2472 46.446 36.2945 45.9541 36.3891C45.4621 36.4647 44.9607 36.5688 44.4499 36.7012C43.958 36.8148 43.4944 36.9472 43.0593 37.0986C42.6241 37.231 42.293 37.3445 42.066 37.4391C42.066 36.6634 42.2079 36.0107 42.4917 35.4809C42.7944 34.9511 43.1822 34.5254 43.6553 34.2038C44.1472 33.8632 44.7148 33.6267 45.3581 33.4943C46.0014 33.3429 46.6636 33.2672 47.3447 33.2672C47.8366 33.2672 48.3191 33.2861 48.7921 33.324C49.284 33.3618 49.7381 33.4375 50.1543 33.551V32.3023C50.1543 31.905 50.0692 31.5076 49.8989 31.1103C49.7286 30.713 49.5111 30.3535 49.2462 30.0319C49.0002 29.6913 48.7259 29.417 48.4231 29.2088C48.1204 29.0007 47.8461 28.8967 47.6001 28.8967H44.7905C44.4499 28.8967 44.2323 28.8683 44.1377 28.8115C44.0431 28.7548 43.9958 28.6129 43.9958 28.3858C43.9958 28.3101 44.0431 28.1682 44.1377 27.9601C44.2323 27.752 44.3364 27.5344 44.4499 27.3074C44.5634 27.0803 44.6769 26.8627 44.7905 26.6546C44.904 26.4276 44.9891 26.2667 45.0459 26.1721H57.1643Z" fill="#040403"/>
<path d="M5.2435 61.0502C5.82644 61.3511 6.56922 61.652 7.47183 61.9529C8.37444 62.2537 9.23005 62.4042 10.0386 62.4042C11.1857 62.4042 12.0413 62.2255 12.6054 61.8682C13.1884 61.511 13.4799 60.9938 13.4799 60.3169C13.4799 59.6775 13.0944 59.1134 12.3234 58.6245C11.5712 58.1167 10.7344 57.6278 9.81299 57.1577C8.45906 56.462 7.16156 55.6534 5.92046 54.7319C4.69817 53.7917 4.08703 52.4754 4.08703 50.783C4.08703 49.3351 4.66056 48.1222 5.80763 47.1443C6.95471 46.1477 8.58129 45.6494 10.6874 45.6494C11.6464 45.6494 12.6054 45.7998 13.5645 46.1007C14.5235 46.4016 15.3697 46.7306 16.1031 47.0879L14.8902 50.0214C14.3073 49.7394 13.6773 49.4761 13.0003 49.2316C12.3234 48.9684 11.5712 48.8367 10.7438 48.8367C9.93522 48.8367 9.24885 48.9966 8.68472 49.3163C8.13939 49.6359 7.86672 50.1248 7.86672 50.783C7.86672 51.4788 8.1958 52.0617 8.85396 52.5318C9.53092 52.9831 10.3395 53.4438 11.2797 53.9139L11.4772 54.0268C12.8311 54.7225 14.1286 55.5499 15.3697 56.509C16.6296 57.4492 17.2596 58.7373 17.2596 60.3733C17.2596 61.8964 16.639 63.1563 15.3979 64.153C14.1756 65.1496 12.408 65.6479 10.0951 65.6479C9.28646 65.6479 8.24281 65.4693 6.96411 65.112C5.70421 64.7547 4.85801 64.388 4.42551 64.0119L5.2435 61.0502ZM24.4736 45.9597V54.2242H32.033V46.1007H35.6717V65.2812H32.033V57.1577H24.4736V65.2812H20.835V46.1007L24.4736 45.9597ZM39.6583 55.7756C39.6583 52.8233 40.4293 50.4163 41.9713 48.5547C43.5132 46.6742 45.6852 45.7058 48.487 45.6494C51.4957 45.6494 53.7241 46.6178 55.172 48.5547C56.6199 50.4915 57.3439 52.8327 57.3439 55.5781C57.3439 58.5493 56.5635 60.975 55.0028 62.8555C53.4608 64.7359 51.2889 65.6761 48.487 65.6761C45.4971 65.6761 43.2782 64.7171 41.8302 62.7991C40.3823 60.8622 39.6583 58.521 39.6583 55.7756ZM43.4662 55.7474C43.4662 57.7595 43.8705 59.4049 44.6791 60.6836C45.4877 61.9623 46.7476 62.6016 48.4588 62.6016C50.0008 62.6016 51.2325 62.0281 52.1539 60.881C53.0753 59.7339 53.536 57.9663 53.536 55.5781C53.536 53.5849 53.1317 51.9489 52.3231 50.6702C51.5145 49.3915 50.2546 48.7521 48.5434 48.7521C47.0391 48.7521 45.8168 49.3821 44.8766 50.642C43.9363 51.9019 43.4662 53.6037 43.4662 55.7474Z" fill="#040403"/>
</g>
<defs>
<clipPath id="clip0_438_1089">
<rect width="60" height="65.9424" fill="white"/>
</clipPath>
<clipPath id="clip1_438_1089">
<rect width="20.0011" height="20.0011" fill="white" transform="translate(19.6553 2.90625)"/>
</clipPath>
</defs>
</svg>
